SplineFontDB: 3.0
FontName: Oswald-Extra-LightItalic
FullName: Oswald Extra-LightItalic
FamilyName: Oswald
Weight: Extra-Light
Copyright: Copyright (c) 2010-13 by Vernon Adams
Version: 3.0
ItalicAngle: 0
UnderlinePosition: -67
UnderlineWidth: 21
Ascent: 1658
Descent: 390
sfntRevision: 0x00030000
LayerCount: 2
Layer: 0 1 "Back"  1
Layer: 1 1 "Fore"  0
XUID: [1021 653 12281407 14049824]
FSType: 0
OS2Version: 4
OS2_WeightWidthSlopeOnly: 0
OS2_UseTypoMetrics: 1
CreationTime: 1372549120
ModificationTime: 1372626237
PfmFamily: 17
TTFWeight: 200
TTFWidth: 5
LineGap: 0
VLineGap: 0
Panose: 2 0 3 3 0 0 0 0 0 0
OS2TypoAscent: 1658
OS2TypoAOffset: 0
OS2TypoDescent: -390
OS2TypoDOffset: 0
OS2TypoLinegap: 0
OS2WinAscent: 1658
OS2WinAOffset: 0
OS2WinDescent: 390
OS2WinDOffset: 0
HheadAscent: 1658
HheadAOffset: 0
HheadDescent: -390
HheadDOffset: 0
OS2SubXSize: 1331
OS2SubYSize: 1433
OS2SubXOff: 0
OS2SubYOff: 286
OS2SupXSize: 1331
OS2SupYSize: 1433
OS2SupXOff: 0
OS2SupYOff: 983
OS2StrikeYSize: 102
OS2StrikeYPos: 530
OS2Vendor: 'newt'
OS2CodePages: 20000097.00000000
OS2UnicodeRanges: a00002ef.4000204b.00000000.00000000
Lookup: 258 0 0 "'kern' Horizontal Kerning lookup 0"  {"'kern' Horizontal Kerning lookup 0 per glyph data 0"  "'kern' Horizontal Kerning lookup 0 kerning class 1"  } ['kern' ('DFLT' <'dflt' > 'cyrl' <'dflt' > 'latn' <'dflt' > ) ]
Lookup: 260 0 0 "'mark' Mark Positioning lookup 1"  {"'mark' Mark Positioning lookup 1 subtable"  } ['mark' ('DFLT' <'dflt' > 'cyrl' <'dflt' > 'grek' <'dflt' > 'latn' <'dflt' > ) ]
MarkAttachClasses: 1
DEI: 91125
KernClass2: 40 56 "'kern' Horizontal Kerning lookup 0 kerning class 1" 
 89 A Agrave Aacute Acircumflex Atilde Adieresis Aring Abreve Amacron Aogonek uni0200 uni0202
 16 D Dcaron uni1E0A
 94 E Egrave Eacute Ecircumflex Edieresis Ebreve Ecaron Edotaccent Emacron Eogonek uni0204 uni0206
 9 F uni1E1E
 52 G Gbreve Gcircumflex Gcommaaccent Gdotaccent uni01F4
 14 K Kcommaaccent
 28 L Lacute Lcaron Lcommaaccent
 9 P uni1E56

StartChar: .notdef
Encoding: 65536 -1 0
Width: 748
Flags: W
LayerCount: 2
Fore
SplineSet
68 0 m 1,0,-1
 68 1365 l 1,1,-1
 612 1365 l 1,2,-1
 612 0 l 1,3,-1
 68 0 l 1,0,-1
136 68 m 1,4,-1
 544 68 l 1,5,-1
 544 1297 l 1,6,-1
 136 1297 l 1,7,-1
 136 68 l 1,4,-1
EndSplineSet
EndChar

StartChar: exclam
Encoding: 33 33 4
Width: 404
GlyphClass: 2
Flags: W
LayerCount: 2
Fore
SplineSet
178 356 m 1,0,-1
 273 1658 l 1,1,-1
 397 1658 l 1,2,-1
 216 356 l 1,3,-1
 178 356 l 1,0,-1
96 0 m 1,4,-1
 112 151 l 1,5,-1
 236 151 l 1,6,-1
 220 0 l 1,7,-1
 96 0 l 1,4,-1
EndSplineSet
EndChar

StartChar: quotedbl
Encoding: 34 34 5
Width: 699
GlyphClass: 2
Flags: W
LayerCount: 2
Fore
SplineSet
514 1188 m 1,0,-1
 563 1658 l 1,1,-1
 675 1658 l 1,2,-1
 574 1188 l 1,3,-1
 514 1188 l 1,0,-1
245 1188 m 1,4,-1
 294 1658 l 1,5,-1
 405 1658 l 1,6,-1
 304 1188 l 1,7,-1
 245 1188 l 1,4,-1
EndSplineSet
EndChar

StartChar: numbersign
Encoding: 35 35 6
Width: 928
GlyphClass: 2
Flags: W
LayerCount: 2
Fore
SplineSet
371 678 m 1,0,-1
 585 678 l 1,1,-1
 677 1022 l 1,2,-1
 463 1022 l 1,3,-1
 371 678 l 1,0,-1
88 0 m 1,4,-1
 247 599 l 1,5,-1
 116 599 l 1,6,-1
 124 678 l 1,7,-1
 268 678 l 1,8,-1
 360 1022 l 1,9,-1
 198 1022 l 1,10,-1
 206 1101 l 1,11,-1
 381 1101 l 1,12,-1
 528 1658 l 1,13,-1
 631 1658 l 1,14,-1
 484 1101 l 1,15,-1
 698 1101 l 1,16,-1
 846 1658 l 1,17,-1
 948 1658 l 1,18,-1
 801 1101 l 1,19,-1
 918 1101 l 1,20,-1
 910 1022 l 1,21,-1
 780 1022 l 1,22,-1
 688 678 l 1,23,-1
 836 678 l 1,24,-1
 827 599 l 1,25,-1
 667 599 l 1,26,-1
 509 0 l 1,27,-1
 405 0 l 1,28,-1
 564 599 l 1,29,-1
 350 599 l 1,30,-1
 191 0 l 1,31,-1
 88 0 l 1,4,-1
EndSplineSet
EndChar

StartChar: dollar
Encoding: 36 36 7
Width: 923
GlyphClass: 2
Flags: W
LayerCount: 2
Fore
SplineSet
413 -192 m 1,0,-1
 431 -21 l 1,1,2
 77 -15 77 -15 85 409 c 1,3,-1
 187 440 l 1,4,5
 189 369 189 369 196 317 c 128,-1,6
 203 265 203 265 220.5 216.5 c 128,-1,7
 238 168 238 168 267 137.5 c 128,-1,8
 296 107 296 107 342.5 89 c 128,-1,9
 389 71 389 71 452 71 c 0,10,11
 718 71 718 71 746 338 c 0,12,13
 756 439 756 439 713.5 523 c 128,-1,14
 671 607 671 607 570 720 c 2,15,-1
 298 1022 l 2,16,17
 169 1166 169 1166 186 1337 c 1,18,19
 203 1493 203 1493 303.5 1580.5 c 128,-1,20
 404 1668 404 1668 560 1676 c 1,21,-1
 580 1870 l 1,22,-1
 641 1870 l 1,23,-1
 621 1676 l 1,24,25
 782 1668 782 1668 859.5 1572 c 128,-1,26
 937 1476 937 1476 928 1261 c 1,27,-1
 831 1239 l 1,28,29
 835 1421 835 1421 779 1505.5 c 128,-1,30
 723 1590 723 1590 580 1587 c 0,31,32
 458 1585 458 1585 380 1525.5 c 128,-1,33
 302 1466 302 1466 289 1345 c 0,34,35
 275 1217 275 1217 384 1094 c 1,36,-1
 653 799 l 2,37,38
 756 685 756 685 809.5 575.5 c 128,-1,39
 863 466 863 466 851 344 c 0,40,41
 834 178 834 178 737.5 86 c 128,-1,42
 641 -6 641 -6 491 -19 c 1,43,-1
 472 -192 l 1,44,-1
 413 -192 l 1,0,-1
EndSplineSet
EndChar

StartChar: percent
Encoding: 37 37 8
Width: 1302
GlyphClass: 2
Flags: W
LayerCount: 2
Fore
SplineSet
277 0 m 1,0,-1
 1020 1680 l 1,1,-1
 1120 1680 l 1,2,-1
 378 0 l 1,3,-1
 277 0 l 1,0,-1
963 -13 m 0,4,5
 755 -13 755 -13 783 266 c 1,6,-1
 814 557 l 2,7,8
 844 831 844 831 1052 831 c 128,-1,9
 1260 831 1260 831 1232 560 c 1,10,-1
 1200 264 l 1,11,12
 1173 -13 1173 -13 963 -13 c 0,4,5
972 72 m 0,13,14
 1031 72 1031 72 1061.5 120.5 c 128,-1,15
 1092 169 1092 169 1102 260 c 2,16,-1
 1133 562 l 1,17,18
 1153 746 1153 746 1043 746 c 0,19,20
 983 746 983 746 953.5 698 c 128,-1,21
 924 650 924 650 914 561 c 2,22,-1
 882 260 l 2,23,24
 872 168 872 168 892 120 c 128,-1,25
 912 72 912 72 972 72 c 0,13,14
343 855 m 0,26,27
 133 855 133 855 164 1134 c 1,28,-1
 194 1425 l 2,29,30
 222 1699 222 1699 432 1699 c 0,31,32
 640 1699 640 1699 612 1428 c 2,33,-1
 581 1132 l 2,34,35
 552 855 552 855 343 855 c 0,26,27
352 940 m 128,-1,37
 412 940 412 940 441.5 988 c 128,-1,38
 471 1036 471 1036 481 1128 c 2,39,-1
 513 1430 l 2,40,41
 533 1614 533 1614 422 1614 c 0,42,43
 312 1614 312 1614 294 1429 c 1,44,-1
 262 1128 l 2,45,46
 252 1036 252 1036 272 988 c 128,-1,36
 292 940 292 940 352 940 c 128,-1,37
EndSplineSet
EndChar

StartChar: ampersand
Encoding: 38 38 9
Width: 1232
GlyphClass: 2
Flags: W
LayerCount: 2
Fore
SplineSet
519 916 m 1,0,1
 674 1048 674 1048 767.5 1163.5 c 128,-1,2
 861 1279 861 1279 873 1392 c 0,3,4
 883 1485 883 1485 826.5 1535.5 c 128,-1,5
 770 1586 770 1586 663 1586 c 0,6,7
 546 1586 546 1586 477.5 1517 c 128,-1,8
 409 1448 409 1448 397 1340 c 0,9,10
 388 1251 388 1251 415.5 1161 c 128,-1,11
 443 1071 443 1071 519 916 c 1,0,1
478 70 m 0,12,13
 559 70 559 70 632.5 103.5 c 128,-1,14
 706 137 706 137 784 211 c 1,15,-1
 480 782 l 1,16,17
 348 656 348 656 290 557.5 c 128,-1,18
 232 459 232 459 221 357 c 0,19,20
 217 315 217 315 221.5 276 c 128,-1,21
 226 237 226 237 243.5 199 c 128,-1,22
 261 161 261 161 290 132.5 c 128,-1,23
 319 104 319 104 367.5 87 c 128,-1,24
 416 70 416 70 478 70 c 0,12,13
466 -22 m 0,25,26
 369 -22 369 -22 295.5 8.5 c 128,-1,27
 222 39 222 39 180.5 92 c 128,-1,28
 139 145 139 145 121.5 213 c 128,-1,29
 104 281 104 281 112 358 c 0,30,31
 124 475 124 475 198.5 592 c 128,-1,32
 273 709 273 709 443 861 c 1,33,34
 345 1053 345 1053 312.5 1145.5 c 128,-1,35
 280 1238 280 1238 291 1337 c 0,36,37
 308 1499 308 1499 411 1588 c 128,-1,38
 514 1677 514 1677 675 1677 c 0,39,40
 831 1677 831 1677 911.5 1599.5 c 128,-1,41
 992 1522 992 1522 978 1388 c 0,42,43
 965 1269 965 1269 858.5 1138.5 c 128,-1,44
 752 1008 752 1008 553 848 c 1,45,-1
 854 278 l 1,46,47
 928 361 928 361 987.5 493 c 128,-1,48
 1047 625 1047 625 1060 719 c 1,49,-1
 1160 719 l 1,50,51
 1148 607 1148 607 1077.5 459.5 c 128,-1,52
 1007 312 1007 312 906 208 c 1,53,54
 954 138 954 138 997 113.5 c 128,-1,55
 1040 89 1040 89 1098 89 c 1,56,-1
 1088 -12 l 1,57,58
 1064 -12 1064 -12 1044 -8 c 1,59,60
 919 8 919 8 835 141 c 1,61,62
 763 69 763 69 667.5 23.5 c 128,-1,63
 572 -22 572 -22 466 -22 c 0,25,26
EndSplineSet
EndChar

StartChar: quotesingle
Encoding: 39 39 10
Width: 487
GlyphClass: 2
Flags: W
LayerCount: 2
Fore
SplineSet
245 1188 m 1,0,-1
 294 1658 l 1,1,-1
 405 1658 l 1,2,-1
 304 1188 l 1,3,-1
 245 1188 l 1,0,-1
EndSplineSet
EndChar

StartChar: parenleft
Encoding: 40 40 11
Width: 545
GlyphClass: 2
Flags: W
LayerCount: 2
Fore
SplineSet
407 -302 m 1,0,1
 351 -297 351 -297 308 -276 c 128,-1,2
 265 -255 265 -255 237 -211.5 c 128,-1,3
 209 -168 209 -168 190.5 -124 c 128,-1,4
 172 -80 172 -80 165.5 -2.5 c 128,-1,5
 159 75 159 75 156.5 136 c 128,-1,6
 154 197 154 197 161.5 303 c 128,-1,7
 169 409 169 409 176 482.5 c 128,-1,8
 183 556 183 556 196 683 c 0,9,10
 211 830 211 830 221 913.5 c 128,-1,11
 231 997 231 997 249.5 1115.5 c 128,-1,12
 268 1234 268 1234 287 1301 c 128,-1,13
 306 1368 306 1368 337 1446.5 c 128,-1,14
 368 1525 368 1525 405.5 1566 c 128,-1,15
 443 1607 443 1607 496 1636.5 c 128,-1,16
 549 1666 549 1666 614 1669 c 1,17,-1
 606 1590 l 1,18,19
 555 1583 555 1583 515 1552 c 128,-1,20
 475 1521 475 1521 445.5 1451.5 c 128,-1,21
 416 1382 416 1382 396.5 1322 c 128,-1,22
 377 1262 377 1262 359 1139 c 128,-1,23
 341 1016 341 1016 332 939 c 128,-1,24
 323 862 323 862 306 702 c 0,25,26
 305 689 305 689 304 683 c 0,27,28
 262 287 262 287 260 143 c 0,29,30
 258 -121 258 -121 344 -193 c 0,31,32
 374 -218 374 -218 416 -224 c 1,33,-1
 407 -302 l 1,0,1
EndSplineSet
EndChar

StartChar: parenright
Encoding: 41 41 12
Width: 522
GlyphClass: 2
Flags: W
LayerCount: 2
Fore
SplineSet
-12 -302 m 1,0,-1
 -3 -224 l 1,1,2
 120 -207 120 -207 185 -21 c 0,3,4
 238 128 238 128 279 493 c 0,5,6
 285 547 285 547 297 660 c 0,7,8
 299 676 299 676 300 684 c 0,9,10
 340 1078 340 1078 342 1215 c 0,11,12
 346 1481 346 1481 263 1556 c 0,13,14
 232 1584 232 1584 188 1590 c 1,15,-1
 196 1669 l 1,16,17
 253 1666 253 1666 296 1646.5 c 128,-1,18
 339 1627 339 1627 366.5 1584.5 c 128,-1,19
 394 1542 394 1542 413 1498.5 c 128,-1,20
 432 1455 432 1455 438.5 1376.5 c 128,-1,21
 445 1298 445 1298 447 1236.5 c 128,-1,22
 449 1175 449 1175 441.5 1067.5 c 128,-1,23
 434 960 434 960 427 886.5 c 128,-1,24
 420 813 420 813 407 684 c 0,25,26
 392 538 392 538 382 456 c 128,-1,27
 372 374 372 374 353.5 256 c 128,-1,28
 335 138 335 138 316 72 c 128,-1,29
 297 6 297 6 266 -72.5 c 128,-1,30
 235 -151 235 -151 197.5 -192.5 c 128,-1,31
 160 -234 160 -234 107 -265 c 128,-1,32
 54 -296 54 -296 -12 -302 c 1,0,-1
EndSplineSet
EndChar

StartChar: asterisk
Encoding: 42 42 13
Width: 730
GlyphClass: 2
Flags: W
LayerCount: 2
Fore
SplineSet
268 1008 m 1,0,-1
 204 1052 l 1,1,-1
 418 1298 l 1,2,-1
 165 1405 l 1,3,-1
 201 1476 l 1,4,-1
 444 1353 l 1,5,-1
 463 1657 l 1,6,-1
 550 1657 l 1,7,-1
 503 1353 l 1,8,-1
 769 1476 l 1,9,-1
 790 1405 l 1,10,-1
 516 1298 l 1,11,-1
 678 1049 l 1,12,-1
 604 1008 l 1,13,-1
 463 1269 l 1,14,-1
 268 1008 l 1,0,-1
EndSplineSet
EndChar

StartChar: plus
Encoding: 43 43 14
Width: 745
GlyphClass: 2
Flags: W
LayerCount: 2
Fore
SplineSet
338 492 m 1,0,-1
 371 810 l 1,1,-1
 89 810 l 1,2,-1
 97 892 l 1,3,-1
 380 892 l 1,4,-1
 413 1205 l 1,5,-1
 498 1205 l 1,6,-1
 465 892 l 1,7,-1
 751 892 l 1,8,-1
 742 810 l 1,9,-1
 456 810 l 1,10,-1
 423 492 l 1,11,-1
 338 492 l 1,0,-1
EndSplineSet
EndChar

StartChar: comma
Encoding: 44 44 15
Width: 363
GlyphClass: 2
Flags: W
LayerCount: 2
Fore
SplineSet
75 -220 m 1,0,-1
 52 -173 l 1,1,2
 107 -135 107 -135 128 -99 c 128,-1,3
 149 -63 149 -63 156 0 c 1,4,-1
 82 0 l 1,5,-1
 105 216 l 1,6,-1
 238 216 l 1,7,-1
 217 23 l 2,8,9
 207 -72 207 -72 176.5 -124.5 c 128,-1,10
 146 -177 146 -177 75 -220 c 1,0,-1
EndSplineSet
EndChar

StartChar: hyphen
Encoding: 45 45 16
Width: 580
GlyphClass: 2
Flags: W
LayerCount: 2
Fore
SplineSet
105 653 m 1,0,-1
 114 743 l 1,1,-1
 537 743 l 1,2,-1
 528 653 l 1,3,-1
 105 653 l 1,0,-1
EndSplineSet
EndChar

StartChar: period
Encoding: 46 46 17
Width: 363
GlyphClass: 2
Flags: W
LayerCount: 2
Fore
SplineSet
93 0 m 1,0,-1
 115 213 l 1,1,-1
 237 213 l 1,2,-1
 215 0 l 1,3,-1
 93 0 l 1,0,-1
EndSplineSet
EndChar

StartChar: slash
Encoding: 47 47 18
Width: 674
GlyphClass: 2
Flags: W
LayerCount: 2
Fore
SplineSet
1 0 m 1,0,-1
 663 1658 l 1,1,-1
 760 1658 l 1,2,-1
 100 0 l 1,3,-1
 1 0 l 1,0,-1
EndSplineSet
EndChar

StartChar: zero
Encoding: 48 48 19
Width: 1009
GlyphClass: 2
Flags: W
LayerCount: 2
Fore
SplineSet
459 -22 m 0,0,1
 349 -22 349 -22 275 14.5 c 128,-1,2
 201 51 201 51 167 116 c 128,-1,3
 133 181 133 181 122 270.5 c 128,-1,4
 111 360 111 360 125 466 c 1,5,-1
 200 1191 l 2,6,7
 212 1303 212 1303 240.5 1388.5 c 128,-1,8
 269 1474 269 1474 319.5 1540.5 c 128,-1,9
 370 1607 370 1607 450.5 1642 c 128,-1,10
 531 1677 531 1677 638 1677 c 128,-1,11
 745 1677 745 1677 818.5 1641.5 c 128,-1,12
 892 1606 892 1606 927.5 1541.5 c 128,-1,13
 963 1477 963 1477 975.5 1387.5 c 128,-1,14
 988 1298 988 1298 974 1191 c 1,15,-1
 898 466 l 2,16,17
 886 353 886 353 859 268.5 c 128,-1,18
 832 184 832 184 782.5 116.5 c 128,-1,19
 733 49 733 49 651.5 13.5 c 128,-1,20
 570 -22 570 -22 459 -22 c 0,0,1
468 62 m 0,21,22
 617 62 617 62 690.5 163.5 c 128,-1,23
 764 265 764 265 783 448 c 2,24,-1
 863 1209 l 1,25,26
 874 1293 874 1293 866 1363.5 c 128,-1,27
 858 1434 858 1434 834 1485 c 128,-1,28
 810 1536 810 1536 758.5 1564.5 c 128,-1,29
 707 1593 707 1593 630 1593 c 0,30,31
 568 1593 568 1593 519 1574.5 c 128,-1,32
 470 1556 470 1556 435 1523 c 128,-1,33
 400 1490 400 1490 375 1441 c 128,-1,34
 350 1392 350 1392 335.5 1335.5 c 128,-1,35
 321 1279 321 1279 314 1209 c 2,36,-1
 234 448 l 1,37,38
 223 364 223 364 231 293 c 128,-1,39
 239 222 239 222 263.5 170.5 c 128,-1,40
 288 119 288 119 339.5 90.5 c 128,-1,41
 391 62 391 62 468 62 c 0,21,22
EndSplineSet
EndChar

StartChar: one
Encoding: 49 49 20
Width: 825
GlyphClass: 2
Flags: W
LayerCount: 2
Fore
SplineSet
385 0 m 1,0,-1
 543 1510 l 1,1,2
 505 1463 505 1463 427 1426 c 128,-1,3
 349 1389 349 1389 290 1372 c 1,4,-1
 301 1466 l 1,5,6
 361 1482 361 1482 440 1535.5 c 128,-1,7
 519 1589 519 1589 574 1658 c 1,8,-1
 667 1658 l 1,9,-1
 493 0 l 1,10,-1
 385 0 l 1,0,-1
EndSplineSet
EndChar

StartChar: two
Encoding: 50 50 21
Width: 1001
GlyphClass: 2
Flags: W
LayerCount: 2
Fore
SplineSet
68 0 m 1,0,-1
 77 82 l 1,1,-1
 611 783 l 1,2,3
 725 931 725 931 763 995 c 0,4,5
 845 1133 845 1133 861 1275 c 1,6,7
 876 1421 876 1421 818.5 1503 c 128,-1,8
 761 1585 761 1585 640 1585 c 0,9,10
 554 1585 554 1585 493.5 1558.5 c 128,-1,11
 433 1532 433 1532 396.5 1480 c 128,-1,12
 360 1428 360 1428 340.5 1365 c 128,-1,13
 321 1302 321 1302 311 1215 c 0,14,15
 310 1213 310 1213 309 1201 c 128,-1,16
 308 1189 308 1189 308 1187 c 1,17,-1
 201 1187 l 1,18,-1
 205 1221 l 1,19,20
 229 1453 229 1453 335.5 1565 c 128,-1,21
 442 1677 442 1677 645 1677 c 0,22,23
 822 1677 822 1677 904.5 1567.5 c 128,-1,24
 987 1458 987 1458 967 1260 c 0,25,26
 961 1203 961 1203 942 1144.5 c 128,-1,27
 923 1086 923 1086 902 1041 c 128,-1,28
 881 996 881 996 842.5 937 c 128,-1,29
 804 878 804 878 779 843.5 c 128,-1,30
 754 809 754 809 707 748 c 2,31,-1
 203 93 l 1,32,-1
 811 93 l 1,33,-1
 801 0 l 1,34,-1
 68 0 l 1,0,-1
EndSplineSet
EndChar

StartChar: three
Encoding: 51 51 22
Width: 994
GlyphClass: 2
Flags: W
LayerCount: 2
Fore
SplineSet
442 -22 m 0,0,1
 96 -22 96 -22 136 368 c 1,2,-1
 139 399 l 1,3,-1
 242 399 l 1,4,5
 242 398 242 398 240.5 383 c 128,-1,6
 239 368 239 368 238 367 c 0,7,8
 223 218 223 218 274 142 c 128,-1,9
 325 66 325 66 452 66 c 0,10,11
 513 66 513 66 562 83.5 c 128,-1,12
 611 101 611 101 653.5 142 c 128,-1,13
 696 183 696 183 724.5 258 c 128,-1,14
 753 333 753 333 764 440 c 0,15,16
 803 815 803 815 537 820 c 1,17,-1
 490 820 l 1,18,-1
 500 915 l 1,19,-1
 546 915 l 1,20,21
 691 916 691 916 761 999.5 c 128,-1,22
 831 1083 831 1083 852 1270 c 1,23,24
 885 1590 885 1590 635 1590 c 0,25,26
 498 1590 498 1590 425.5 1519.5 c 128,-1,27
 353 1449 353 1449 335 1288 c 0,28,29
 335 1286 335 1286 334 1276 c 128,-1,30
 333 1266 333 1266 333 1264 c 1,31,-1
 230 1264 l 1,32,-1
 232 1291 l 1,33,34
 251 1475 251 1475 348.5 1576 c 128,-1,35
 446 1677 446 1677 643 1677 c 0,36,37
 736 1677 736 1677 803.5 1646 c 128,-1,38
 871 1615 871 1615 908 1559 c 128,-1,39
 945 1503 945 1503 958.5 1430.5 c 128,-1,40
 972 1358 972 1358 963 1269 c 0,41,42
 944 1089 944 1089 868.5 987.5 c 128,-1,43
 793 886 793 886 684 865 c 1,44,45
 717 857 717 857 746.5 839 c 128,-1,46
 776 821 776 821 805 788 c 128,-1,47
 834 755 834 755 851.5 708 c 128,-1,48
 869 661 869 661 878 594.5 c 128,-1,49
 887 528 887 528 877 443 c 0,50,51
 854 226 854 226 747.5 102 c 128,-1,52
 641 -22 641 -22 442 -22 c 0,0,1
EndSplineSet
EndChar

StartChar: four
Encoding: 52 52 23
Width: 1009
GlyphClass: 2
Flags: W
LayerCount: 2
Fore
SplineSet
251 611 m 1,0,-1
 649 611 l 1,1,-1
 742 1500 l 1,2,-1
 251 611 l 1,0,-1
584 0 m 1,3,-1
 638 509 l 1,4,-1
 126 509 l 1,5,-1
 137 614 l 1,6,-1
 740 1658 l 1,7,-1
 867 1658 l 1,8,-1
 758 611 l 1,9,-1
 949 611 l 1,10,-1
 938 509 l 1,11,-1
 747 509 l 1,12,-1
 693 0 l 1,13,-1
 584 0 l 1,3,-1
EndSplineSet
EndChar

StartChar: five
Encoding: 53 53 24
Width: 1000
GlyphClass: 2
Flags: W
LayerCount: 2
Fore
SplineSet
470 -19 m 0,0,1
 288 -19 288 -19 215 86.5 c 128,-1,2
 142 192 142 192 165 406 c 1,3,-1
 272 406 l 1,4,5
 254 229 254 229 303.5 148 c 128,-1,6
 353 67 353 67 485 67 c 0,7,8
 628 67 628 67 695.5 169.5 c 128,-1,9
 763 272 763 272 787 507 c 1,10,11
 800 611 800 611 796.5 688 c 128,-1,12
 793 765 793 765 780 816 c 128,-1,13
 767 867 767 867 738 898 c 128,-1,14
 709 929 709 929 672 942 c 128,-1,15
 635 955 635 955 582 955 c 0,16,17
 441 955 441 955 334 816 c 1,18,-1
 245 816 l 1,19,-1
 333 1658 l 1,20,-1
 937 1658 l 1,21,-1
 924 1564 l 1,22,-1
 417 1564 l 1,23,-1
 345 920 l 1,24,25
 444 1040 444 1040 620 1040 c 0,26,27
 791 1040 791 1040 857 909.5 c 128,-1,28
 923 779 923 779 895 518 c 0,29,30
 866 241 866 241 763.5 111 c 128,-1,31
 661 -19 661 -19 470 -19 c 0,0,1
EndSplineSet
EndChar

StartChar: six
Encoding: 54 54 25
Width: 1008
GlyphClass: 2
Flags: W
LayerCount: 2
Fore
SplineSet
483 70 m 0,0,1
 551 70 551 70 600.5 87 c 128,-1,2
 650 104 650 104 690.5 146 c 128,-1,3
 731 188 731 188 756 262.5 c 128,-1,4
 781 337 781 337 792 448 c 1,5,6
 811 604 811 604 801 700 c 128,-1,7
 791 796 791 796 737.5 837.5 c 128,-1,8
 684 879 684 879 568 879 c 0,9,10
 501 879 501 879 423 851.5 c 128,-1,11
 345 824 345 824 300 795 c 1,12,-1
 267 485 l 2,13,14
 250 326 250 326 271 233 c 128,-1,15
 292 140 292 140 343 105 c 128,-1,16
 394 70 394 70 483 70 c 0,0,1
473 -22 m 0,17,18
 280 -22 280 -22 205.5 103 c 128,-1,19
 131 228 131 228 158 483 c 2,20,-1
 234 1207 l 2,21,22
 284 1677 284 1677 651 1677 c 0,23,24
 833 1677 833 1677 908 1586 c 128,-1,25
 983 1495 983 1495 965 1304 c 0,26,27
 965 1303 965 1303 963 1285 c 128,-1,28
 961 1267 961 1267 961 1266 c 1,29,-1
 855 1266 l 1,30,31
 874 1445 874 1445 826 1516 c 128,-1,32
 778 1587 778 1587 648 1587 c 0,33,34
 590 1587 590 1587 543 1570 c 128,-1,35
 496 1553 496 1553 454 1514 c 128,-1,36
 412 1475 412 1475 384 1403 c 128,-1,37
 356 1331 356 1331 345 1228 c 2,38,-1
 308 878 l 1,39,40
 364 912 364 912 442.5 939 c 128,-1,41
 521 966 521 966 600 966 c 0,42,43
 803 966 803 966 870 856 c 128,-1,44
 937 746 937 746 906 462 c 0,45,46
 881 224 881 224 777 101 c 128,-1,47
 673 -22 673 -22 473 -22 c 0,17,18
EndSplineSet
EndChar

StartChar: seven
Encoding: 55 55 26
Width: 946
GlyphClass: 2
Flags: W
LayerCount: 2
Fore
SplineSet
312 0 m 1,0,-1
 814 1568 l 1,1,-1
 277 1568 l 1,2,-1
 286 1658 l 1,3,-1
 936 1658 l 1,4,-1
 930 1604 l 1,5,-1
 419 0 l 1,6,-1
 312 0 l 1,0,-1
EndSplineSet
EndChar

StartChar: eight
Encoding: 56 56 27
Width: 1001
GlyphClass: 2
Flags: W
LayerCount: 2
Fore
SplineSet
555 916 m 1,0,1
 694 925 694 925 762.5 1013.5 c 128,-1,2
 831 1102 831 1102 848 1263 c 0,3,4
 866 1429 866 1429 810.5 1507.5 c 128,-1,5
 755 1586 755 1586 625 1586 c 0,6,7
 494 1586 494 1586 422.5 1507.5 c 128,-1,8
 351 1429 351 1429 334 1263 c 0,9,10
 317 1101 317 1101 367 1013 c 128,-1,11
 417 925 417 925 555 916 c 1,0,1
465 66 m 128,-1,13
 596 66 596 66 674.5 151.5 c 128,-1,14
 753 237 753 237 773 434 c 1,15,16
 792 611 792 611 739 707.5 c 128,-1,17
 686 804 686 804 545 821 c 1,18,19
 399 804 399 804 325.5 707.5 c 128,-1,20
 252 611 252 611 233 434 c 0,21,22
 212 237 212 237 273 151.5 c 128,-1,12
 334 66 334 66 465 66 c 128,-1,13
456 -23 m 0,23,24
 77 -23 77 -23 125 432 c 0,25,26
 132 500 132 500 147.5 557 c 128,-1,27
 163 614 163 614 180.5 654 c 128,-1,28
 198 694 198 694 225 728 c 128,-1,29
 252 762 252 762 273 781.5 c 128,-1,30
 294 801 294 801 327.5 820 c 128,-1,31
 361 839 361 839 379 847 c 128,-1,32
 397 855 397 855 429 868 c 1,33,34
 318 902 318 902 264 1002.5 c 128,-1,35
 210 1103 210 1103 227 1267 c 0,36,37
 236 1357 236 1357 262.5 1428.5 c 128,-1,38
 289 1500 289 1500 336 1557.5 c 128,-1,39
 383 1615 383 1615 458.5 1646 c 128,-1,40
 534 1677 534 1677 634 1677 c 128,-1,41
 734 1677 734 1677 803 1645 c 128,-1,42
 872 1613 872 1613 907 1555 c 128,-1,43
 942 1497 942 1497 953.5 1424.5 c 128,-1,44
 965 1352 965 1352 955 1262 c 0,45,46
 938 1099 938 1099 863.5 1001 c 128,-1,47
 789 903 789 903 670 868 c 1,48,49
 690 859 690 859 701.5 853.5 c 128,-1,50
 713 848 713 848 733.5 837 c 128,-1,51
 754 826 754 826 766.5 816 c 128,-1,52
 779 806 779 806 797.5 790 c 128,-1,53
 816 774 816 774 826.5 756 c 128,-1,54
 837 738 837 738 850.5 714.5 c 128,-1,55
 864 691 864 691 870.5 662 c 128,-1,56
 877 633 877 633 882.5 599 c 128,-1,57
 888 565 888 565 887.5 522.5 c 128,-1,58
 887 480 887 480 882 432 c 0,59,60
 834 -23 834 -23 456 -23 c 0,23,24
EndSplineSet
EndChar

StartChar: nine
Encoding: 57 57 28
Width: 1008
GlyphClass: 2
Flags: W
LayerCount: 2
Fore
SplineSet
546 776 m 0,0,1
 698 776 698 776 814 860 c 1,2,-1
 846 1170 l 2,3,4
 863 1330 863 1330 843 1422.5 c 128,-1,5
 823 1515 823 1515 772.5 1550 c 128,-1,6
 722 1585 722 1585 633 1585 c 0,7,8
 496 1585 496 1585 419.5 1499.5 c 128,-1,9
 343 1414 343 1414 321 1207 c 1,10,11
 302 1051 302 1051 312.5 955 c 128,-1,12
 323 859 323 859 376.5 817.5 c 128,-1,13
 430 776 430 776 546 776 c 0,0,1
471 -22 m 0,14,15
 288 -22 288 -22 209 70 c 128,-1,16
 130 162 130 162 149 352 c 0,17,18
 149 353 149 353 151 371 c 2,19,-1
 153 389 l 1,20,-1
 258 389 l 1,21,22
 239 208 239 208 288.5 138 c 128,-1,23
 338 68 338 68 483 68 c 0,24,25
 543 68 543 68 587.5 84.5 c 128,-1,26
 632 101 632 101 670 141 c 128,-1,27
 708 181 708 181 732.5 252 c 128,-1,28
 757 323 757 323 768 427 c 2,29,-1
 805 776 l 1,30,31
 761 742 761 742 687 715.5 c 128,-1,32
 613 689 613 689 514 689 c 0,33,34
 311 689 311 689 244 799 c 128,-1,35
 177 909 177 909 207 1193 c 0,36,37
 232 1431 232 1431 337 1554 c 128,-1,38
 442 1677 442 1677 643 1677 c 0,39,40
 835 1677 835 1677 908.5 1552 c 128,-1,41
 982 1427 982 1427 955 1172 c 2,42,-1
 879 448 l 2,43,44
 855 219 855 219 757.5 98.5 c 128,-1,45
 660 -22 660 -22 471 -22 c 0,14,15
EndSplineSet
EndChar

StartChar: colon
Encoding: 58 58 29
Width: 392
GlyphClass: 2
Flags: W
LayerCount: 2
Fore
SplineSet
203 877 m 1,0,-1
 226 1088 l 1,1,-1
 346 1088 l 1,2,-1
 324 877 l 1,3,-1
 203 877 l 1,0,-1
127 155 m 1,4,-1
 150 365 l 1,5,-1
 270 365 l 1,6,-1
 248 155 l 1,7,-1
 127 155 l 1,4,-1
EndSplineSet
EndChar

StartChar: semicolon
Encoding: 59 59 30
Width: 417
GlyphClass: 2
Flags: W
LayerCount: 2
Fore
SplineSet
204 896 m 1,0,-1
 227 1109 l 1,1,-1
 348 1109 l 1,2,-1
 325 896 l 1,3,-1
 204 896 l 1,0,-1
120 -34 m 1,4,-1
 97 13 l 1,5,6
 153 47 153 47 173 79.5 c 128,-1,7
 193 112 193 112 200 175 c 1,8,-1
 129 175 l 1,9,-1
 149 373 l 1,10,-1
 279 373 l 1,11,-1
 261 198 l 2,12,13
 251 101 251 101 221 50 c 128,-1,14
 191 -1 191 -1 120 -34 c 1,4,-1
EndSplineSet
EndChar

StartChar: less
Encoding: 60 60 31
Width: 732
GlyphClass: 2
Flags: W
LayerCount: 2
Fore
SplineSet
589 157 m 1,0,-1
 77 577 l 1,1,-1
 88 683 l 1,2,-1
 690 1120 l 1,3,-1
 678 1003 l 1,4,-1
 168 630 l 1,5,-1
 601 272 l 1,6,-1
 589 157 l 1,0,-1
EndSplineSet
EndChar

StartChar: equal
Encoding: 61 61 32
Width: 802
GlyphClass: 2
Flags: W
LayerCount: 2
Fore
SplineSet
154 923 m 1,0,-1
 164 1014 l 1,1,-1
 765 1014 l 1,2,-1
 755 923 l 1,3,-1
 154 923 l 1,0,-1
120 590 m 1,4,-1
 129 682 l 1,5,-1
 730 682 l 1,6,-1
 721 590 l 1,7,-1
 120 590 l 1,4,-1
EndSplineSet
EndChar

StartChar: greater
Encoding: 62 62 33
Width: 732
GlyphClass: 2
Flags: W
LayerCount: 2
Fore
SplineSet
91 157 m 1,0,-1
 103 273 l 1,1,-1
 613 647 l 1,2,-1
 180 1005 l 1,3,-1
 193 1120 l 1,4,-1
 705 699 l 1,5,-1
 694 594 l 1,6,-1
 91 157 l 1,0,-1
EndSplineSet
EndChar

StartChar: question
Encoding: 63 63 34
Width: 955
GlyphClass: 2
Flags: W
LayerCount: 2
Fore
SplineSet
323 1 m 1,0,-1
 339 150 l 1,1,-1
 446 150 l 1,2,-1
 430 1 l 1,3,-1
 323 1 l 1,0,-1
371 410 m 1,4,-1
 397 661 l 1,5,6
 614 796 614 796 715.5 934.5 c 128,-1,7
 817 1073 817 1073 835 1245 c 0,8,9
 844 1330 844 1330 828.5 1397 c 128,-1,10
 813 1464 813 1464 778 1503.5 c 128,-1,11
 743 1543 743 1543 697 1563.5 c 128,-1,12
 651 1584 651 1584 596 1584 c 0,13,14
 466 1584 466 1584 389 1513 c 128,-1,15
 312 1442 312 1442 328 1314 c 1,16,-1
 336 1241 l 1,17,-1
 237 1217 l 1,18,-1
 228 1292 l 1,19,20
 215 1385 215 1385 240.5 1460.5 c 128,-1,21
 266 1536 266 1536 320.5 1582.5 c 128,-1,22
 375 1629 375 1629 448.5 1654 c 128,-1,23
 522 1679 522 1679 607 1679 c 0,24,25
 769 1679 769 1679 865 1567 c 128,-1,26
 961 1455 961 1455 939 1244 c 0,27,28
 925 1112 925 1112 869 1003 c 128,-1,29
 813 894 813 894 722 807.5 c 128,-1,30
 631 721 631 721 489 630 c 1,31,-1
 466 410 l 1,32,-1
 371 410 l 1,4,-1
EndSplineSet
EndChar

StartChar: at
Encoding: 64 64 35
Width: 1649
GlyphClass: 2
Flags: W
LayerCount: 2
Fore
SplineSet
773 340 m 1,0,1
 847 342 847 342 915 404.5 c 128,-1,2
 983 467 983 467 1033 576 c 1,3,-1
 1166 1117 l 1,4,5
 1117 1154 1117 1154 1050 1154 c 128,-1,6
 983 1154 983 1154 913.5 1116 c 128,-1,7
 844 1078 844 1078 783.5 1010.5 c 128,-1,8
 723 943 723 943 679 837.5 c 128,-1,9
 635 732 635 732 622 608 c 0,10,11
 614 531 614 531 623.5 475.5 c 128,-1,12
 633 420 633 420 656.5 391 c 128,-1,13
 680 362 680 362 709 350 c 128,-1,14
 738 338 738 338 773 340 c 1,0,1
843 -203 m 0,15,16
 57 -203 57 -203 149 680 c 0,17,18
 174 923 174 923 255.5 1112.5 c 128,-1,19
 337 1302 337 1302 456 1418.5 c 128,-1,20
 575 1535 575 1535 718.5 1595 c 128,-1,21
 862 1655 862 1655 1022 1657 c 0,22,23
 1383 1660 1383 1660 1528 1448 c 128,-1,24
 1673 1236 1673 1236 1610 810 c 0,25,26
 1590 679 1590 679 1548.5 578.5 c 128,-1,27
 1507 478 1507 478 1459 421 c 128,-1,28
 1411 364 1411 364 1353.5 327.5 c 128,-1,29
 1296 291 1296 291 1250.5 279.5 c 128,-1,30
 1205 268 1205 268 1163 268 c 0,31,32
 1094 268 1094 268 1047.5 318.5 c 128,-1,33
 1001 369 1001 369 1018 458 c 1,34,35
 973 371 973 371 905 314.5 c 128,-1,36
 837 258 837 258 753 256 c 0,37,38
 628 252 628 252 562.5 344.5 c 128,-1,39
 497 437 497 437 515 610 c 0,40,41
 530 747 530 747 583 867 c 128,-1,42
 636 987 636 987 710 1067 c 128,-1,43
 784 1147 784 1147 872.5 1193 c 128,-1,44
 961 1239 961 1239 1047 1239 c 0,45,46
 1130 1239 1130 1239 1192 1187 c 1,47,-1
 1213 1229 l 1,48,-1
 1295 1229 l 1,49,-1
 1129 543 l 1,50,51
 1118 492 1118 492 1114 461.5 c 128,-1,52
 1110 431 1110 431 1114 401.5 c 128,-1,53
 1118 372 1118 372 1137 358.5 c 128,-1,54
 1156 345 1156 345 1191 345 c 0,55,56
 1221 345 1221 345 1253.5 355.5 c 128,-1,57
 1286 366 1286 366 1327.5 397 c 128,-1,58
 1369 428 1369 428 1404 477 c 128,-1,59
 1439 526 1439 526 1470 611 c 128,-1,60
 1501 696 1501 696 1518 805 c 0,61,62
 1537 931 1537 931 1538 1035 c 128,-1,63
 1539 1139 1539 1139 1523 1218 c 128,-1,64
 1507 1297 1507 1297 1474.5 1357.5 c 128,-1,65
 1442 1418 1442 1418 1397 1459 c 128,-1,66
 1352 1500 1352 1500 1291 1525.5 c 128,-1,67
 1230 1551 1230 1551 1161.5 1561.5 c 128,-1,68
 1093 1572 1093 1572 1011 1571 c 0,69,70
 868 1569 868 1569 741 1509.5 c 128,-1,71
 614 1450 614 1450 512 1340 c 128,-1,72
 410 1230 410 1230 341.5 1061 c 128,-1,73
 273 892 273 892 251 681 c 0,74,75
 230 481 230 481 258 332 c 128,-1,76
 286 183 286 183 343 99 c 128,-1,77
 400 15 400 15 491.5 -36 c 128,-1,78
 583 -87 583 -87 668.5 -102.5 c 128,-1,79
 754 -118 754 -118 859 -118 c 0,80,81
 1039 -118 1039 -118 1243 -67 c 1,82,-1
 1263 -147 l 1,83,84
 1003 -203 1003 -203 843 -203 c 0,15,16
EndSplineSet
EndChar

StartChar: A
Encoding: 65 65 36
Width: 959
GlyphClass: 2
Flags: W
AnchorPoint: "Anchor-0" 880 0 basechar 0
LayerCount: 2
Fore
SplineSet
296 541 m 1,0,-1
 694 541 l 1,1,-1
 596 1523 l 1,2,-1
 296 541 l 1,0,-1
23 0 m 1,3,-1
 546 1658 l 1,4,-1
 674 1658 l 1,5,-1
 850 0 l 1,6,-1
 738 0 l 1,7,-1
 701 458 l 1,8,-1
 270 458 l 1,9,-1
 133 0 l 1,10,-1
 23 0 l 1,3,-1
EndSplineSet
EndChar

StartChar: B
Encoding: 66 66 37
Width: 1000
GlyphClass: 2
Flags: W
LayerCount: 2
Fore
SplineSet
320 931 m 1,0,-1
 599 931 l 2,1,2
 666 931 666 931 715 955 c 128,-1,3
 764 979 764 979 794 1024.5 c 128,-1,4
 824 1070 824 1070 840 1123 c 128,-1,5
 856 1176 856 1176 864 1245 c 1,6,7
 874 1314 874 1314 866 1373.5 c 128,-1,8
 858 1433 858 1433 832.5 1476.5 c 128,-1,9
 807 1520 807 1520 746.5 1544.5 c 128,-1,10
 686 1569 686 1569 592 1569 c 2,11,-1
 387 1569 l 1,12,-1
 320 931 l 1,0,-1
232 88 m 1,13,-1
 498 88 l 2,14,15
 580 88 580 88 636 111 c 128,-1,16
 692 134 692 134 728 185 c 128,-1,17
 764 236 764 236 783.5 306 c 128,-1,18
 803 376 803 376 814 482 c 0,19,20
 851 843 851 843 592 843 c 2,21,-1
 311 843 l 1,22,-1
 232 88 l 1,13,-1
110 0 m 1,23,-1
 284 1658 l 1,24,-1
 626 1658 l 2,25,26
 715 1658 715 1658 781 1637 c 128,-1,27
 847 1616 847 1616 885 1578.5 c 128,-1,28
 923 1541 923 1541 945.5 1489.5 c 128,-1,29
 968 1438 968 1438 970 1376.5 c 128,-1,30
 972 1315 972 1315 967 1245 c 1,31,32
 961 1189 961 1189 947.5 1138.5 c 128,-1,33
 934 1088 934 1088 908.5 1036 c 128,-1,34
 883 984 883 984 838.5 946 c 128,-1,35
 794 908 794 908 736 894 c 1,36,37
 790 878 790 878 829 843.5 c 128,-1,38
 868 809 868 809 887.5 767 c 128,-1,39
 907 725 907 725 918 675 c 128,-1,40
 929 625 929 625 927.5 577 c 128,-1,41
 926 529 926 529 923 483 c 1,42,43
 914 400 914 400 900 336 c 128,-1,44
 886 272 886 272 855.5 206 c 128,-1,45
 825 140 825 140 781 97 c 128,-1,46
 737 54 737 54 666.5 27 c 128,-1,47
 596 0 596 0 503 0 c 2,48,-1
 110 0 l 1,23,-1
EndSplineSet
EndChar

StartChar: C
Encoding: 67 67 38
Width: 1001
GlyphClass: 2
Flags: W
AnchorPoint: "Anchor-1" 480 0 basechar 0
LayerCount: 2
Fore
SplineSet
477 -22 m 0,0,1
 381 -22 381 -22 311.5 3.5 c 128,-1,2
 242 29 242 29 203 74 c 128,-1,3
 164 119 164 119 142.5 182 c 128,-1,4
 121 245 121 245 120 319.5 c 128,-1,5
 119 394 119 394 126 478 c 1,6,-1
 200 1181 l 2,7,8
 209 1271 209 1271 228 1343 c 128,-1,9
 247 1415 247 1415 282 1479 c 128,-1,10
 317 1543 317 1543 366.5 1585.5 c 128,-1,11
 416 1628 416 1628 489 1652.5 c 128,-1,12
 562 1677 562 1677 656 1677 c 0,13,14
 762 1677 762 1677 833.5 1643.5 c 128,-1,15
 905 1610 905 1610 940 1549 c 128,-1,16
 975 1488 975 1488 987 1402 c 128,-1,17
 999 1316 999 1316 986 1210 c 1,18,-1
 977 1126 l 1,19,-1
 871 1126 l 1,20,-1
 880 1211 l 1,21,22
 891 1299 891 1299 884.5 1368.5 c 128,-1,23
 878 1438 878 1438 854.5 1486.5 c 128,-1,24
 831 1535 831 1535 779.5 1560.5 c 128,-1,25
 728 1586 728 1586 648 1586 c 0,26,27
 560 1586 560 1586 498 1558.5 c 128,-1,28
 436 1531 436 1531 399 1476 c 128,-1,29
 362 1421 362 1421 343 1354.5 c 128,-1,30
 324 1288 324 1288 314 1194 c 2,31,-1
 237 460 l 1,32,33
 226 368 226 368 233 295.5 c 128,-1,34
 240 223 240 223 266 173 c 128,-1,35
 292 123 292 123 347.5 96.5 c 128,-1,36
 403 70 403 70 488 70 c 0,37,38
 568 70 568 70 625.5 96 c 128,-1,39
 683 122 683 122 717.5 174 c 128,-1,40
 752 226 752 226 770.5 290.5 c 128,-1,41
 789 355 789 355 799 446 c 2,42,-1
 809 546 l 1,43,-1
 915 546 l 1,44,-1
 907 464 l 2,45,46
 896 352 896 352 869.5 268 c 128,-1,47
 843 184 843 184 794 116 c 128,-1,48
 745 48 745 48 665.5 13 c 128,-1,49
 586 -22 586 -22 477 -22 c 0,0,1
EndSplineSet
EndChar

StartChar: D
Encoding: 68 68 39
Width: 1059
GlyphClass: 2
Flags: W
LayerCount: 2
Fore
SplineSet
110 0 m 1,0,-1
 284 1658 l 1,1,-1
 648 1658 l 2,2,3
 745 1658 745 1658 816.5 1634 c 128,-1,4
 888 1610 888 1610 930 1567 c 128,-1,5
 972 1524 972 1524 997.5 1464.5 c 128,-1,6
 1023 1405 1023 1405 1026 1333.5 c 128,-1,7
 1029 1262 1029 1262 1022 1182 c 1,8,-1
 950 494 l 2,9,10
 938 381 938 381 909 295 c 128,-1,11
 880 209 880 209 826.5 140.5 c 128,-1,12
 773 72 773 72 687 36 c 128,-1,13
 601 0 601 0 484 0 c 2,14,-1
 110 0 l 1,0,-1
232 88 m 1,15,-1
 488 88 l 2,16,17
 553 88 553 88 605 102.5 c 128,-1,18
 657 117 657 117 693 146.5 c 128,-1,19
 729 176 729 176 754.5 212 c 128,-1,20
 780 248 780 248 797 298 c 128,-1,21
 814 348 814 348 823 396 c 128,-1,22
 832 444 832 444 839 506 c 2,23,-1
 909 1173 l 1,24,25
 921 1264 921 1264 913.5 1337.5 c 128,-1,26
 906 1411 906 1411 878.5 1462.5 c 128,-1,27
 851 1514 851 1514 791 1541.5 c 128,-1,28
 731 1569 731 1569 638 1569 c 2,29,-1
 387 1569 l 1,30,-1
 232 88 l 1,15,-1
EndSplineSet
EndChar

StartChar: E
Encoding: 69 69 40
Width: 804
GlyphClass: 2
Flags: W
AnchorPoint: "Anchor-0" 511 0 basechar 0
LayerCount: 2
Fore
SplineSet
109 0 m 1,0,-1
 283 1658 l 1,1,-1
 857 1658 l 1,2,-1
 848 1569 l 1,3,-1
 386 1569 l 1,4,-1
 316 904 l 1,5,-1
 695 904 l 1,6,-1
 687 817 l 1,7,-1
 308 817 l 1,8,-1
 231 88 l 1,9,-1
 698 88 l 1,10,-1
 688 0 l 1,11,-1
 109 0 l 1,0,-1
EndSplineSet
EndChar

StartChar: F
Encoding: 70 70 41
Width: 784
GlyphClass: 2
Flags: W
LayerCount: 2
Fore
SplineSet
110 0 m 1,0,-1
 284 1658 l 1,1,-1
 856 1658 l 1,2,-1
 847 1570 l 1,3,-1
 387 1570 l 1,4,-1
 317 904 l 1,5,-1
 714 904 l 1,6,-1
 705 817 l 1,7,-1
 309 817 l 1,8,-1
 222 0 l 1,9,-1
 110 0 l 1,0,-1
EndSplineSet
EndChar

StartChar: G
Encoding: 71 71 42
Width: 1045
GlyphClass: 2
Flags: W
LayerCount: 2
Fore
SplineSet
472 -23 m 0,0,1
 357 -23 357 -23 280.5 14.5 c 128,-1,2
 204 52 204 52 169 119.5 c 128,-1,3
 134 187 134 187 122.5 279.5 c 128,-1,4
 111 372 111 372 126 481 c 1,5,-1
 200 1185 l 2,6,7
 212 1301 212 1301 240 1386 c 128,-1,8
 268 1471 268 1471 319.5 1539 c 128,-1,9
 371 1607 371 1607 455 1642 c 128,-1,10
 539 1677 539 1677 656 1677 c 0,11,12
 862 1677 862 1677 937.5 1556 c 128,-1,13
 1013 1435 1013 1435 988 1204 c 1,14,-1
 982 1146 l 1,15,-1
 877 1146 l 1,16,-1
 884 1211 l 2,17,18
 904 1403 904 1403 853 1494.5 c 128,-1,19
 802 1586 802 1586 648 1586 c 0,20,21
 576 1586 576 1586 521.5 1566.5 c 128,-1,22
 467 1547 467 1547 431.5 1514 c 128,-1,23
 396 1481 396 1481 371 1429 c 128,-1,24
 346 1377 346 1377 333.5 1320.5 c 128,-1,25
 321 1264 321 1264 313 1189 c 2,26,-1
 237 467 l 1,27,28
 225 376 225 376 232 303 c 128,-1,29
 239 230 239 230 264.5 178 c 128,-1,30
 290 126 290 126 346 98 c 128,-1,31
 402 70 402 70 489 70 c 0,32,33
 645 70 645 70 716.5 167.5 c 128,-1,34
 788 265 788 265 809 460 c 1,35,-1
 834 704 l 1,36,-1
 571 704 l 1,37,-1
 580 790 l 1,38,-1
 949 790 l 1,39,-1
 866 0 l 1,40,-1
 793 0 l 1,41,-1
 796 186 l 1,42,43
 709 -23 709 -23 472 -23 c 0,0,1
EndSplineSet
EndChar

StartChar: H
Encoding: 72 72 43
Width: 1109
GlyphClass: 2
Flags: W
LayerCount: 2
Fore
SplineSet
109 0 m 1,0,-1
 283 1658 l 1,1,-1
 396 1658 l 1,2,-1
 317 911 l 1,3,-1
 898 911 l 1,4,-1
 976 1658 l 1,5,-1
 1088 1658 l 1,6,-1
 914 0 l 1,7,-1
 802 0 l 1,8,-1
 889 826 l 1,9,-1
 309 826 l 1,10,-1
 222 0 l 1,11,-1
 109 0 l 1,0,-1
EndSplineSet
EndChar

StartChar: I
Encoding: 73 73 44
Width: 422
GlyphClass: 2
Flags: W
AnchorPoint: "Anchor-0" 220 0 basechar 0
LayerCount: 2
Fore
SplineSet
113 0 m 1,0,-1
 287 1658 l 1,1,-1
 398 1658 l 1,2,-1
 224 0 l 1,3,-1
 113 0 l 1,0,-1
EndSplineSet
EndChar

StartChar: J
Encoding: 74 74 45
Width: 543
GlyphClass: 2
Flags: W
AnchorPoint: "Anchor-2" 338 1800 basechar 0
LayerCount: 2
Fore
SplineSet
-36 -92 m 1,0,-1
 -27 -5 l 1,1,2
 37 -5 37 -5 78 -1 c 128,-1,3
 119 3 119 3 151.5 18 c 128,-1,4
 184 33 184 33 201.5 51.5 c 128,-1,5
 219 70 219 70 233 110 c 128,-1,6
 247 150 247 150 253 192 c 128,-1,7
 259 234 259 234 267 308 c 2,8,-1
 409 1658 l 1,9,-1
 521 1658 l 1,10,-1
 379 294 l 2,11,12
 369 207 369 207 357 151 c 128,-1,13
 345 95 345 95 321 44.5 c 128,-1,14
 297 -6 297 -6 259.5 -33.5 c 128,-1,15
 222 -61 222 -61 163.5 -76.5 c 128,-1,16
 105 -92 105 -92 22 -92 c 2,17,-1
 -36 -92 l 1,0,-1
EndSplineSet
EndChar

StartChar: K
Encoding: 75 75 46
Width: 942
GlyphClass: 2
Flags: W
LayerCount: 2
Fore
SplineSet
109 0 m 1,0,-1
 283 1658 l 1,1,-1
 396 1658 l 1,2,-1
 298 728 l 1,3,-1
 877 1658 l 1,4,-1
 987 1658 l 1,5,-1
 563 957 l 1,6,-1
 898 0 l 1,7,-1
 786 0 l 1,8,-1
 476 889 l 1,9,-1
 284 594 l 1,10,-1
 222 0 l 1,11,-1
 109 0 l 1,0,-1
EndSplineSet
EndChar

StartChar: L
Encoding: 76 76 47
Width: 764
GlyphClass: 2
Flags: W
LayerCount: 2
Fore
SplineSet
110 0 m 1,0,-1
 284 1658 l 1,1,-1
 396 1658 l 1,2,-1
 232 88 l 1,3,-1
 732 88 l 1,4,-1
 723 0 l 1,5,-1
 110 0 l 1,0,-1
EndSplineSet
EndChar

StartChar: M
Encoding: 77 77 48
Width: 1294
GlyphClass: 2
Flags: W
LayerCount: 2
Fore
SplineSet
90 0 m 1,0,-1
 314 1658 l 1,1,-1
 423 1658 l 1,2,-1
 619 162 l 1,3,-1
 1130 1658 l 1,4,-1
 1246 1658 l 1,5,-1
 1119 0 l 1,6,-1
 1022 0 l 1,7,-1
 1128 1391 l 1,8,-1
 644 0 l 1,9,-1
 562 0 l 1,10,-1
 374 1388 l 1,11,-1
 187 0 l 1,12,-1
 90 0 l 1,0,-1
EndSplineSet
EndChar

StartChar: N
Encoding: 78 78 49
Width: 1055
GlyphClass: 2
Flags: W
LayerCount: 2
Fore
SplineSet
110 0 m 1,0,-1
 284 1658 l 1,1,-1
 374 1658 l 1,2,-1
 788 258 l 1,3,-1
 936 1658 l 1,4,-1
 1034 1658 l 1,5,-1
 860 0 l 1,6,-1
 772 0 l 1,7,-1
 357 1403 l 1,8,-1
 209 0 l 1,9,-1
 110 0 l 1,0,-1
EndSplineSet
EndChar

StartChar: O
Encoding: 79 79 50
Width: 1056
GlyphClass: 2
Flags: W
AnchorPoint: "Anchor-0" 581 0 basechar 0
LayerCount: 2
Fore
SplineSet
483 -22 m 0,0,1
 388 -22 388 -22 318.5 2 c 128,-1,2
 249 26 249 26 208.5 70 c 128,-1,3
 168 114 168 114 145 175.5 c 128,-1,4
 122 237 122 237 120 311.5 c 128,-1,5
 118 386 118 386 125 472 c 1,6,-1
 202 1196 l 2,7,8
 213 1307 213 1307 242 1391 c 128,-1,9
 271 1475 271 1475 324 1541.5 c 128,-1,10
 377 1608 377 1608 461.5 1642.5 c 128,-1,11
 546 1677 546 1677 661 1677 c 128,-1,12
 776 1677 776 1677 854 1641.5 c 128,-1,13
 932 1606 932 1606 969.5 1542 c 128,-1,14
 1007 1478 1007 1478 1021 1389.5 c 128,-1,15
 1035 1301 1035 1301 1021 1196 c 1,16,-1
 944 469 l 2,17,18
 932 357 932 357 904 272 c 128,-1,19
 876 187 876 187 824 118.5 c 128,-1,20
 772 50 772 50 686 14 c 128,-1,21
 600 -22 600 -22 483 -22 c 0,0,1
492 70 m 128,-1,23
 579 70 579 70 641.5 96.5 c 128,-1,24
 704 123 704 123 741.5 175 c 128,-1,25
 779 227 779 227 799.5 292.5 c 128,-1,26
 820 358 820 358 829 447 c 2,27,-1
 909 1212 l 1,28,29
 920 1296 920 1296 912.5 1365 c 128,-1,30
 905 1434 905 1434 879 1483 c 128,-1,31
 853 1532 853 1532 796 1559 c 128,-1,32
 739 1586 739 1586 652 1586 c 128,-1,33
 565 1586 565 1586 503 1560 c 128,-1,34
 441 1534 441 1534 403.5 1482.5 c 128,-1,35
 366 1431 366 1431 346 1366.5 c 128,-1,36
 326 1302 326 1302 316 1212 c 2,37,-1
 236 447 l 1,38,39
 225 363 225 363 232.5 293.5 c 128,-1,40
 240 224 240 224 265.5 174.5 c 128,-1,41
 291 125 291 125 348 97.5 c 128,-1,22
 405 70 405 70 492 70 c 128,-1,23
EndSplineSet
EndChar

StartChar: P
Encoding: 80 80 51
Width: 994
GlyphClass: 2
Flags: W
LayerCount: 2
Fore
SplineSet
315 879 m 1,0,-1
 570 879 l 2,1,2
 723 879 723 879 802 959.5 c 128,-1,3
 881 1040 881 1040 901 1230 c 0,4,5
 922 1427 922 1427 865 1499.5 c 128,-1,6
 808 1572 808 1572 645 1572 c 2,7,-1
 388 1572 l 1,8,-1
 315 879 l 1,0,-1
110 0 m 1,9,-1
 284 1658 l 1,10,-1
 674 1658 l 2,11,12
 783 1658 783 1658 856.5 1626.5 c 128,-1,13
 930 1595 930 1595 966.5 1535.5 c 128,-1,14
 1003 1476 1003 1476 1014 1401.5 c 128,-1,15
 1025 1327 1025 1327 1015 1230 c 0,16,17
 1006 1142 1006 1142 979 1068 c 128,-1,18
 952 994 952 994 903 929.5 c 128,-1,19
 854 865 854 865 773 828.5 c 128,-1,20
 692 792 692 792 585 792 c 2,21,-1
 306 792 l 1,22,-1
 222 0 l 1,23,-1
 110 0 l 1,9,-1
EndSplineSet
EndChar

StartChar: Q
Encoding: 81 81 52
Width: 1072
GlyphClass: 2
Flags: W
LayerCount: 2
Fore
SplineSet
500 70 m 128,-1,1
 587 70 587 70 650.5 96.5 c 128,-1,2
 714 123 714 123 753 175 c 128,-1,3
 792 227 792 227 813.5 292.5 c 128,-1,4
 835 358 835 358 844 447 c 2,5,-1
 924 1212 l 1,6,7
 935 1296 935 1296 926.5 1365 c 128,-1,8
 918 1434 918 1434 890.5 1483 c 128,-1,9
 863 1532 863 1532 805 1559 c 128,-1,10
 747 1586 747 1586 660 1586 c 0,11,12
 491 1586 491 1586 413 1490.5 c 128,-1,13
 335 1395 335 1395 316 1212 c 2,14,-1
 236 447 l 1,15,16
 225 363 225 363 233.5 293.5 c 128,-1,17
 242 224 242 224 269 174.5 c 128,-1,18
 296 125 296 125 354.5 97.5 c 128,-1,0
 413 70 413 70 500 70 c 128,-1,1
798 -318 m 1,19,20
 746 -275 746 -275 673.5 -188.5 c 128,-1,21
 601 -102 601 -102 550 -20 c 1,22,23
 512 -22 512 -22 490 -22 c 0,24,25
 395 -22 395 -22 325 2 c 128,-1,26
 255 26 255 26 213.5 70 c 128,-1,27
 172 114 172 114 148 175.5 c 128,-1,28
 124 237 124 237 121 311.5 c 128,-1,29
 118 386 118 386 125 472 c 1,30,-1
 202 1196 l 2,31,32
 213 1306 213 1306 243.5 1391 c 128,-1,33
 274 1476 274 1476 328 1541.5 c 128,-1,34
 382 1607 382 1607 468 1642 c 128,-1,35
 554 1677 554 1677 669 1677 c 128,-1,36
 784 1677 784 1677 862.5 1642 c 128,-1,37
 941 1607 941 1607 981.5 1541 c 128,-1,38
 1022 1475 1022 1475 1034.5 1390.5 c 128,-1,39
 1047 1306 1047 1306 1036 1196 c 2,40,-1
 959 469 l 2,41,42
 946 345 946 345 913 254 c 128,-1,43
 880 163 880 163 811 93 c 128,-1,44
 742 23 742 23 639 -3 c 1,45,46
 671 -53 671 -53 745 -136.5 c 128,-1,47
 819 -220 819 -220 862 -258 c 1,48,-1
 798 -318 l 1,19,20
EndSplineSet
EndChar

StartChar: R
Encoding: 82 82 53
Width: 1041
GlyphClass: 2
Flags: W
LayerCount: 2
Fore
SplineSet
319 921 m 1,0,-1
 604 921 l 2,1,2
 682 921 682 921 736.5 943 c 128,-1,3
 791 965 791 965 824 1010 c 128,-1,4
 857 1055 857 1055 874 1111.5 c 128,-1,5
 891 1168 891 1168 900 1250 c 0,6,7
 917 1417 917 1417 868.5 1493.5 c 128,-1,8
 820 1570 820 1570 671 1570 c 2,9,-1
 387 1570 l 1,10,-1
 319 921 l 1,0,-1
110 0 m 1,11,-1
 284 1658 l 1,12,-1
 687 1658 l 2,13,14
 773 1658 773 1658 835.5 1637.5 c 128,-1,15
 898 1617 898 1617 934 1580 c 128,-1,16
 970 1543 970 1543 990.5 1492 c 128,-1,17
 1011 1441 1011 1441 1013 1380 c 128,-1,18
 1015 1319 1015 1319 1009 1250 c 0,19,20
 1003 1190 1003 1190 991.5 1140 c 128,-1,21
 980 1090 980 1090 958 1040.5 c 128,-1,22
 936 991 936 991 905.5 955 c 128,-1,23
 875 919 875 919 828.5 892.5 c 128,-1,24
 782 866 782 866 722 857 c 1,25,-1
 900 0 l 1,26,-1
 789 0 l 1,27,-1
 618 836 l 1,28,-1
 310 836 l 1,29,-1
 222 0 l 1,30,-1
 110 0 l 1,11,-1
EndSplineSet
EndChar

StartChar: S
Encoding: 83 83 54
Width: 926
GlyphClass: 2
Flags: W
AnchorPoint: "Anchor-1" 470 0 basechar 0
LayerCount: 2
Fore
SplineSet
441 -21 m 0,0,1
 75 -21 75 -21 85 409 c 1,2,-1
 187 440 l 1,3,4
 189 369 189 369 196 317 c 128,-1,5
 203 265 203 265 220.5 216.5 c 128,-1,6
 238 168 238 168 267 137.5 c 128,-1,7
 296 107 296 107 342.5 89 c 128,-1,8
 389 71 389 71 452 71 c 0,9,10
 718 71 718 71 746 338 c 0,11,12
 756 439 756 439 713.5 523 c 128,-1,13
 671 607 671 607 570 720 c 2,14,-1
 298 1022 l 2,15,16
 169 1166 169 1166 186 1337 c 1,17,18
 204 1499 204 1499 311.5 1587.5 c 128,-1,19
 419 1676 419 1676 585 1677 c 0,20,21
 765 1678 765 1678 851 1582.5 c 128,-1,22
 937 1487 937 1487 928 1261 c 1,23,-1
 831 1239 l 1,24,25
 835 1421 835 1421 779 1505.5 c 128,-1,26
 723 1590 723 1590 580 1587 c 0,27,28
 458 1585 458 1585 380 1525.5 c 128,-1,29
 302 1466 302 1466 289 1345 c 0,30,31
 275 1217 275 1217 384 1094 c 1,32,-1
 653 799 l 2,33,34
 756 685 756 685 809.5 575.5 c 128,-1,35
 863 466 863 466 851 344 c 0,36,37
 832 164 832 164 721.5 71.5 c 128,-1,38
 611 -21 611 -21 441 -21 c 0,0,1
EndSplineSet
EndChar

StartChar: T
Encoding: 84 84 55
Width: 779
GlyphClass: 2
Flags: W
AnchorPoint: "Anchor-1" 380 0 basechar 0
LayerCount: 2
Fore
SplineSet
294 0 m 1,0,-1
 459 1569 l 1,1,-1
 108 1569 l 1,2,-1
 118 1658 l 1,3,-1
 925 1658 l 1,4,-1
 915 1569 l 1,5,-1
 571 1569 l 1,6,-1
 407 0 l 1,7,-1
 294 0 l 1,0,-1
EndSplineSet
EndChar

StartChar: U
Encoding: 85 85 56
Width: 1092
GlyphClass: 2
Flags: W
AnchorPoint: "Anchor-0" 581 0 basechar 0
LayerCount: 2
Fore
SplineSet
501 -22 m 0,0,1
 406 -22 406 -22 336 -1.5 c 128,-1,2
 266 19 266 19 224.5 55.5 c 128,-1,3
 183 92 183 92 158.5 143 c 128,-1,4
 134 194 134 194 130.5 256 c 128,-1,5
 127 318 127 318 133 389 c 1,6,-1
 266 1658 l 1,7,-1
 375 1658 l 1,8,-1
 241 387 l 2,9,10
 236 332 236 332 238.5 284 c 128,-1,11
 241 236 241 236 259 196.5 c 128,-1,12
 277 157 277 157 307.5 129 c 128,-1,13
 338 101 338 101 389.5 85.5 c 128,-1,14
 441 70 441 70 511 70 c 0,15,16
 814 70 814 70 847 387 c 2,17,-1
 981 1658 l 1,18,-1
 1090 1658 l 1,19,-1
 957 389 l 2,20,21
 913 -22 913 -22 501 -22 c 0,0,1
EndSplineSet
EndChar

StartChar: V
Encoding: 86 86 57
Width: 984
GlyphClass: 2
Flags: W
LayerCount: 2
Fore
SplineSet
407 0 m 1,0,-1
 182 1658 l 1,1,-1
 291 1658 l 1,2,-1
 480 195 l 1,3,-1
 957 1658 l 1,4,-1
 1065 1658 l 1,5,-1
 513 0 l 1,6,-1
 407 0 l 1,0,-1
EndSplineSet
EndChar

StartChar: W
Encoding: 87 87 58
Width: 1446
GlyphClass: 2
Flags: W
LayerCount: 2
Fore
SplineSet
316 0 m 1,0,-1
 200 1657 l 1,1,-1
 299 1658 l 1,2,-1
 391 220 l 1,3,-1
 805 1621 l 1,4,-1
 913 1621 l 1,5,-1
 1038 219 l 1,6,-1
 1411 1658 l 1,7,-1
 1509 1658 l 1,8,-1
 1065 0 l 1,9,-1
 971 0 l 1,10,-1
 842 1453 l 1,11,-1
 412 0 l 1,12,-1
 316 0 l 1,0,-1
EndSplineSet
EndChar

StartChar: X
Encoding: 88 88 59
Width: 926
GlyphClass: 2
Flags: W
LayerCount: 2
Fore
SplineSet
-12 0 m 1,0,-1
 444 862 l 1,1,-1
 164 1659 l 1,2,-1
 267 1659 l 1,3,-1
 518 951 l 1,4,-1
 909 1659 l 1,5,-1
 1021 1659 l 1,6,-1
 556 843 l 1,7,-1
 853 0 l 1,8,-1
 746 0 l 1,9,-1
 483 746 l 1,10,-1
 99 0 l 1,11,-1
 -12 0 l 1,0,-1
EndSplineSet
EndChar

StartChar: Y
Encoding: 89 89 60
AltUni2: 0004ae.ffffffff.0
Width: 946
GlyphClass: 2
Flags: W
LayerCount: 2
Fore
SplineSet
381 0 m 1,0,-1
 436 530 l 1,1,-1
 173 1658 l 1,2,-1
 287 1658 l 1,3,-1
 508 663 l 1,4,-1
 922 1658 l 1,5,-1
 1036 1658 l 1,6,-1
 548 530 l 1,7,-1
 492 0 l 1,8,-1
 381 0 l 1,0,-1
EndSplineSet
EndChar

StartChar: Z
Encoding: 90 90 61
Width: 822
GlyphClass: 2
Flags: W
LayerCount: 2
Fore
SplineSet
21 0 m 1,0,-1
 31 88 l 1,1,-1
 783 1570 l 1,2,-1
 239 1570 l 1,3,-1
 249 1658 l 1,4,-1
 912 1658 l 1,5,-1
 905 1589 l 1,6,-1
 144 88 l 1,7,-1
 749 88 l 1,8,-1
 740 0 l 1,9,-1
 21 0 l 1,0,-1
EndSplineSet
EndChar

StartChar: bracketleft
Encoding: 91 91 62
Width: 571
GlyphClass: 2
Flags: W
LayerCount: 2
Fore
SplineSet
78 -297 m 1,0,-1
 283 1658 l 1,1,-1
 585 1658 l 1,2,-1
 578 1592 l 1,3,-1
 387 1592 l 1,4,-1
 195 -229 l 1,5,-1
 387 -229 l 1,6,-1
 380 -297 l 1,7,-1
 78 -297 l 1,0,-1
EndSplineSet
EndChar

StartChar: backslash
Encoding: 92 92 63
Width: 674
GlyphClass: 2
Flags: W
LayerCount: 2
Fore
SplineSet
488 0 m 1,0,-1
 175 1658 l 1,1,-1
 273 1658 l 1,2,-1
 586 0 l 1,3,-1
 488 0 l 1,0,-1
EndSplineSet
EndChar

StartChar: bracketright
Encoding: 93 93 64
Width: 553
GlyphClass: 2
Flags: W
LayerCount: 2
Fore
SplineSet
26 -295 m 1,0,-1
 33 -229 l 1,1,-1
 225 -229 l 1,2,-1
 415 1591 l 1,3,-1
 224 1591 l 1,4,-1
 231 1658 l 1,5,-1
 533 1658 l 1,6,-1
 327 -295 l 1,7,-1
 26 -295 l 1,0,-1
EndSplineSet
EndChar

StartChar: asciicircum
Encoding: 94 94 65
Width: 748
GlyphClass: 2
Flags: W
LayerCount: 2
Fore
SplineSet
123 1076 m 1,0,-1
 446 1658 l 1,1,-1
 565 1658 l 1,2,-1
 766 1076 l 1,3,-1
 673 1076 l 1,4,-1
 499 1589 l 1,5,-1
 215 1076 l 1,6,-1
 123 1076 l 1,0,-1
EndSplineSet
EndChar

StartChar: underscore
Encoding: 95 95 66
Width: 666
GlyphClass: 2
Flags: W
LayerCount: 2
Fore
SplineSet
-62 -184 m 1,0,-1
 -52 -95 l 1,1,-1
 613 -95 l 1,2,-1
 604 -184 l 1,3,-1
 -62 -184 l 1,0,-1
EndSplineSet
EndChar

StartChar: grave
Encoding: 96 96 67
Width: 429
GlyphClass: 2
Flags: W
LayerCount: 2
Fore
SplineSet
358 1261 m 1,0,-1
 235 1658 l 1,1,-1
 344 1658 l 1,2,-1
 415 1261 l 1,3,-1
 358 1261 l 1,0,-1
EndSplineSet
EndChar

StartChar: a
Encoding: 97 97 68
Width: 777
GlyphClass: 2
Flags: W
AnchorPoint: "Anchor-0" 714 0 basechar 0
LayerCount: 2
Fore
SplineSet
307 71 m 0,0,1
 378 71 378 71 439 118 c 128,-1,2
 500 165 500 165 543 237 c 1,3,-1
 584 627 l 1,4,5
 370 521 370 521 313 485 c 1,6,7
 223 426 223 426 194 356 c 0,8,9
 176 315 176 315 170 255 c 0,10,11
 160 159 160 159 201 115 c 128,-1,12
 242 71 242 71 307 71 c 0,0,1
271 -19 m 0,13,14
 164 -19 164 -19 106.5 53 c 128,-1,15
 49 125 49 125 60 240 c 1,16,17
 69 319 69 319 92 371.5 c 128,-1,18
 115 424 115 424 177 478 c 128,-1,19
 239 532 239 532 332.5 582 c 128,-1,20
 426 632 426 632 593 706 c 1,21,-1
 602 791 l 1,22,23
 618 918 618 918 607 991 c 128,-1,24
 596 1064 596 1064 565 1092 c 128,-1,25
 534 1120 534 1120 472 1120 c 0,26,27
 433 1120 433 1120 401.5 1111 c 128,-1,28
 370 1102 370 1102 339 1079.5 c 128,-1,29
 308 1057 308 1057 287.5 1010.5 c 128,-1,30
 267 964 267 964 260 897 c 1,31,-1
 256 864 l 1,32,-1
 151 866 l 1,33,34
 151 868 151 868 152.5 882 c 128,-1,35
 154 896 154 896 154 898 c 0,36,37
 176 1060 176 1060 258 1131.5 c 128,-1,38
 340 1203 340 1203 485 1203 c 0,39,40
 633 1203 633 1203 683.5 1110 c 128,-1,41
 734 1017 734 1017 711 802 c 2,42,-1
 648 206 l 1,43,44
 632 31 632 31 633 0 c 1,45,-1
 540 0 l 1,46,47
 539 134 539 134 539 157 c 1,48,49
 501 80 501 80 429 30.5 c 128,-1,50
 357 -19 357 -19 271 -19 c 0,13,14
EndSplineSet
EndChar

StartChar: b
Encoding: 98 98 69
Width: 814
GlyphClass: 2
Flags: W
LayerCount: 2
Fore
SplineSet
394 66 m 0,0,1
 500 66 500 66 548 161.5 c 128,-1,2
 596 257 596 257 620 484 c 1,3,-1
 643 715 l 1,4,5
 659 855 659 855 654.5 944.5 c 128,-1,6
 650 1034 650 1034 615 1076 c 128,-1,7
 580 1118 580 1118 505 1118 c 0,8,9
 401 1118 401 1118 289 1008 c 1,10,-1
 201 173 l 1,11,12
 278 66 278 66 394 66 c 0,0,1
398 -19 m 0,13,14
 273 -19 273 -19 194 98 c 1,15,-1
 183 0 l 1,16,-1
 74 0 l 1,17,-1
 248 1658 l 1,18,-1
 357 1658 l 1,19,-1
 297 1084 l 1,20,21
 401 1203 401 1203 537 1203 c 0,22,23
 642 1203 642 1203 696.5 1142 c 128,-1,24
 751 1081 751 1081 758.5 972.5 c 128,-1,25
 766 864 766 864 752 714 c 1,26,-1
 728 487 l 2,27,28
 701 227 701 227 626.5 104 c 128,-1,29
 552 -19 552 -19 398 -19 c 0,13,14
EndSplineSet
EndChar

StartChar: c
Encoding: 99 99 70
Width: 768
GlyphClass: 2
Flags: W
AnchorPoint: "Anchor-1" 380 0 basechar 0
LayerCount: 2
Fore
SplineSet
349 -19 m 0,0,1
 293 -19 293 -19 250 -6.5 c 128,-1,2
 207 6 207 6 178 27.5 c 128,-1,3
 149 49 149 49 130 83 c 128,-1,4
 111 117 111 117 101.5 153.5 c 128,-1,5
 92 190 92 190 89.5 240.5 c 128,-1,6
 87 291 87 291 89.5 337.5 c 128,-1,7
 92 384 92 384 98 445 c 2,8,-1
 128 723 l 1,9,10
 155 989 155 989 230.5 1096 c 128,-1,11
 306 1203 306 1203 477 1203 c 0,12,13
 566 1203 566 1203 622.5 1173.5 c 128,-1,14
 679 1144 679 1144 702 1092.5 c 128,-1,15
 725 1041 725 1041 731 971 c 128,-1,16
 737 901 737 901 726 820 c 1,17,-1
 721 772 l 1,18,-1
 618 772 l 1,19,-1
 623 819 l 1,20,21
 638 936 638 936 623 1003.5 c 128,-1,22
 608 1071 608 1071 572.5 1096 c 128,-1,23
 537 1121 537 1121 469 1121 c 0,24,25
 420 1121 420 1121 385.5 1107 c 128,-1,26
 351 1093 351 1093 326.5 1066.5 c 128,-1,27
 302 1040 302 1040 285 991.5 c 128,-1,28
 268 943 268 943 257.5 884 c 128,-1,29
 247 825 247 825 238 736 c 2,30,-1
 205 429 l 2,31,32
 184 227 184 227 215 145 c 128,-1,33
 246 63 246 63 359 63 c 0,34,35
 473 63 473 63 516 136 c 128,-1,36
 559 209 559 209 579 397 c 1,37,-1
 583 443 l 1,38,-1
 686 443 l 1,39,-1
 682 399 l 2,40,41
 674 319 674 319 663 263.5 c 128,-1,42
 652 208 652 208 628.5 150.5 c 128,-1,43
 605 93 605 93 571 59 c 128,-1,44
 537 25 537 25 481 3 c 128,-1,45
 425 -19 425 -19 349 -19 c 0,0,1
EndSplineSet
EndChar

StartChar: d
Encoding: 100 100 71
Width: 808
GlyphClass: 2
Flags: W
LayerCount: 2
Fore
SplineSet
353 66 m 0,0,1
 457 66 457 66 557 166 c 1,2,-1
 646 1014 l 1,3,4
 560 1118 560 1118 458 1118 c 0,5,6
 350 1118 350 1118 304.5 1030 c 128,-1,7
 259 942 259 942 236 723 c 2,8,-1
 210 477 l 2,9,10
 187 252 187 252 215.5 159 c 128,-1,11
 244 66 244 66 353 66 c 0,0,1
328 -19 m 0,12,13
 176 -19 176 -19 125 97.5 c 128,-1,14
 74 214 74 214 103 486 c 1,15,-1
 124 697 l 1,16,17
 152 961 152 961 223.5 1082 c 128,-1,18
 295 1203 295 1203 451 1203 c 1,19,20
 576 1202 576 1202 654 1093 c 1,21,-1
 714 1658 l 1,22,-1
 822 1658 l 1,23,-1
 648 0 l 1,24,-1
 540 0 l 1,25,-1
 549 90 l 1,26,27
 446 -19 446 -19 328 -19 c 0,12,13
EndSplineSet
EndChar

StartChar: e
Encoding: 101 101 72
Width: 777
GlyphClass: 2
Flags: W
AnchorPoint: "Anchor-0" 518 0 basechar 0
LayerCount: 2
Fore
SplineSet
232 684 m 1,0,-1
 611 684 l 1,1,-1
 620 776 l 2,2,3
 630 883 630 883 628.5 959.5 c 128,-1,4
 627 1036 627 1036 589.5 1078.5 c 128,-1,5
 552 1121 552 1121 473 1121 c 0,6,7
 402 1121 402 1121 359 1093.5 c 128,-1,8
 316 1066 316 1066 286 989.5 c 128,-1,9
 256 913 256 913 241 774 c 1,10,-1
 232 684 l 1,0,-1
351 -19 m 0,11,12
 302 -19 302 -19 264.5 -10.5 c 128,-1,13
 227 -2 227 -2 193.5 18 c 128,-1,14
 160 38 160 38 139.5 72 c 128,-1,15
 119 106 119 106 104.5 157 c 128,-1,16
 90 208 90 208 90 277.5 c 128,-1,17
 90 347 90 347 97 438 c 1,18,-1
 130 754 l 2,19,20
 142 863 142 863 164.5 943 c 128,-1,21
 187 1023 187 1023 217 1072.5 c 128,-1,22
 247 1122 247 1122 289.5 1151.5 c 128,-1,23
 332 1181 332 1181 377 1192 c 128,-1,24
 422 1203 422 1203 482 1203 c 0,25,26
 645 1203 645 1203 697.5 1096.5 c 128,-1,27
 750 990 750 990 723 732 c 1,28,-1
 709 619 l 1,29,-1
 225 619 l 1,30,-1
 205 430 l 1,31,32
 188 290 188 290 202 208.5 c 128,-1,33
 216 127 216 127 252.5 95 c 128,-1,34
 289 63 289 63 359 63 c 0,35,36
 389 63 389 63 412 67 c 128,-1,37
 435 71 435 71 463.5 85.5 c 128,-1,38
 492 100 492 100 512 125.5 c 128,-1,39
 532 151 532 151 548.5 198.5 c 128,-1,40
 565 246 565 246 572 312 c 2,41,-1
 581 400 l 1,42,-1
 688 400 l 1,43,-1
 679 322 l 1,44,45
 662 158 662 158 586 69.5 c 128,-1,46
 510 -19 510 -19 351 -19 c 0,11,12
EndSplineSet
EndChar

StartChar: f
Encoding: 102 102 73
Width: 525
GlyphClass: 2
Flags: W
LayerCount: 2
Fore
SplineSet
152 0 m 1,0,-1
 268 1107 l 1,1,-1
 108 1107 l 1,2,-1
 116 1184 l 1,3,-1
 276 1184 l 1,4,-1
 293 1344 l 2,5,6
 299 1397 299 1397 305 1430.5 c 128,-1,7
 311 1464 311 1464 326 1502 c 128,-1,8
 341 1540 341 1540 363 1561.5 c 128,-1,9
 385 1583 385 1583 423.5 1597.5 c 128,-1,10
 462 1612 462 1612 514 1612 c 0,11,12
 571 1612 571 1612 621 1598 c 1,13,-1
 612 1515 l 1,14,15
 550 1527 550 1527 527 1527 c 0,16,17
 461 1527 461 1527 436.5 1488 c 128,-1,18
 412 1449 412 1449 402 1346 c 1,19,-1
 384 1184 l 1,20,-1
 582 1184 l 1,21,-1
 575 1107 l 1,22,-1
 377 1107 l 1,23,-1
 260 0 l 1,24,-1
 152 0 l 1,0,-1
EndSplineSet
EndChar

StartChar: g
Encoding: 103 103 74
Width: 878
GlyphClass: 2
Flags: W
LayerCount: 2
Fore
SplineSet
428 456 m 0,0,1
 655 456 655 456 691 795 c 1,2,3
 693 833 693 833 694 876.5 c 128,-1,4
 695 920 695 920 682.5 964 c 128,-1,5
 670 1008 670 1008 650.5 1043.5 c 128,-1,6
 631 1079 631 1079 591 1101 c 128,-1,7
 551 1123 551 1123 497 1123 c 128,-1,8
 443 1123 443 1123 398 1099 c 128,-1,9
 353 1075 353 1075 325 1039.5 c 128,-1,10
 297 1004 297 1004 276 957.5 c 128,-1,11
 255 911 255 911 245.5 871.5 c 128,-1,12
 236 832 236 832 232 795 c 0,13,14
 228 759 228 759 228 725.5 c 128,-1,15
 228 692 228 692 232 651 c 128,-1,16
 236 610 236 610 249.5 577 c 128,-1,17
 263 544 263 544 284.5 516 c 128,-1,18
 306 488 306 488 342.5 472 c 128,-1,19
 379 456 379 456 428 456 c 0,0,1
338 -313 m 0,20,21
 467 -313 467 -313 551.5 -270.5 c 128,-1,22
 636 -228 636 -228 645 -142 c 0,23,24
 650 -95 650 -95 634.5 -64.5 c 128,-1,25
 619 -34 619 -34 564 -7 c 128,-1,26
 509 20 509 20 405 43 c 1,27,-1
 277 65 l 1,28,29
 77 -43 77 -43 65 -166 c 1,30,31
 56 -242 56 -242 125.5 -277.5 c 128,-1,32
 195 -313 195 -313 338 -313 c 0,20,21
329 -401 m 0,33,34
 140 -401 140 -401 48.5 -349 c 128,-1,35
 -43 -297 -43 -297 -33 -192 c 0,36,37
 -25 -109 -25 -109 45.5 -35.5 c 128,-1,38
 116 38 116 38 208 83 c 1,39,40
 154 97 154 97 113 121 c 128,-1,41
 72 145 72 145 75 173 c 0,42,43
 84 261 84 261 248 428 c 1,44,45
 104 538 104 538 132 795 c 0,46,47
 140 871 140 871 166.5 941.5 c 128,-1,48
 193 1012 193 1012 237.5 1071.5 c 128,-1,49
 282 1131 282 1131 351 1167 c 128,-1,50
 420 1203 420 1203 504 1203 c 0,51,52
 681 1203 681 1203 749 1045 c 1,53,54
 775 1085 775 1085 823.5 1124 c 128,-1,55
 872 1163 872 1163 923 1183 c 2,56,-1
 953 1195 l 1,57,-1
 977 1113 l 1,58,59
 922 1100 922 1100 864.5 1066 c 128,-1,60
 807 1032 807 1032 773 993 c 1,61,62
 784 955 784 955 789 892.5 c 128,-1,63
 794 830 794 830 789 792 c 1,64,65
 770 604 770 604 678 490 c 128,-1,66
 586 376 586 376 420 376 c 0,67,68
 346 376 346 376 297 398 c 1,69,70
 288 386 288 386 262 353 c 128,-1,71
 236 320 236 320 220 298.5 c 128,-1,72
 204 277 204 277 188.5 250 c 128,-1,73
 173 223 173 223 171 206 c 0,74,75
 170 195 170 195 195 184.5 c 128,-1,76
 220 174 220 174 265 165 c 1,77,78
 295 157 295 157 366.5 143 c 128,-1,79
 438 129 438 129 455 124 c 1,80,81
 605 91 605 91 676 30.5 c 128,-1,82
 747 -30 747 -30 736 -139 c 0,83,84
 729 -206 729 -206 693 -258 c 128,-1,85
 657 -310 657 -310 600.5 -340.5 c 128,-1,86
 544 -371 544 -371 475.5 -386 c 128,-1,87
 407 -401 407 -401 329 -401 c 0,33,34
EndSplineSet
EndChar

StartChar: h
Encoding: 104 104 75
Width: 802
GlyphClass: 2
Flags: W
LayerCount: 2
Fore
SplineSet
75 0 m 1,0,-1
 249 1658 l 1,1,-1
 358 1658 l 1,2,-1
 295 1058 l 1,3,4
 435 1203 435 1203 592 1203 c 0,5,6
 677 1203 677 1203 720.5 1140.5 c 128,-1,7
 764 1078 764 1078 750 944 c 2,8,-1
 651 0 l 1,9,-1
 541 0 l 1,10,-1
 640 932 l 2,11,12
 650 1035 650 1035 623 1076.5 c 128,-1,13
 596 1118 596 1118 535 1118 c 0,14,15
 420 1118 420 1118 287 988 c 1,16,-1
 184 0 l 1,17,-1
 75 0 l 1,0,-1
EndSplineSet
EndChar

StartChar: i
Encoding: 105 105 76
Width: 388
GlyphClass: 2
Flags: W
AnchorPoint: "Anchor-0" 196 0 basechar 0
LayerCount: 2
Fore
SplineSet
239 1389 m 1,0,-1
 258 1578 l 1,1,-1
 368 1578 l 1,2,-1
 348 1389 l 1,3,-1
 239 1389 l 1,0,-1
92 0 m 1,4,-1
 216 1184 l 1,5,-1
 324 1184 l 1,6,-1
 200 0 l 1,7,-1
 92 0 l 1,4,-1
EndSplineSet
EndChar

StartChar: j
Encoding: 106 106 77
Width: 414
GlyphClass: 2
Flags: W
LayerCount: 2
Fore
SplineSet
266 1389 m 1,0,-1
 285 1578 l 1,1,-1
 395 1578 l 1,2,-1
 375 1389 l 1,3,-1
 266 1389 l 1,0,-1
-107 -313 m 1,4,-1
 -98 -226 l 1,5,6
 -90 -228 -90 -228 -51 -228 c 0,7,8
 0 -228 0 -228 33.5 -214 c 128,-1,9
 67 -200 67 -200 83.5 -171 c 128,-1,10
 100 -142 100 -142 106.5 -117 c 128,-1,11
 113 -92 113 -92 117 -51 c 2,12,-1
 247 1184 l 1,13,-1
 356 1184 l 1,14,-1
 225 -58 l 2,15,16
 211 -195 211 -195 142 -256 c 128,-1,17
 73 -317 73 -317 -47 -317 c 0,18,19
 -96 -317 -96 -317 -107 -313 c 1,4,-1
EndSplineSet
EndChar

StartChar: k
Encoding: 107 107 78
Width: 785
GlyphClass: 2
Flags: W
LayerCount: 2
Fore
SplineSet
74 1 m 1,0,-1
 249 1659 l 1,1,-1
 357 1659 l 1,2,-1
 243 566 l 1,3,-1
 747 1184 l 1,4,-1
 865 1184 l 1,5,-1
 506 731 l 1,6,-1
 723 0 l 1,7,-1
 613 0 l 1,8,-1
 418 666 l 1,9,-1
 230 444 l 1,10,-1
 183 1 l 1,11,-1
 74 1 l 1,0,-1
EndSplineSet
EndChar

StartChar: l
Encoding: 108 108 79
Width: 380
GlyphClass: 2
Flags: W
LayerCount: 2
Fore
SplineSet
95 0 m 1,0,-1
 269 1658 l 1,1,-1
 378 1658 l 1,2,-1
 204 0 l 1,3,-1
 95 0 l 1,0,-1
EndSplineSet
EndChar

StartChar: m
Encoding: 109 109 80
Width: 1268
GlyphClass: 2
Flags: W
LayerCount: 2
Fore
SplineSet
73 0 m 1,0,-1
 197 1184 l 1,1,-1
 306 1184 l 1,2,-1
 294 1058 l 1,3,4
 432 1203 432 1203 590 1203 c 0,5,6
 733 1203 733 1203 749 1046 c 1,7,8
 893 1203 893 1203 1057 1203 c 0,9,10
 1142 1203 1142 1203 1186 1140.5 c 128,-1,11
 1230 1078 1230 1078 1216 944 c 2,12,-1
 1116 0 l 1,13,-1
 1007 0 l 1,14,-1
 1105 932 l 2,15,16
 1115 1035 1115 1035 1088 1076.5 c 128,-1,17
 1061 1118 1061 1118 1000 1118 c 0,18,19
 885 1118 885 1118 750 985 c 1,20,21
 750 970 750 970 748 938 c 1,22,-1
 649 0 l 1,23,-1
 540 0 l 1,24,-1
 638 932 l 2,25,26
 648 1035 648 1035 621 1076.5 c 128,-1,27
 594 1118 594 1118 533 1118 c 0,28,29
 419 1118 419 1118 286 987 c 1,30,-1
 182 0 l 1,31,-1
 73 0 l 1,0,-1
EndSplineSet
EndChar

StartChar: n
Encoding: 110 110 81
Width: 801
GlyphClass: 2
Flags: W
LayerCount: 2
Fore
SplineSet
73 0 m 1,0,-1
 197 1184 l 1,1,-1
 306 1184 l 1,2,-1
 293 1057 l 1,3,4
 432 1203 432 1203 590 1203 c 0,5,6
 675 1203 675 1203 719 1140.5 c 128,-1,7
 763 1078 763 1078 749 944 c 2,8,-1
 650 0 l 1,9,-1
 540 0 l 1,10,-1
 638 932 l 2,11,12
 649 1035 649 1035 622 1076.5 c 128,-1,13
 595 1118 595 1118 534 1118 c 0,14,15
 419 1118 419 1118 286 987 c 1,16,-1
 182 0 l 1,17,-1
 73 0 l 1,0,-1
EndSplineSet
EndChar

StartChar: o
Encoding: 111 111 82
Width: 784
GlyphClass: 2
Flags: W
AnchorPoint: "Anchor-0" 421 0 basechar 0
LayerCount: 2
Fore
SplineSet
347 -19 m 0,0,1
 231 -19 231 -19 170 32 c 128,-1,2
 109 83 109 83 95 183 c 128,-1,3
 81 283 81 283 97 432 c 2,4,-1
 131 752 l 2,5,6
 143 868 143 868 165 947.5 c 128,-1,7
 187 1027 187 1027 226.5 1087 c 128,-1,8
 266 1147 266 1147 327.5 1175 c 128,-1,9
 389 1203 389 1203 476 1203 c 0,10,11
 592 1203 592 1203 653 1152 c 128,-1,12
 714 1101 714 1101 728 1000.5 c 128,-1,13
 742 900 742 900 727 752 c 2,14,-1
 693 432 l 2,15,16
 668 197 668 197 592.5 89 c 128,-1,17
 517 -19 517 -19 347 -19 c 0,0,1
356 63 m 0,18,19
 407 63 407 63 443.5 80 c 128,-1,20
 480 97 480 97 503.5 124.5 c 128,-1,21
 527 152 527 152 543 202 c 128,-1,22
 559 252 559 252 567.5 301.5 c 128,-1,23
 576 351 576 351 584 428 c 2,24,-1
 618 756 l 2,25,26
 629 870 629 870 627.5 951.5 c 128,-1,27
 626 1033 626 1033 588 1077 c 128,-1,28
 550 1121 550 1121 467 1121 c 0,29,30
 416 1121 416 1121 379.5 1104 c 128,-1,31
 343 1087 343 1087 319.5 1059 c 128,-1,32
 296 1031 296 1031 280 981.5 c 128,-1,33
 264 932 264 932 256 882 c 128,-1,34
 248 832 248 832 240 756 c 2,35,-1
 205 428 l 1,36,37
 194 313 194 313 195.5 232 c 128,-1,38
 197 151 197 151 235 107 c 128,-1,39
 273 63 273 63 356 63 c 0,18,19
EndSplineSet
EndChar

StartChar: p
Encoding: 112 112 83
Width: 819
GlyphClass: 2
Flags: W
LayerCount: 2
Fore
SplineSet
394 66 m 0,0,1
 501 66 501 66 548.5 161 c 128,-1,2
 596 256 596 256 620 484 c 2,3,-1
 644 715 l 1,4,5
 660 855 660 855 655.5 944.5 c 128,-1,6
 651 1034 651 1034 616 1076 c 128,-1,7
 581 1118 581 1118 506 1118 c 0,8,9
 400 1118 400 1118 290 1008 c 1,10,-1
 202 173 l 1,11,12
 279 66 279 66 394 66 c 0,0,1
34 -390 m 1,13,-1
 199 1184 l 1,14,-1
 308 1184 l 1,15,-1
 298 1083 l 1,16,17
 401 1203 401 1203 537 1203 c 0,18,19
 643 1203 643 1203 697.5 1142 c 128,-1,20
 752 1081 752 1081 759.5 972.5 c 128,-1,21
 767 864 767 864 753 714 c 1,22,-1
 729 487 l 2,23,24
 702 227 702 227 627 104 c 128,-1,25
 552 -19 552 -19 398 -19 c 0,26,27
 276 -19 276 -19 194 98 c 1,28,-1
 143 -390 l 1,29,-1
 34 -390 l 1,13,-1
EndSplineSet
EndChar

StartChar: q
Encoding: 113 113 84
Width: 812
GlyphClass: 2
Flags: W
LayerCount: 2
Fore
SplineSet
358 66 m 0,0,1
 464 66 464 66 563 167 c 1,2,-1
 652 1014 l 1,3,4
 562 1118 562 1118 463 1118 c 0,5,6
 355 1118 355 1118 309.5 1030 c 128,-1,7
 264 942 264 942 241 723 c 2,8,-1
 215 477 l 2,9,10
 192 252 192 252 220.5 159 c 128,-1,11
 249 66 249 66 358 66 c 0,0,1
504 -390 m 1,12,-1
 555 91 l 1,13,14
 451 -19 451 -19 333 -19 c 0,15,16
 181 -19 181 -19 130 97.5 c 128,-1,17
 79 214 79 214 108 486 c 1,18,-1
 129 697 l 1,19,20
 157 961 157 961 228.5 1082 c 128,-1,21
 300 1203 300 1203 456 1203 c 1,22,23
 578 1202 578 1202 660 1093 c 1,24,-1
 669 1184 l 1,25,-1
 778 1184 l 1,26,-1
 613 -390 l 1,27,-1
 504 -390 l 1,12,-1
EndSplineSet
EndChar

StartChar: r
Encoding: 114 114 85
Width: 580
GlyphClass: 2
Flags: W
LayerCount: 2
Fore
SplineSet
89 0 m 1,0,-1
 213 1184 l 1,1,-1
 322 1184 l 1,2,-1
 306 1024 l 1,3,4
 363 1107 363 1107 446 1151.5 c 128,-1,5
 529 1196 529 1196 603 1196 c 0,6,7
 604 1196 604 1196 612.5 1195.5 c 128,-1,8
 621 1195 621 1195 623 1195 c 1,9,-1
 611 1082 l 1,10,11
 595 1088 595 1088 568 1088 c 0,12,13
 401 1088 401 1088 296 935 c 1,14,-1
 198 0 l 1,15,-1
 89 0 l 1,0,-1
EndSplineSet
EndChar

StartChar: s
Encoding: 115 115 86
Width: 730
GlyphClass: 2
Flags: W
AnchorPoint: "Anchor-1" 370 0 basechar 0
LayerCount: 2
Fore
SplineSet
340 -19 m 0,0,1
 201 -19 201 -19 128.5 71 c 128,-1,2
 56 161 56 161 61 319 c 1,3,-1
 155 346 l 1,4,5
 151 200 151 200 201 131.5 c 128,-1,6
 251 63 251 63 353 63 c 0,7,8
 442 63 442 63 497 113.5 c 128,-1,9
 552 164 552 164 561 255 c 0,10,11
 574 389 574 389 418 533 c 2,12,-1
 292 649 l 2,13,14
 209 726 209 726 176 794.5 c 128,-1,15
 143 863 143 863 153 950 c 0,16,17
 167 1070 167 1070 246.5 1136.5 c 128,-1,18
 326 1203 326 1203 449 1203 c 0,19,20
 577 1203 577 1203 635.5 1121 c 128,-1,21
 694 1039 694 1039 684 892 c 1,22,-1
 601 868 l 1,23,24
 619 1121 619 1121 445 1121 c 0,25,26
 366 1121 366 1121 314 1079.5 c 128,-1,27
 262 1038 262 1038 254 962 c 0,28,29
 247 894 247 894 267.5 846 c 128,-1,30
 288 798 288 798 352 737 c 1,31,-1
 480 612 l 2,32,33
 526 568 526 568 552.5 539 c 128,-1,34
 579 510 579 510 609.5 464 c 128,-1,35
 640 418 640 418 651.5 366 c 128,-1,36
 663 314 663 314 658 253 c 1,37,38
 645 125 645 125 559 53 c 128,-1,39
 473 -19 473 -19 340 -19 c 0,0,1
EndSplineSet
EndChar

StartChar: t
Encoding: 116 116 87
Width: 538
GlyphClass: 2
Flags: W
AnchorPoint: "Anchor-1" 340 0 basechar 0
LayerCount: 2
Fore
SplineSet
332 -13 m 0,0,1
 272 -13 272 -13 235 6 c 128,-1,2
 198 25 198 25 183.5 58.5 c 128,-1,3
 169 92 169 92 165.5 137 c 128,-1,4
 162 182 162 182 169 234 c 1,5,-1
 262 1112 l 1,6,-1
 107 1112 l 1,7,-1
 115 1184 l 1,8,-1
 269 1184 l 1,9,-1
 310 1562 l 1,10,-1
 418 1562 l 1,11,-1
 378 1184 l 1,12,-1
 579 1184 l 1,13,-1
 572 1112 l 1,14,-1
 371 1112 l 1,15,-1
 279 247 l 2,16,17
 269 146 269 146 285 109.5 c 128,-1,18
 301 73 301 73 365 73 c 0,19,20
 397 73 397 73 453 83 c 1,21,-1
 444 1 l 1,22,23
 393 -13 393 -13 332 -13 c 0,0,1
EndSplineSet
EndChar

StartChar: u
Encoding: 117 117 88
Width: 808
GlyphClass: 2
Flags: W
AnchorPoint: "Anchor-0" 672 0 basechar 0
LayerCount: 2
Fore
SplineSet
247 -19 m 0,0,1
 162 -19 162 -19 118.5 43.5 c 128,-1,2
 75 106 75 106 89 240 c 2,3,-1
 187 1184 l 1,4,-1
 297 1184 l 1,5,-1
 199 252 l 2,6,7
 188 149 188 149 215.5 107.5 c 128,-1,8
 243 66 243 66 304 66 c 0,9,10
 364 66 364 66 432 104.5 c 128,-1,11
 500 143 500 143 562 209 c 1,12,-1
 664 1184 l 1,13,-1
 773 1184 l 1,14,-1
 649 0 l 1,15,-1
 540 0 l 1,16,-1
 555 139 l 1,17,18
 412 -19 412 -19 247 -19 c 0,0,1
EndSplineSet
EndChar

StartChar: v
Encoding: 118 118 89
Width: 731
GlyphClass: 2
Flags: W
LayerCount: 2
Fore
SplineSet
269 0 m 1,0,-1
 120 1184 l 1,1,-1
 231 1184 l 1,2,-1
 343 138 l 1,3,-1
 668 1184 l 1,4,-1
 774 1184 l 1,5,-1
 390 0 l 1,6,-1
 269 0 l 1,0,-1
EndSplineSet
EndChar

StartChar: w
Encoding: 119 119 90
Width: 1160
GlyphClass: 2
Flags: W
LayerCount: 2
Fore
SplineSet
220 0 m 1,0,-1
 149 1184 l 1,1,-1
 245 1184 l 1,2,-1
 298 124 l 1,3,-1
 612 1184 l 1,4,-1
 717 1184 l 1,5,-1
 814 129 l 1,6,-1
 1078 1184 l 1,7,-1
 1174 1184 l 1,8,-1
 861 0 l 1,9,-1
 748 0 l 1,10,-1
 652 1039 l 1,11,-1
 343 0 l 1,12,-1
 220 0 l 1,0,-1
EndSplineSet
EndChar

StartChar: x
Encoding: 120 120 91
Width: 767
GlyphClass: 2
Flags: W
LayerCount: 2
Fore
SplineSet
-1 0 m 1,0,-1
 352 617 l 1,1,-1
 141 1184 l 1,2,-1
 252 1184 l 1,3,-1
 425 714 l 1,4,-1
 692 1184 l 1,5,-1
 805 1184 l 1,6,-1
 464 606 l 1,7,-1
 685 0 l 1,8,-1
 582 0 l 1,9,-1
 394 504 l 1,10,-1
 106 0 l 1,11,-1
 -1 0 l 1,0,-1
EndSplineSet
EndChar

StartChar: y
Encoding: 121 121 92
Width: 767
GlyphClass: 2
Flags: W
LayerCount: 2
Fore
SplineSet
2 -295 m 1,0,-1
 12 -207 l 1,1,2
 81 -207 81 -207 129.5 -200 c 128,-1,3
 178 -193 178 -193 207 -180.5 c 128,-1,4
 236 -168 236 -168 253 -146.5 c 128,-1,5
 270 -125 270 -125 276 -102 c 128,-1,6
 282 -79 282 -79 283 -44 c 0,7,8
 284 -14 284 -14 267 120 c 2,9,-1
 130 1184 l 1,10,-1
 238 1184 l 1,11,-1
 358 103 l 1,12,-1
 696 1184 l 1,13,-1
 804 1184 l 1,14,-1
 381 -97 l 1,15,16
 345 -202 345 -202 268 -248.5 c 128,-1,17
 191 -295 191 -295 48 -295 c 2,18,-1
 2 -295 l 1,0,-1
EndSplineSet
EndChar

StartChar: z
Encoding: 122 122 93
Width: 666
GlyphClass: 2
Flags: W
LayerCount: 2
Fore
SplineSet
24 0 m 1,0,-1
 32 79 l 1,1,-1
 567 1100 l 1,2,-1
 184 1100 l 1,3,-1
 192 1184 l 1,4,-1
 687 1184 l 1,5,-1
 680 1113 l 1,6,-1
 147 83 l 1,7,-1
 563 83 l 1,8,-1
 555 0 l 1,9,-1
 24 0 l 1,0,-1
EndSplineSet
EndChar

StartChar: braceleft
Encoding: 123 123 94
Width: 475
GlyphClass: 2
Flags: W
LayerCount: 2
Fore
SplineSet
365 -305 m 1,0,1
 327 -305 327 -305 300.5 -304 c 128,-1,2
 274 -303 274 -303 249.5 -297 c 128,-1,3
 225 -291 225 -291 209.5 -285.5 c 128,-1,4
 194 -280 194 -280 181 -264 c 128,-1,5
 168 -248 168 -248 161 -235.5 c 128,-1,6
 154 -223 154 -223 150 -194.5 c 128,-1,7
 146 -166 146 -166 145.5 -143 c 128,-1,8
 145 -120 145 -120 147.5 -75 c 128,-1,9
 150 -30 150 -30 153.5 7 c 128,-1,10
 157 44 157 44 164 108 c 2,11,-1
 190 358 l 1,12,13
 209 526 209 526 192 585 c 128,-1,14
 175 644 175 644 101 644 c 1,15,-1
 111 738 l 1,16,17
 184 738 184 738 213 795 c 128,-1,18
 242 852 242 852 260 1024 c 2,19,-1
 285 1261 l 2,20,21
 296 1367 296 1367 303 1420 c 128,-1,22
 310 1473 310 1473 324.5 1529 c 128,-1,23
 339 1585 339 1585 354.5 1606 c 128,-1,24
 370 1627 370 1627 402 1646.5 c 128,-1,25
 434 1666 434 1666 472 1670 c 128,-1,26
 510 1674 510 1674 573 1674 c 1,27,-1
 564 1592 l 1,28,29
 463 1592 463 1592 440 1546 c 128,-1,30
 417 1500 417 1500 393 1261 c 1,31,-1
 364 992 l 2,32,33
 348 840 348 840 317 775.5 c 128,-1,34
 286 711 286 711 221 691 c 1,35,36
 282 671 282 671 299.5 606.5 c 128,-1,37
 317 542 317 542 301 390 c 2,38,-1
 271 108 l 2,39,40
 249 -103 249 -103 254 -150 c 0,41,42
 259 -202 259 -202 295 -214 c 0,43,44
 317 -222 317 -222 373 -222 c 1,45,-1
 365 -305 l 1,0,1
EndSplineSet
EndChar

StartChar: bar
Encoding: 124 124 95
Width: 418
GlyphClass: 2
Flags: W
LayerCount: 2
Fore
SplineSet
85 -289 m 1,0,-1
 290 1658 l 1,1,-1
 392 1658 l 1,2,-1
 187 -289 l 1,3,-1
 85 -289 l 1,0,-1
EndSplineSet
EndChar

StartChar: braceright
Encoding: 125 125 96
Width: 487
GlyphClass: 2
Flags: W
LayerCount: 2
Fore
SplineSet
-27 -305 m 1,0,-1
 -18 -222 l 1,1,2
 83 -222 83 -222 106 -176 c 128,-1,3
 129 -130 129 -130 154 108 c 2,4,-1
 183 390 l 2,5,6
 199 542 199 542 230.5 606.5 c 128,-1,7
 262 671 262 671 327 691 c 1,8,9
 266 711 266 711 248 775 c 128,-1,10
 230 839 230 839 246 992 c 2,11,-1
 275 1261 l 1,12,13
 302 1495 302 1495 288 1543.5 c 128,-1,14
 274 1592 274 1592 173 1592 c 1,15,-1
 181 1674 l 1,16,17
 219 1674 219 1674 245.5 1673 c 128,-1,18
 272 1672 272 1672 296.5 1666 c 128,-1,19
 321 1660 321 1660 336.5 1654.5 c 128,-1,20
 352 1649 352 1649 365 1633 c 128,-1,21
 378 1617 378 1617 385 1604.5 c 128,-1,22
 392 1592 392 1592 396 1563.5 c 128,-1,23
 400 1535 400 1535 400.5 1512 c 128,-1,24
 401 1489 401 1489 398.5 1444 c 128,-1,25
 396 1399 396 1399 392.5 1362 c 128,-1,26
 389 1325 389 1325 382 1261 c 2,27,-1
 357 1024 l 1,28,29
 338 856 338 856 355 797 c 128,-1,30
 372 738 372 738 446 738 c 1,31,-1
 436 644 l 1,32,33
 362 644 362 644 333.5 586.5 c 128,-1,34
 305 529 305 529 287 358 c 2,35,-1
 261 108 l 2,36,37
 250 2 250 2 243 -51 c 128,-1,38
 236 -104 236 -104 221.5 -160 c 128,-1,39
 207 -216 207 -216 191.5 -237 c 128,-1,40
 176 -258 176 -258 144 -277.5 c 128,-1,41
 112 -297 112 -297 74 -301 c 128,-1,42
 36 -305 36 -305 -27 -305 c 1,0,-1
EndSplineSet
EndChar

StartChar: asciitilde
Encoding: 126 126 97
Width: 783
GlyphClass: 2
Flags: W
LayerCount: 2
Fore
SplineSet
566 781 m 0,0,1
 525 781 525 781 432.5 837 c 128,-1,2
 340 893 340 893 309 893 c 0,3,4
 263 893 263 893 165 808 c 1,5,-1
 130 858 l 1,6,7
 245 975 245 975 325 975 c 0,8,9
 365 975 365 975 457 920 c 128,-1,10
 549 865 549 865 578 865 c 0,11,12
 597 865 597 865 619 875 c 128,-1,13
 641 885 641 885 656 895.5 c 128,-1,14
 671 906 671 906 716 938 c 1,15,-1
 751 888 l 1,16,17
 632 781 632 781 566 781 c 0,0,1
EndSplineSet
EndChar

StartChar: exclamdown
Encoding: 161 161 99
Width: 404
GlyphClass: 2
Flags: W
LayerCount: 2
Fore
SplineSet
214 1092 m 1,0,-1
 230 1243 l 1,1,-1
 353 1243 l 1,2,-1
 338 1092 l 1,3,-1
 214 1092 l 1,0,-1
53 -415 m 1,4,-1
 233 886 l 1,5,-1
 273 886 l 1,6,-1
 177 -415 l 1,7,-1
 53 -415 l 1,4,-1
EndSplineSet
EndChar

StartChar: cent
Encoding: 162 162 100
Width: 776
GlyphClass: 2
Flags: W
LayerCount: 2
Fore
SplineSet
282 -229 m 1,0,-1
 304 -17 l 1,1,2
 223 -9 223 -9 174 30 c 128,-1,3
 125 69 125 69 108 130.5 c 128,-1,4
 91 192 91 192 88.5 273 c 128,-1,5
 86 354 86 354 98 445 c 1,6,-1
 128 723 l 1,7,8
 154 977 154 977 223 1084.5 c 128,-1,9
 292 1192 292 1192 444 1202 c 1,10,-1
 465 1409 l 1,11,-1
 523 1409 l 1,12,-1
 500 1202 l 1,13,14
 581 1198 581 1198 633 1167 c 128,-1,15
 685 1136 685 1136 705.5 1085 c 128,-1,16
 726 1034 726 1034 731.5 966 c 128,-1,17
 737 898 737 898 726 820 c 1,18,-1
 721 772 l 1,19,-1
 618 772 l 1,20,-1
 623 819 l 1,21,22
 638 936 638 936 623 1003.5 c 128,-1,23
 608 1071 608 1071 572.5 1096 c 128,-1,24
 537 1121 537 1121 469 1121 c 0,25,26
 420 1121 420 1121 385.5 1107 c 128,-1,27
 351 1093 351 1093 326.5 1066.5 c 128,-1,28
 302 1040 302 1040 285 991.5 c 128,-1,29
 268 943 268 943 257.5 884 c 128,-1,30
 247 825 247 825 238 736 c 2,31,-1
 205 429 l 2,32,33
 184 227 184 227 215 145 c 128,-1,34
 246 63 246 63 359 63 c 0,35,36
 473 63 473 63 516 136 c 128,-1,37
 559 209 559 209 579 397 c 1,38,-1
 583 443 l 1,39,-1
 686 443 l 1,40,-1
 682 399 l 2,41,42
 674 321 674 321 663 266 c 128,-1,43
 652 211 652 211 629.5 154 c 128,-1,44
 607 97 607 97 573.5 62.5 c 128,-1,45
 540 28 540 28 486.5 5.5 c 128,-1,46
 433 -17 433 -17 361 -19 c 1,47,-1
 339 -229 l 1,48,-1
 282 -229 l 1,0,-1
EndSplineSet
EndChar

StartChar: sterling
Encoding: 163 163 101
Width: 740
GlyphClass: 2
Flags: W
LayerCount: 2
Fore
SplineSet
-11 0 m 1,0,-1
 -5 56 l 1,1,-1
 125 79 l 1,2,-1
 201 804 l 1,3,-1
 74 804 l 1,4,-1
 82 884 l 1,5,-1
 210 884 l 1,6,-1
 237 1145 l 2,7,8
 246 1234 246 1234 256.5 1297 c 128,-1,9
 267 1360 267 1360 284.5 1425 c 128,-1,10
 302 1490 302 1490 327 1532.5 c 128,-1,11
 352 1575 352 1575 388.5 1610 c 128,-1,12
 425 1645 425 1645 476 1661 c 128,-1,13
 527 1677 527 1677 593 1677 c 0,14,15
 669 1677 669 1677 717.5 1652 c 128,-1,16
 766 1627 766 1627 785.5 1582.5 c 128,-1,17
 805 1538 805 1538 810.5 1478 c 128,-1,18
 816 1418 816 1418 807 1348 c 1,19,-1
 803 1307 l 1,20,-1
 720 1307 l 1,21,22
 737 1466 737 1466 711 1530 c 128,-1,23
 685 1594 685 1594 583 1594 c 0,24,25
 545 1594 545 1594 514.5 1583.5 c 128,-1,26
 484 1573 484 1573 462 1557 c 128,-1,27
 440 1541 440 1541 423 1511 c 128,-1,28
 406 1481 406 1481 395.5 1452 c 128,-1,29
 385 1423 385 1423 375.5 1375.5 c 128,-1,30
 366 1328 366 1328 361 1289.5 c 128,-1,31
 356 1251 356 1251 349 1189 c 2,32,-1
 317 884 l 1,33,-1
 607 884 l 1,34,-1
 599 804 l 1,35,-1
 309 804 l 1,36,-1
 233 79 l 1,37,-1
 669 79 l 1,38,-1
 661 0 l 1,39,-1
 -11 0 l 1,0,-1
EndSplineSet
EndChar

StartChar: currency
Encoding: 164 164 102
Width: 1048
GlyphClass: 2
Flags: W
LayerCount: 2
Fore
SplineSet
536 486 m 0,0,1
 691 486 691 486 809 597 c 128,-1,2
 927 708 927 708 944 866 c 128,-1,3
 961 1024 961 1024 866 1135 c 128,-1,4
 771 1246 771 1246 615 1246 c 0,5,6
 460 1246 460 1246 342 1135 c 128,-1,7
 224 1024 224 1024 207 866 c 0,8,9
 190 709 190 709 285 597.5 c 128,-1,10
 380 486 380 486 536 486 c 0,0,1
69 381 m 1,11,-1
 42 411 l 1,12,-1
 222 573 l 1,13,14
 124 697 124 697 142 866 c 128,-1,15
 160 1035 160 1035 284 1159 c 1,16,-1
 138 1321 l 1,17,-1
 171 1351 l 1,18,-1
 316 1189 l 1,19,20
 452 1305 452 1305 621 1304 c 1,21,22
 792 1305 792 1305 902 1189 c 1,23,-1
 1081 1351 l 1,24,-1
 1108 1321 l 1,25,-1
 929 1159 l 1,26,27
 1026 1035 1026 1035 1008 866 c 128,-1,28
 990 697 990 697 866 573 c 1,29,-1
 1012 411 l 1,30,-1
 979 381 l 1,31,-1
 834 543 l 1,32,33
 700 427 700 427 529 428 c 1,34,35
 360 427 360 427 248 543 c 1,36,-1
 69 381 l 1,11,-1
EndSplineSet
EndChar

StartChar: yen
Encoding: 165 165 103
Width: 860
GlyphClass: 2
Flags: W
LayerCount: 2
Fore
SplineSet
344 0 m 1,0,-1
 367 219 l 1,1,-1
 150 219 l 1,2,-1
 158 293 l 1,3,-1
 375 293 l 1,4,-1
 397 508 l 1,5,-1
 180 508 l 1,6,-1
 188 581 l 1,7,-1
 388 581 l 1,8,-1
 136 1658 l 1,9,-1
 250 1658 l 1,10,-1
 471 663 l 1,11,-1
 885 1658 l 1,12,-1
 999 1658 l 1,13,-1
 533 581 l 1,14,-1
 730 581 l 1,15,-1
 722 508 l 1,16,-1
 509 508 l 1,17,-1
 486 293 l 1,18,-1
 699 293 l 1,19,-1
 691 219 l 1,20,-1
 478 219 l 1,21,-1
 455 0 l 1,22,-1
 344 0 l 1,0,-1
EndSplineSet
EndChar

StartChar: brokenbar
Encoding: 166 166 104
Width: 401
GlyphClass: 2
Flags: W
LayerCount: 2
Fore
SplineSet
194 801 m 1,0,-1
 284 1658 l 1,1,-1
 380 1658 l 1,2,-1
 290 801 l 1,3,-1
 194 801 l 1,0,-1
71 -368 m 1,4,-1
 162 489 l 1,5,-1
 258 489 l 1,6,-1
 168 -368 l 1,7,-1
 71 -368 l 1,4,-1
EndSplineSet
EndChar

StartChar: section
Encoding: 167 167 105
Width: 787
GlyphClass: 2
Flags: W
LayerCount: 2
Fore
SplineSet
517 555 m 1,0,1
 572 578 572 578 616 619 c 128,-1,2
 660 660 660 660 672 715 c 0,3,4
 687 782 687 782 662 839.5 c 128,-1,5
 637 897 637 897 567 965 c 2,6,-1
 398 1129 l 1,7,8
 329 1109 329 1109 285.5 1066 c 128,-1,9
 242 1023 242 1023 236 960 c 1,10,11
 227 888 227 888 295 811 c 2,12,-1
 517 555 l 1,0,1
356 -19 m 0,13,14
 291 -19 291 -19 240 7 c 128,-1,15
 189 33 189 33 156.5 78.5 c 128,-1,16
 124 124 124 124 105 178.5 c 128,-1,17
 86 233 86 233 77 298 c 1,18,-1
 164 326 l 1,19,20
 178 215 178 215 230 141 c 128,-1,21
 282 67 282 67 369 67 c 0,22,23
 452 67 452 67 508.5 114 c 128,-1,24
 565 161 565 161 575 240 c 0,25,26
 580 277 580 277 574.5 306 c 128,-1,27
 569 335 569 335 534 392.5 c 128,-1,28
 499 450 499 450 426 532 c 1,29,-1
 223 742 l 1,30,31
 120 842 120 842 132 957 c 0,32,33
 141 1044 141 1044 200 1102 c 128,-1,34
 259 1160 259 1160 342 1187 c 1,35,36
 283 1250 283 1250 251.5 1306.5 c 128,-1,37
 220 1363 220 1363 227 1427 c 0,38,39
 239 1536 239 1536 320.5 1605.5 c 128,-1,40
 402 1675 402 1675 529 1675 c 0,41,42
 591 1675 591 1675 637.5 1649.5 c 128,-1,43
 684 1624 684 1624 713 1578 c 128,-1,44
 742 1532 742 1532 758.5 1488 c 128,-1,45
 775 1444 775 1444 788 1387 c 1,46,-1
 697 1359 l 1,47,48
 690 1393 690 1393 682.5 1418.5 c 128,-1,49
 675 1444 675 1444 660 1478 c 128,-1,50
 645 1512 645 1512 627 1534 c 128,-1,51
 609 1556 609 1556 580.5 1571.5 c 128,-1,52
 552 1587 552 1587 517 1587 c 0,53,54
 444 1587 444 1587 392 1544 c 128,-1,55
 340 1501 340 1501 332 1422 c 0,56,57
 322 1333 322 1333 449 1204 c 1,58,-1
 640 1028 l 1,59,60
 716 954 716 954 748.5 882.5 c 128,-1,61
 781 811 781 811 763 715 c 1,62,63
 749 632 749 632 700 582.5 c 128,-1,64
 651 533 651 533 574 496 c 1,65,66
 603 458 603 458 613.5 442.5 c 128,-1,67
 624 427 624 427 644 392.5 c 128,-1,68
 664 358 664 358 670 325.5 c 128,-1,69
 676 293 676 293 673 256 c 0,70,71
 662 130 662 130 574 55.5 c 128,-1,72
 486 -19 486 -19 356 -19 c 0,13,14
EndSplineSet
EndChar

StartChar: dieresis
Encoding: 168 168 106
Width: 762
GlyphClass: 2
Flags: W
LayerCount: 2
Fore
SplineSet
593 1504 m 1,0,-1
 609 1658 l 1,1,-1
 723 1658 l 1,2,-1
 706 1504 l 1,3,-1
 593 1504 l 1,0,-1
266 1504 m 1,4,-1
 282 1658 l 1,5,-1
 395 1658 l 1,6,-1
 379 1504 l 1,7,-1
 266 1504 l 1,4,-1
EndSplineSet
EndChar

StartChar: copyright
Encoding: 169 169 107
Width: 1765
GlyphClass: 2
Flags: W
LayerCount: 2
Fore
SplineSet
838 -22 m 0,0,1
 731 -22 731 -22 637 -2 c 128,-1,2
 543 18 543 18 470.5 54.5 c 128,-1,3
 398 91 398 91 337.5 142 c 128,-1,4
 277 193 277 193 236 254.5 c 128,-1,5
 195 316 195 316 164 386.5 c 128,-1,6
 133 457 133 457 119.5 532.5 c 128,-1,7
 106 608 106 608 100.5 686.5 c 128,-1,8
 95 765 95 765 106 843 c 1,9,10
 119 972 119 972 160.5 1093.5 c 128,-1,11
 202 1215 202 1215 278.5 1327.5 c 128,-1,12
 355 1440 355 1440 457.5 1524 c 128,-1,13
 560 1608 560 1608 705 1658 c 128,-1,14
 850 1708 850 1708 1020 1708 c 0,15,16
 1189 1708 1189 1708 1323.5 1658 c 128,-1,17
 1458 1608 1458 1608 1542.5 1524 c 128,-1,18
 1627 1440 1627 1440 1679.5 1327.5 c 128,-1,19
 1732 1215 1732 1215 1748 1093.5 c 128,-1,20
 1764 972 1764 972 1751 843 c 0,21,22
 1737 714 1737 714 1696 592.5 c 128,-1,23
 1655 471 1655 471 1579 358.5 c 128,-1,24
 1503 246 1503 246 1400.5 162 c 128,-1,25
 1298 78 1298 78 1153 28 c 128,-1,26
 1008 -22 1008 -22 838 -22 c 0,0,1
846 39 m 128,-1,28
 998 39 998 39 1128.5 84 c 128,-1,29
 1259 129 1259 129 1353.5 205.5 c 128,-1,30
 1448 282 1448 282 1518.5 386 c 128,-1,31
 1589 490 1589 490 1629 605.5 c 128,-1,32
 1669 721 1669 721 1682 845 c 0,33,34
 1695 970 1695 970 1679.5 1085 c 128,-1,35
 1664 1200 1664 1200 1615 1303 c 128,-1,36
 1566 1406 1566 1406 1487.5 1481.5 c 128,-1,37
 1409 1557 1409 1557 1288 1601.5 c 128,-1,38
 1167 1646 1167 1646 1015 1646 c 128,-1,39
 863 1646 863 1646 732 1601.5 c 128,-1,40
 601 1557 601 1557 506.5 1481.5 c 128,-1,41
 412 1406 412 1406 342 1303 c 128,-1,42
 272 1200 272 1200 232.5 1085 c 128,-1,43
 193 970 193 970 180 845 c 0,44,45
 167 721 167 721 182 605.5 c 128,-1,46
 197 490 197 490 245.5 386 c 128,-1,47
 294 282 294 282 372.5 205.5 c 128,-1,48
 451 129 451 129 572.5 84 c 128,-1,27
 694 39 694 39 846 39 c 128,-1,28
840 245 m 0,49,50
 778 245 778 245 730 258 c 128,-1,51
 682 271 682 271 650 293 c 128,-1,52
 618 315 618 315 597 351 c 128,-1,53
 576 387 576 387 565 425.5 c 128,-1,54
 554 464 554 464 551 517.5 c 128,-1,55
 548 571 548 571 550.5 621.5 c 128,-1,56
 553 672 553 672 560 738 c 2,57,-1
 585 979 l 1,58,59
 616 1268 616 1268 698 1378 c 128,-1,60
 780 1488 780 1488 970 1488 c 0,61,62
 1050 1488 1050 1488 1106 1469.5 c 128,-1,63
 1162 1451 1162 1451 1192 1417 c 128,-1,64
 1222 1383 1222 1383 1236.5 1334.5 c 128,-1,65
 1251 1286 1251 1286 1250.5 1225.5 c 128,-1,66
 1250 1165 1250 1165 1243 1094 c 2,67,-1
 1237 1038 l 1,68,-1
 1132 1038 l 1,69,-1
 1138 1093 l 2,70,71
 1144 1149 1144 1149 1144.5 1192.5 c 128,-1,72
 1145 1236 1145 1236 1141 1268.5 c 128,-1,73
 1137 1301 1137 1301 1126 1324 c 128,-1,74
 1115 1347 1115 1347 1101 1362 c 128,-1,75
 1087 1377 1087 1377 1065 1385.5 c 128,-1,76
 1043 1394 1043 1394 1019 1397 c 128,-1,77
 995 1400 995 1400 962 1400 c 0,78,79
 831 1400 831 1400 779 1314.5 c 128,-1,80
 727 1229 727 1229 702 992 c 2,81,-1
 674 721 l 2,82,83
 651 504 651 504 688 418.5 c 128,-1,84
 725 333 725 333 851 333 c 0,85,86
 918 333 918 333 959.5 348.5 c 128,-1,87
 1001 364 1001 364 1028.5 406 c 128,-1,88
 1056 448 1056 448 1069.5 507.5 c 128,-1,89
 1083 567 1083 567 1094 670 c 1,90,-1
 1099 726 l 1,91,-1
 1204 726 l 1,92,-1
 1199 673 l 2,93,94
 1193 611 1193 611 1186 567.5 c 128,-1,95
 1179 524 1179 524 1166.5 476 c 128,-1,96
 1154 428 1154 428 1137 396 c 128,-1,97
 1120 364 1120 364 1093.5 333 c 128,-1,98
 1067 302 1067 302 1032.5 284 c 128,-1,99
 998 266 998 266 949.5 255.5 c 128,-1,100
 901 245 901 245 840 245 c 0,49,50
EndSplineSet
EndChar

StartChar: ordfeminine
Encoding: 170 170 108
Width: 803
GlyphClass: 2
Flags: W
LayerCount: 2
Fore
SplineSet
415 794 m 0,0,1
 537 794 537 794 623 927 c 1,2,-1
 654 1218 l 1,3,4
 453 1131 453 1131 400 1097 c 0,5,6
 327 1050 327 1050 306 986 c 0,7,8
 298 962 298 962 295 931 c 0,9,10
 287 859 287 859 323.5 826.5 c 128,-1,11
 360 794 360 794 415 794 c 0,0,1
386 719 m 0,12,13
 292 719 292 719 240.5 774 c 128,-1,14
 189 829 189 829 199 921 c 0,15,16
 206 982 206 982 226 1022 c 128,-1,17
 246 1062 246 1062 301 1103 c 128,-1,18
 356 1144 356 1144 435.5 1180.5 c 128,-1,19
 515 1217 515 1217 659 1273 c 1,20,-1
 667 1351 l 1,21,22
 683 1495 683 1495 657.5 1551 c 128,-1,23
 632 1607 632 1607 555 1607 c 0,24,25
 391 1607 391 1607 371 1422 c 1,26,-1
 281 1424 l 1,27,28
 313 1680 313 1680 563 1680 c 0,29,30
 695 1680 695 1680 738 1601.5 c 128,-1,31
 781 1523 781 1523 762 1342 c 2,32,-1
 698 733 l 1,33,-1
 616 733 l 1,34,-1
 620 852 l 1,35,36
 586 793 586 793 522 756 c 128,-1,37
 458 719 458 719 386 719 c 0,12,13
EndSplineSet
EndChar

StartChar: guillemotleft
Encoding: 171 171 109
Width: 837
GlyphClass: 2
Flags: W
LayerCount: 2
Fore
SplineSet
706 232 m 1,0,-1
 406 658 l 1,1,-1
 410 701 l 1,2,-1
 800 1126 l 1,3,-1
 785 986 l 1,4,-1
 508 680 l 1,5,-1
 721 372 l 1,6,-1
 706 232 l 1,0,-1
410 232 m 1,7,-1
 110 658 l 1,8,-1
 114 701 l 1,9,-1
 503 1126 l 1,10,-1
 488 986 l 1,11,-1
 212 683 l 1,12,-1
 424 372 l 1,13,-1
 410 232 l 1,7,-1
EndSplineSet
EndChar

StartChar: logicalnot
Encoding: 172 172 110
Width: 715
GlyphClass: 2
Flags: W
LayerCount: 2
Fore
SplineSet
596 582 m 1,0,-1
 620 812 l 1,1,-1
 127 812 l 1,2,-1
 136 902 l 1,3,-1
 706 902 l 1,4,-1
 673 582 l 1,5,-1
 596 582 l 1,0,-1
EndSplineSet
EndChar

StartChar: uni00AD
Encoding: 173 173 111
Width: 672
GlyphClass: 2
Flags: W
LayerCount: 2
Fore
SplineSet
142 639 m 1,0,-1
 151 724 l 1,1,-1
 600 724 l 1,2,-1
 592 639 l 1,3,-1
 142 639 l 1,0,-1
EndSplineSet
EndChar

StartChar: registered
Encoding: 174 174 112
Width: 1780
GlyphClass: 2
Flags: W
LayerCount: 2
Fore
SplineSet
846 -24 m 128,-1,1
 677 -24 677 -24 542.5 26 c 128,-1,2
 408 76 408 76 323.5 160 c 128,-1,3
 239 244 239 244 186.5 356.5 c 128,-1,4
 134 469 134 469 118 590 c 128,-1,5
 102 711 102 711 116 839 c 0,6,7
 127 945 127 945 158.5 1047.5 c 128,-1,8
 190 1150 190 1150 241.5 1247.5 c 128,-1,9
 293 1345 293 1345 369.5 1427 c 128,-1,10
 446 1509 446 1509 541 1570.5 c 128,-1,11
 636 1632 636 1632 760.5 1667 c 128,-1,12
 885 1702 885 1702 1027 1702 c 0,13,14
 1196 1702 1196 1702 1330 1652 c 128,-1,15
 1464 1602 1464 1602 1548.5 1518.5 c 128,-1,16
 1633 1435 1633 1435 1685 1322.5 c 128,-1,17
 1737 1210 1737 1210 1753 1089 c 128,-1,18
 1769 968 1769 968 1756 839 c 128,-1,19
 1743 710 1743 710 1701.5 589 c 128,-1,20
 1660 468 1660 468 1584.5 355.5 c 128,-1,21
 1509 243 1509 243 1407 159.5 c 128,-1,22
 1305 76 1305 76 1160 26 c 128,-1,0
 1015 -24 1015 -24 846 -24 c 128,-1,1
853 42 m 0,23,24
 1003 42 1003 42 1132 86.5 c 128,-1,25
 1261 131 1261 131 1354.5 207 c 128,-1,26
 1448 283 1448 283 1517.5 385.5 c 128,-1,27
 1587 488 1587 488 1626.5 602.5 c 128,-1,28
 1666 717 1666 717 1679 840 c 0,29,30
 1692 964 1692 964 1676.5 1078 c 128,-1,31
 1661 1192 1661 1192 1613 1294 c 128,-1,32
 1565 1396 1565 1396 1487.5 1471.5 c 128,-1,33
 1410 1547 1410 1547 1290 1591 c 128,-1,34
 1170 1635 1170 1635 1020 1635 c 0,35,36
 869 1635 869 1635 739.5 1591 c 128,-1,37
 610 1547 610 1547 516.5 1471.5 c 128,-1,38
 423 1396 423 1396 353.5 1294 c 128,-1,39
 284 1192 284 1192 245 1078 c 128,-1,40
 206 964 206 964 193 840 c 0,41,42
 180 717 180 717 195 602.5 c 128,-1,43
 210 488 210 488 258 385.5 c 128,-1,44
 306 283 306 283 383.5 207 c 128,-1,45
 461 131 461 131 581.5 86.5 c 128,-1,46
 702 42 702 42 853 42 c 0,23,24
770 908 m 1,47,-1
 998 908 l 2,48,49
 1060 908 1060 908 1102.5 924.5 c 128,-1,50
 1145 941 1145 941 1169.5 976 c 128,-1,51
 1194 1011 1194 1011 1206.5 1053 c 128,-1,52
 1219 1095 1219 1095 1225 1158 c 0,53,54
 1238 1280 1238 1280 1202.5 1338.5 c 128,-1,55
 1167 1397 1167 1397 1060 1397 c 2,56,-1
 822 1397 l 1,57,-1
 770 908 l 1,47,-1
602 226 m 1,58,-1
 732 1471 l 1,59,-1
 1077 1471 l 2,60,61
 1358 1471 1358 1471 1324 1157 c 0,62,63
 1311 1038 1311 1038 1256 957 c 128,-1,64
 1201 876 1201 876 1091 857 c 1,65,-1
 1237 226 l 1,66,-1
 1136 226 l 1,67,-1
 998 841 l 1,68,-1
 764 841 l 1,69,-1
 699 226 l 1,70,-1
 602 226 l 1,58,-1
EndSplineSet
EndChar

StartChar: macron
Encoding: 175 175 113
Width: 758
GlyphClass: 2
Flags: W
LayerCount: 2
Fore
SplineSet
333 1583 m 1,0,-1
 340 1658 l 1,1,-1
 691 1658 l 1,2,-1
 683 1583 l 1,3,-1
 333 1583 l 1,0,-1
EndSplineSet
EndChar

StartChar: degree
Encoding: 176 176 114
Width: 797
GlyphClass: 2
Flags: W
LayerCount: 2
Fore
SplineSet
474 1127 m 0,0,1
 421 1127 421 1127 375 1142.5 c 128,-1,2
 329 1158 329 1158 292.5 1190 c 128,-1,3
 256 1222 256 1222 238.5 1276.5 c 128,-1,4
 221 1331 221 1331 228 1402 c 0,5,6
 243 1539 243 1539 330.5 1607.5 c 128,-1,7
 418 1676 418 1676 532 1676 c 0,8,9
 585 1676 585 1676 631 1660.5 c 128,-1,10
 677 1645 677 1645 713.5 1613 c 128,-1,11
 750 1581 750 1581 768 1527 c 128,-1,12
 786 1473 786 1473 778 1402 c 1,13,14
 769 1308 769 1308 720.5 1244 c 128,-1,15
 672 1180 672 1180 609 1153.5 c 128,-1,16
 546 1127 546 1127 474 1127 c 0,0,1
483 1202 m 0,17,18
 561 1202 561 1202 620 1252 c 128,-1,19
 679 1302 679 1302 690 1401 c 0,20,21
 701 1502 701 1502 652 1552.5 c 128,-1,22
 603 1603 603 1603 524 1603 c 128,-1,23
 445 1603 445 1603 386.5 1552.5 c 128,-1,24
 328 1502 328 1502 317 1401 c 0,25,26
 306 1302 306 1302 355 1252 c 128,-1,27
 404 1202 404 1202 483 1202 c 0,17,18
EndSplineSet
EndChar

StartChar: plusminus
Encoding: 177 177 115
Width: 659
GlyphClass: 2
Flags: W
LayerCount: 2
Fore
SplineSet
57 0 m 1,0,-1
 67 98 l 1,1,-1
 545 98 l 1,2,-1
 535 0 l 1,3,-1
 57 0 l 1,0,-1
284 375 m 1,4,-1
 304 563 l 1,5,-1
 116 563 l 1,6,-1
 127 661 l 1,7,-1
 315 661 l 1,8,-1
 335 848 l 1,9,-1
 437 848 l 1,10,-1
 417 661 l 1,11,-1
 605 661 l 1,12,-1
 594 563 l 1,13,-1
 406 563 l 1,14,-1
 387 375 l 1,15,-1
 284 375 l 1,4,-1
EndSplineSet
EndChar

StartChar: twosuperior
Encoding: 178 178 116
Width: 802
GlyphClass: 2
Flags: W
LayerCount: 2
Fore
SplineSet
195 741 m 1,0,-1
 203 820 l 1,1,-1
 520 1232 l 2,2,3
 530 1245 530 1245 553.5 1275.5 c 128,-1,4
 577 1306 577 1306 586.5 1319 c 128,-1,5
 596 1332 596 1332 613 1358.5 c 128,-1,6
 630 1385 630 1385 638 1404 c 128,-1,7
 646 1423 646 1423 654 1451 c 128,-1,8
 662 1479 662 1479 665 1508 c 0,9,10
 675 1597 675 1597 643.5 1643 c 128,-1,11
 612 1689 612 1689 538 1688 c 0,12,13
 452 1687 452 1687 409.5 1634.5 c 128,-1,14
 367 1582 367 1582 355 1468 c 1,15,-1
 271 1468 l 1,16,-1
 274 1490 l 1,17,18
 288 1631 288 1631 355.5 1700 c 128,-1,19
 423 1769 423 1769 548 1769 c 0,20,21
 659 1769 659 1769 716.5 1703 c 128,-1,22
 774 1637 774 1637 761 1514 c 0,23,24
 752 1432 752 1432 712.5 1359 c 128,-1,25
 673 1286 673 1286 596 1189 c 1,26,-1
 310 822 l 1,27,-1
 655 822 l 1,28,-1
 647 741 l 1,29,-1
 195 741 l 1,0,-1
EndSplineSet
EndChar

StartChar: threesuperior
Encoding: 179 179 117
Width: 806
GlyphClass: 2
Flags: W
LayerCount: 2
Fore
SplineSet
420 728 m 0,0,1
 305 728 305 728 257 793.5 c 128,-1,2
 209 859 209 859 221 974 c 1,3,-1
 222 991 l 1,4,-1
 318 991 l 1,5,-1
 316 969 l 1,6,7
 307 891 307 891 334 850 c 128,-1,8
 361 809 361 809 434 809 c 0,9,10
 586 809 586 809 607 1014 c 0,11,12
 618 1114 618 1114 588 1170.5 c 128,-1,13
 558 1227 558 1227 493 1227 c 2,14,-1
 418 1227 l 1,15,-1
 426 1303 l 1,16,-1
 501 1303 l 2,17,18
 568 1303 568 1303 604.5 1352.5 c 128,-1,19
 641 1402 641 1402 654 1518 c 1,20,21
 671 1690 671 1690 541 1690 c 0,22,23
 465 1690 465 1690 426.5 1651.5 c 128,-1,24
 388 1613 388 1613 380 1534 c 2,25,-1
 378 1514 l 1,26,-1
 282 1514 l 1,27,-1
 284 1532 l 1,28,29
 309 1769 309 1769 548 1769 c 0,30,31
 660 1769 660 1769 709 1700 c 128,-1,32
 758 1631 758 1631 747 1519 c 1,33,34
 735 1408 735 1408 691 1344.5 c 128,-1,35
 647 1281 647 1281 592 1269 c 1,36,37
 617 1259 617 1259 635.5 1245.5 c 128,-1,38
 654 1232 654 1232 673.5 1205 c 128,-1,39
 693 1178 693 1178 700 1130 c 128,-1,40
 707 1082 707 1082 700 1017 c 0,41,42
 687 887 687 887 615 807.5 c 128,-1,43
 543 728 543 728 420 728 c 0,0,1
EndSplineSet
EndChar

StartChar: acute
Encoding: 180 180 118
Width: 422
GlyphClass: 2
Flags: W
LayerCount: 2
Fore
SplineSet
177 1261 m 1,0,-1
 351 1658 l 1,1,-1
 460 1658 l 1,2,-1
 235 1261 l 1,3,-1
 177 1261 l 1,0,-1
EndSplineSet
EndChar

StartChar: mu
Encoding: 181 181 119
Width: 835
GlyphClass: 2
Flags: W
LayerCount: 2
Fore
SplineSet
27 -353 m 1,0,-1
 187 1184 l 1,1,-1
 297 1184 l 1,2,-1
 199 252 l 2,3,4
 188 149 188 149 215.5 107.5 c 128,-1,5
 243 66 243 66 304 66 c 0,6,7
 364 66 364 66 432 104.5 c 128,-1,8
 500 143 500 143 562 209 c 1,9,-1
 664 1184 l 1,10,-1
 773 1184 l 1,11,-1
 649 0 l 1,12,-1
 540 0 l 1,13,-1
 555 139 l 1,14,15
 425 -7 425 -7 272 -16 c 1,16,17
 209 -16 209 -16 176 17 c 1,18,-1
 137 -353 l 1,19,-1
 27 -353 l 1,0,-1
EndSplineSet
EndChar

StartChar: paragraph
Encoding: 182 182 120
Width: 984
GlyphClass: 2
Flags: W
LayerCount: 2
Fore
SplineSet
349 -192 m 1,0,-1
 485 1103 l 1,1,2
 318 1101 318 1101 230.5 1173 c 128,-1,3
 143 1245 143 1245 157 1378 c 0,4,5
 170 1508 170 1508 265 1583 c 128,-1,6
 360 1658 360 1658 541 1658 c 2,7,-1
 962 1658 l 1,8,-1
 767 -192 l 1,9,-1
 685 -192 l 1,10,-1
 872 1585 l 1,11,-1
 618 1585 l 1,12,-1
 431 -192 l 1,13,-1
 349 -192 l 1,0,-1
EndSplineSet
EndChar

StartChar: periodcentered
Encoding: 183 183 121
Width: 399
GlyphClass: 2
Flags: W
LayerCount: 2
Fore
SplineSet
197 697 m 1,0,-1
 213 850 l 1,1,-1
 324 850 l 1,2,-1
 308 697 l 1,3,-1
 197 697 l 1,0,-1
EndSplineSet
EndChar

StartChar: cedilla
Encoding: 184 184 122
Width: 428
GlyphClass: 4
Flags: W
AnchorPoint: "Anchor-1" 120 0 mark 0
LayerCount: 2
Fore
SplineSet
-28 -378 m 1,0,-1
 -22 -320 l 1,1,2
 74 -326 74 -326 117.5 -309.5 c 128,-1,3
 161 -293 161 -293 170 -248 c 0,4,5
 179 -198 179 -198 145.5 -168 c 128,-1,6
 112 -138 112 -138 42 -127 c 1,7,-1
 55 0 l 1,8,-1
 115 0 l 1,9,-1
 105 -97 l 1,10,11
 184 -108 184 -108 223 -153 c 128,-1,12
 262 -198 262 -198 253 -255 c 0,13,14
 230 -401 230 -401 -28 -378 c 1,0,-1
EndSplineSet
EndChar

StartChar: onesuperior
Encoding: 185 185 123
Width: 786
GlyphClass: 2
Flags: W
LayerCount: 2
Fore
SplineSet
426 741 m 1,0,-1
 521 1650 l 1,1,2
 457 1571 457 1571 335 1544 c 1,3,-1
 343 1616 l 1,4,5
 465 1663 465 1663 540 1761 c 1,6,-1
 625 1761 l 1,7,-1
 518 741 l 1,8,-1
 426 741 l 1,0,-1
EndSplineSet
EndChar

StartChar: ordmasculine
Encoding: 186 186 124
Width: 803
GlyphClass: 2
Flags: W
LayerCount: 2
Fore
SplineSet
434 718 m 128,-1,1
 355 718 355 718 302.5 740 c 128,-1,2
 250 762 250 762 226 801.5 c 128,-1,3
 202 841 202 841 194 896 c 128,-1,4
 186 951 186 951 195 1018 c 1,5,-1
 233 1381 l 2,6,7
 248 1526 248 1526 317 1603 c 128,-1,8
 386 1680 386 1680 535 1680 c 0,9,10
 682 1680 682 1680 735.5 1601.5 c 128,-1,11
 789 1523 789 1523 774 1381 c 2,12,-1
 736 1018 l 2,13,14
 729 948 729 948 711 896.5 c 128,-1,15
 693 845 693 845 659.5 803 c 128,-1,16
 626 761 626 761 569.5 739.5 c 128,-1,0
 513 718 513 718 434 718 c 128,-1,1
440 787 m 128,-1,18
 543 787 543 787 590 847 c 128,-1,19
 637 907 637 907 649 1020 c 2,20,-1
 686 1379 l 1,21,22
 693 1430 693 1430 687.5 1472.5 c 128,-1,23
 682 1515 682 1515 666.5 1545.5 c 128,-1,24
 651 1576 651 1576 615.5 1593.5 c 128,-1,25
 580 1611 580 1611 527 1611 c 0,26,27
 425 1611 425 1611 377.5 1550.5 c 128,-1,28
 330 1490 330 1490 318 1379 c 2,29,-1
 281 1020 l 2,30,31
 269 908 269 908 303 847.5 c 128,-1,17
 337 787 337 787 440 787 c 128,-1,18
EndSplineSet
EndChar

StartChar: guillemotright
Encoding: 187 187 125
Width: 850
GlyphClass: 2
Flags: W
LayerCount: 2
Fore
SplineSet
386 232 m 1,0,-1
 400 372 l 1,1,-1
 682 675 l 1,2,-1
 464 986 l 1,3,-1
 479 1126 l 1,4,-1
 784 700 l 1,5,-1
 780 657 l 1,6,-1
 386 232 l 1,0,-1
89 232 m 1,7,-1
 104 372 l 1,8,-1
 386 678 l 1,9,-1
 168 986 l 1,10,-1
 183 1126 l 1,11,-1
 488 700 l 1,12,-1
 484 657 l 1,13,-1
 89 232 l 1,7,-1
EndSplineSet
EndChar

StartChar: onequarter
Encoding: 188 188 126
Width: 1542
GlyphClass: 2
Flags: W
LayerCount: 2
Fore
SplineSet
1003 358 m 1,0,-1
 1238 358 l 1,1,-1
 1296 915 l 1,2,-1
 1003 358 l 1,0,-1
350 0 m 1,3,-1
 1115 1658 l 1,4,-1
 1213 1658 l 1,5,-1
 449 0 l 1,6,-1
 350 0 l 1,3,-1
282 590 m 1,7,-1
 381 1530 l 1,8,-1
 220 1453 l 1,9,-1
 229 1532 l 1,10,11
 275 1554 275 1554 339.5 1595 c 128,-1,12
 404 1636 404 1636 426 1658 c 1,13,-1
 484 1658 l 1,14,-1
 371 590 l 1,15,-1
 282 590 l 1,7,-1
1198 -14 m 1,16,-1
 1230 285 l 1,17,-1
 910 285 l 1,18,-1
 917 355 l 1,19,-1
 1310 1061 l 1,20,-1
 1405 1061 l 1,21,-1
 1331 358 l 1,22,-1
 1461 358 l 1,23,-1
 1453 285 l 1,24,-1
 1323 285 l 1,25,-1
 1292 -14 l 1,26,-1
 1198 -14 l 1,16,-1
EndSplineSet
EndChar

StartChar: onehalf
Encoding: 189 189 127
Width: 1542
GlyphClass: 2
Flags: W
LayerCount: 2
Fore
SplineSet
352 0 m 1,0,-1
 1117 1658 l 1,1,-1
 1215 1658 l 1,2,-1
 451 0 l 1,3,-1
 352 0 l 1,0,-1
295 590 m 1,4,-1
 394 1530 l 1,5,-1
 233 1453 l 1,6,-1
 242 1532 l 1,7,8
 289 1554 289 1554 353 1595.5 c 128,-1,9
 417 1637 417 1637 438 1658 c 1,10,-1
 496 1658 l 1,11,-1
 384 590 l 1,12,-1
 295 590 l 1,4,-1
954 -1 m 1,13,-1
 961 72 l 1,14,-1
 1249 438 l 2,15,16
 1257 448 1257 448 1281.5 478.5 c 128,-1,17
 1306 509 1306 509 1314.5 520.5 c 128,-1,18
 1323 532 1323 532 1340.5 558.5 c 128,-1,19
 1358 585 1358 585 1365.5 603.5 c 128,-1,20
 1373 622 1373 622 1381 649 c 128,-1,21
 1389 676 1389 676 1392 705 c 0,22,23
 1410 880 1410 880 1280 880 c 0,24,25
 1201 880 1201 880 1163 832 c 128,-1,26
 1125 784 1125 784 1115 685 c 1,27,-1
 1027 685 l 1,28,29
 1027 686 1027 686 1028 693 c 2,30,-1
 1029 700 l 1,31,32
 1043 829 1043 829 1107 891.5 c 128,-1,33
 1171 954 1171 954 1288 954 c 0,34,35
 1394 954 1394 954 1448 891 c 128,-1,36
 1502 828 1502 828 1490 710 c 0,37,38
 1481 629 1481 629 1439 556.5 c 128,-1,39
 1397 484 1397 484 1318 389 c 1,40,41
 1312 384 1312 384 1251.5 308.5 c 128,-1,42
 1191 233 1191 233 1128 154 c 2,43,-1
 1064 74 l 1,44,-1
 1398 74 l 1,45,-1
 1391 -1 l 1,46,-1
 954 -1 l 1,13,-1
EndSplineSet
EndChar

StartChar: threequarters
Encoding: 190 190 128
Width: 1542
GlyphClass: 2
Flags: W
LayerCount: 2
Fore
SplineSet
1019 358 m 1,0,-1
 1254 358 l 1,1,-1
 1312 915 l 1,2,-1
 1019 358 l 1,0,-1
370 0 m 1,3,-1
 1136 1658 l 1,4,-1
 1233 1658 l 1,5,-1
 469 0 l 1,6,-1
 370 0 l 1,3,-1
1215 -14 m 1,7,-1
 1246 285 l 1,8,-1
 927 285 l 1,9,-1
 934 355 l 1,10,-1
 1327 1061 l 1,11,-1
 1419 1061 l 1,12,-1
 1345 358 l 1,13,-1
 1475 358 l 1,14,-1
 1467 285 l 1,15,-1
 1338 285 l 1,16,-1
 1306 -14 l 1,17,-1
 1215 -14 l 1,7,-1
314 700 m 0,18,19
 208 700 208 700 160 760.5 c 128,-1,20
 112 821 112 821 123 926 c 1,21,-1
 220 922 l 1,22,23
 204 773 204 773 326 773 c 0,24,25
 391 773 391 773 432.5 819.5 c 128,-1,26
 474 866 474 866 484 963 c 0,27,28
 494 1055 494 1055 463 1106 c 128,-1,29
 432 1157 432 1157 367 1157 c 1,30,-1
 375 1232 l 1,31,32
 442 1232 442 1232 478.5 1277 c 128,-1,33
 515 1322 515 1322 526 1427 c 1,34,35
 545 1590 545 1590 425 1590 c 0,36,37
 354 1590 354 1590 320 1553 c 128,-1,38
 286 1516 286 1516 277 1441 c 1,39,-1
 180 1439 l 1,40,41
 192 1545 192 1545 253.5 1604.5 c 128,-1,42
 315 1664 315 1664 432 1664 c 0,43,44
 538 1664 538 1664 585.5 1598 c 128,-1,45
 633 1532 633 1532 621 1426 c 0,46,47
 610 1320 610 1320 563.5 1262.5 c 128,-1,48
 517 1205 517 1205 454 1196 c 1,49,50
 599 1160 599 1160 579 965 c 0,51,52
 567 844 567 844 498 772 c 128,-1,53
 429 700 429 700 314 700 c 0,18,19
EndSplineSet
EndChar

StartChar: questiondown
Encoding: 191 191 129
Width: 886
GlyphClass: 2
Flags: W
LayerCount: 2
Fore
SplineSet
466 1084 m 1,0,-1
 482 1233 l 1,1,-1
 589 1233 l 1,2,-1
 573 1084 l 1,3,-1
 466 1084 l 1,0,-1
305 -445 m 0,4,5
 227 -445 227 -445 162.5 -418 c 128,-1,6
 98 -391 98 -391 51 -339 c 128,-1,7
 4 -287 4 -287 -17 -202.5 c 128,-1,8
 -38 -118 -38 -118 -27 -10 c 0,9,10
 -7 184 -7 184 101.5 326 c 128,-1,11
 210 468 210 468 424 604 c 1,12,-1
 447 824 l 1,13,-1
 542 824 l 1,14,-1
 515 572 l 1,15,16
 298 438 298 438 196 299.5 c 128,-1,17
 94 161 94 161 76 -11 c 0,18,19
 59 -178 59 -178 129.5 -264 c 128,-1,20
 200 -350 200 -350 316 -350 c 0,21,22
 446 -350 446 -350 523 -279 c 128,-1,23
 600 -208 600 -208 583 -80 c 1,24,-1
 575 -7 l 1,25,-1
 674 17 l 1,26,-1
 685 -58 l 2,27,28
 698 -152 698 -152 672 -227 c 128,-1,29
 646 -302 646 -302 591.5 -349 c 128,-1,30
 537 -396 537 -396 463.5 -420.5 c 128,-1,31
 390 -445 390 -445 305 -445 c 0,4,5
EndSplineSet
EndChar

StartChar: AE
Encoding: 198 198 136
Width: 1289
GlyphClass: 2
Flags: W
LayerCount: 2
Fore
SplineSet
305 548 m 1,0,-1
 659 548 l 1,1,-1
 758 1503 l 1,2,-1
 305 548 l 1,0,-1
-74 0 m 1,3,-1
 744 1658 l 1,4,-1
 1351 1658 l 1,5,-1
 1342 1569 l 1,6,-1
 873 1569 l 1,7,-1
 804 904 l 1,8,-1
 1142 904 l 1,9,-1
 1133 822 l 1,10,-1
 795 822 l 1,11,-1
 719 91 l 1,12,-1
 1188 91 l 1,13,-1
 1177 0 l 1,14,-1
 603 0 l 1,15,-1
 651 458 l 1,16,-1
 264 458 l 1,17,-1
 35 0 l 1,18,-1
 -74 0 l 1,3,-1
EndSplineSet
EndChar

StartChar: Eth
Encoding: 208 208 146
Width: 1149
GlyphClass: 2
Flags: W
LayerCount: 2
Fore
SplineSet
110 0 m 1,0,-1
 198 836 l 1,1,-1
 64 836 l 1,2,-1
 72 911 l 1,3,-1
 206 911 l 1,4,-1
 284 1658 l 1,5,-1
 648 1658 l 2,6,7
 745 1658 745 1658 816.5 1634 c 128,-1,8
 888 1610 888 1610 930 1567 c 128,-1,9
 972 1524 972 1524 997.5 1464.5 c 128,-1,10
 1023 1405 1023 1405 1026 1333.5 c 128,-1,11
 1029 1262 1029 1262 1022 1182 c 1,12,-1
 950 494 l 2,13,14
 938 381 938 381 909 295 c 128,-1,15
 880 209 880 209 826.5 140.5 c 128,-1,16
 773 72 773 72 687 36 c 128,-1,17
 601 0 601 0 484 0 c 2,18,-1
 110 0 l 1,0,-1
232 88 m 1,19,-1
 488 88 l 2,20,21
 553 88 553 88 605 102.5 c 128,-1,22
 657 117 657 117 693 146.5 c 128,-1,23
 729 176 729 176 754.5 212 c 128,-1,24
 780 248 780 248 797 298 c 128,-1,25
 814 348 814 348 823 396 c 128,-1,26
 832 444 832 444 839 506 c 2,27,-1
 909 1173 l 1,28,29
 921 1264 921 1264 913.5 1337.5 c 128,-1,30
 906 1411 906 1411 878.5 1462.5 c 128,-1,31
 851 1514 851 1514 791 1541.5 c 128,-1,32
 731 1569 731 1569 638 1569 c 2,33,-1
 387 1569 l 1,34,-1
 318 911 l 1,35,-1
 510 911 l 1,36,-1
 502 836 l 1,37,-1
 311 836 l 1,38,-1
 232 88 l 1,19,-1
EndSplineSet
EndChar

StartChar: multiply
Encoding: 215 215 153
Width: 687
GlyphClass: 2
Flags: W
LayerCount: 2
Fore
SplineSet
143 525 m 1,0,-1
 91 583 l 1,1,-1
 327 796 l 1,2,-1
 137 1009 l 1,3,-1
 200 1065 l 1,4,-1
 391 854 l 1,5,-1
 626 1065 l 1,6,-1
 678 1009 l 1,7,-1
 443 796 l 1,8,-1
 633 583 l 1,9,-1
 569 525 l 1,10,-1
 378 738 l 1,11,-1
 143 525 l 1,0,-1
EndSplineSet
EndChar

StartChar: Oslash
Encoding: 216 216 154
Width: 1071
GlyphClass: 2
Flags: W
LayerCount: 2
Fore
SplineSet
189 -194 m 1,0,-1
 139 -179 l 1,1,-1
 229 51 l 1,2,3
 156 111 156 111 133 217.5 c 128,-1,4
 110 324 110 324 125 472 c 2,5,-1
 202 1196 l 2,6,7
 213 1307 213 1307 242 1391 c 128,-1,8
 271 1475 271 1475 324 1541.5 c 128,-1,9
 377 1608 377 1608 461.5 1642.5 c 128,-1,10
 546 1677 546 1677 661 1677 c 256,11,12
 776 1677 776 1677 855 1641 c 1,13,-1
 931 1835 l 1,14,-1
 982 1821 l 1,15,-1
 901 1614 l 1,16,17
 1053 1506 1053 1506 1021 1196 c 2,18,-1
 944 469 l 2,19,20
 932 357 932 357 904 272 c 128,-1,21
 876 187 876 187 824 118.5 c 128,-1,22
 772 50 772 50 686 14 c 128,-1,23
 600 -22 600 -22 483 -22 c 0,24,25
 355 -22 355 -22 274 21 c 1,26,-1
 189 -194 l 1,0,-1
492 70 m 0,27,28
 579 70 579 70 641.5 96.5 c 128,-1,29
 704 123 704 123 741.5 175 c 128,-1,30
 779 227 779 227 799.5 292.5 c 128,-1,31
 820 358 820 358 829 447 c 2,32,-1
 909 1212 l 2,33,34
 932 1425 932 1425 860 1511 c 1,35,-1
 312 119 l 1,36,37
 343 95 343 95 387.5 82.5 c 128,-1,38
 432 70 432 70 492 70 c 0,27,28
273 162 m 1,39,-1
 818 1547 l 1,40,41
 757 1586 757 1586 652 1586 c 0,42,43
 565 1586 565 1586 503 1560 c 128,-1,44
 441 1534 441 1534 403.5 1482.5 c 128,-1,45
 366 1431 366 1431 346 1366.5 c 128,-1,46
 326 1302 326 1302 316 1212 c 2,47,-1
 236 447 l 2,48,49
 215 250 215 250 273 162 c 1,39,-1
EndSplineSet
EndChar

StartChar: Thorn
Encoding: 222 222 160
Width: 1034
GlyphClass: 2
Flags: W
LayerCount: 2
Fore
SplineSet
287 610 m 1,0,-1
 570 610 l 2,1,2
 725 610 725 610 808.5 700.5 c 128,-1,3
 892 791 892 791 912 989 c 1,4,5
 951 1349 951 1349 657 1349 c 2,6,-1
 364 1349 l 1,7,-1
 287 610 l 1,0,-1
110 0 m 1,8,-1
 284 1658 l 1,9,-1
 396 1658 l 1,10,-1
 374 1446 l 1,11,-1
 685 1446 l 2,12,13
 770 1446 770 1446 835.5 1422 c 128,-1,14
 901 1398 901 1398 940 1355.5 c 128,-1,15
 979 1313 979 1313 1003 1256 c 128,-1,16
 1027 1199 1027 1199 1030.5 1132.5 c 128,-1,17
 1034 1066 1034 1066 1028 993 c 1,18,19
 1021 922 1021 922 1004 859 c 128,-1,20
 987 796 987 796 952.5 731 c 128,-1,21
 918 666 918 666 870 619 c 128,-1,22
 822 572 822 572 746 542.5 c 128,-1,23
 670 513 670 513 576 513 c 2,24,-1
 276 513 l 1,25,-1
 222 0 l 1,26,-1
 110 0 l 1,8,-1
EndSplineSet
EndChar

StartChar: germandbls
Encoding: 223 223 161
Width: 992
GlyphClass: 2
Flags: W
LayerCount: 2
Fore
SplineSet
304 -22 m 1,0,-1
 314 69 l 1,1,2
 756 69 756 69 799 486 c 1,3,4
 803 546 803 546 801.5 603 c 128,-1,5
 800 660 800 660 780.5 710.5 c 128,-1,6
 761 761 761 761 729.5 799 c 128,-1,7
 698 837 698 837 643 859 c 128,-1,8
 588 881 588 881 515 881 c 1,9,-1
 530 972 l 1,10,11
 764 972 764 972 799 1299 c 0,12,13
 816 1455 816 1455 767.5 1533.5 c 128,-1,14
 719 1612 719 1612 599 1612 c 0,15,16
 552 1612 552 1612 517.5 1604 c 128,-1,17
 483 1596 483 1596 450 1573 c 128,-1,18
 417 1550 417 1550 395 1510 c 128,-1,19
 373 1470 373 1470 355.5 1406 c 128,-1,20
 338 1342 338 1342 329 1252 c 2,21,-1
 197 0 l 1,22,-1
 89 0 l 1,23,-1
 220 1250 l 2,24,25
 234 1380 234 1380 264.5 1468 c 128,-1,26
 295 1556 295 1556 344.5 1606 c 128,-1,27
 394 1656 394 1656 456 1677 c 128,-1,28
 518 1698 518 1698 603 1698 c 0,29,30
 764 1698 764 1698 845 1597 c 128,-1,31
 926 1496 926 1496 905 1299 c 0,32,33
 873 996 873 996 667 933 c 1,34,35
 744 916 744 916 797 871.5 c 128,-1,36
 850 827 850 827 873.5 768 c 128,-1,37
 897 709 897 709 906.5 637 c 128,-1,38
 916 565 916 565 905 492 c 1,39,40
 852 -22 852 -22 304 -22 c 1,0,-1
EndSplineSet
EndChar

StartChar: ae
Encoding: 230 230 168
Width: 1227
GlyphClass: 2
Flags: W
LayerCount: 2
Fore
SplineSet
705 687 m 1,0,-1
 922 760 l 2,1,2
 1017 791 1017 791 1055 830.5 c 128,-1,3
 1093 870 1093 870 1100 939 c 0,4,5
 1108 1014 1108 1014 1071 1065 c 128,-1,6
 1034 1116 1034 1116 944 1116 c 0,7,8
 841 1116 841 1116 788 1044.5 c 128,-1,9
 735 973 735 973 715 786 c 1,10,-1
 705 687 l 1,0,-1
309 66 m 0,11,12
 352 66 352 66 391 84.5 c 128,-1,13
 430 103 430 103 467 143.5 c 128,-1,14
 504 184 504 184 531.5 261 c 128,-1,15
 559 338 559 338 570 444 c 2,16,-1
 585 589 l 1,17,18
 579 587 579 587 507 559.5 c 128,-1,19
 435 532 435 532 429 529 c 0,20,21
 363 504 363 504 317.5 478 c 128,-1,22
 272 452 272 452 245.5 428.5 c 128,-1,23
 219 405 219 405 203 374.5 c 128,-1,24
 187 344 187 344 181 317 c 128,-1,25
 175 290 175 290 172 250 c 0,26,27
 163 153 163 153 204.5 109.5 c 128,-1,28
 246 66 246 66 309 66 c 0,11,12
274 -19 m 0,29,30
 167 -17 167 -17 109.5 54 c 128,-1,31
 52 125 52 125 63 240 c 0,32,33
 69 301 69 301 84 344.5 c 128,-1,34
 99 388 99 388 134 435.5 c 128,-1,35
 169 483 169 483 237.5 524 c 128,-1,36
 306 565 306 565 409 600 c 2,37,-1
 593 662 l 1,38,-1
 607 791 l 1,39,40
 622 917 622 917 609 990 c 128,-1,41
 596 1063 596 1063 564.5 1091 c 128,-1,42
 533 1119 533 1119 473 1119 c 0,43,44
 281 1119 281 1119 256 887 c 1,45,-1
 154 891 l 1,46,47
 171 1047 171 1047 256.5 1125 c 128,-1,48
 342 1203 342 1203 485 1203 c 0,49,50
 575 1203 575 1203 628 1153 c 128,-1,51
 681 1103 681 1103 684 1009 c 1,52,53
 717 1111 717 1111 790.5 1157 c 128,-1,54
 864 1203 864 1203 954 1203 c 0,55,56
 1084 1203 1084 1203 1148 1127 c 128,-1,57
 1212 1051 1212 1051 1200 931 c 0,58,59
 1191 844 1191 844 1124 787 c 128,-1,60
 1057 730 1057 730 934 692 c 1,61,-1
 697 614 l 1,62,-1
 680 457 l 2,63,64
 658 245 658 245 693 156 c 128,-1,65
 728 67 728 67 831 67 c 0,66,67
 860 67 860 67 882.5 71 c 128,-1,68
 905 75 905 75 932.5 90 c 128,-1,69
 960 105 960 105 979 131 c 128,-1,70
 998 157 998 157 1014.5 205 c 128,-1,71
 1031 253 1031 253 1038 318 c 2,72,-1
 1046 400 l 1,73,-1
 1154 400 l 1,74,-1
 1146 321 l 1,75,76
 1128 157 1128 157 1053.5 69 c 128,-1,77
 979 -19 979 -19 822 -19 c 0,78,79
 721 -19 721 -19 656 37 c 128,-1,80
 591 93 591 93 588 220 c 1,81,82
 557 132 557 132 500 75 c 128,-1,83
 443 18 443 18 387 -1.5 c 128,-1,84
 331 -21 331 -21 274 -19 c 0,29,30
EndSplineSet
EndChar

StartChar: eth
Encoding: 240 240 178
Width: 880
GlyphClass: 2
Flags: W
LayerCount: 2
Fore
SplineSet
408 66 m 0,0,1
 462 66 462 66 500.5 84.5 c 128,-1,2
 539 103 539 103 566.5 138 c 128,-1,3
 594 173 594 173 613 238.5 c 128,-1,4
 632 304 632 304 644.5 382 c 128,-1,5
 657 460 657 460 670 580 c 0,6,7
 678 654 678 654 686.5 820 c 128,-1,8
 695 986 695 986 693 1001 c 1,9,10
 655 1018 655 1018 636.5 1026 c 128,-1,11
 618 1034 618 1034 583 1043 c 128,-1,12
 548 1052 548 1052 517 1052 c 0,13,14
 439 1052 439 1052 384.5 1003 c 128,-1,15
 330 954 330 954 291 837 c 128,-1,16
 252 720 252 720 232 527 c 1,17,18
 206 290 206 290 249 178 c 128,-1,19
 292 66 292 66 408 66 c 0,0,1
395 -22 m 0,20,21
 277 -22 277 -22 209.5 37.5 c 128,-1,22
 142 97 142 97 122 200.5 c 128,-1,23
 102 304 102 304 119 457 c 2,24,-1
 136 618 l 2,25,26
 191 1139 191 1139 502 1139 c 0,27,28
 598 1139 598 1139 698 1084 c 1,29,30
 689 1284 689 1284 655 1364 c 1,31,-1
 440 1307 l 1,32,-1
 447 1375 l 1,33,-1
 631 1423 l 1,34,35
 598 1513 598 1513 515 1560 c 128,-1,36
 432 1607 432 1607 294 1620 c 1,37,-1
 308 1695 l 1,38,39
 469 1686 469 1686 572 1630.5 c 128,-1,40
 675 1575 675 1575 723 1452 c 1,41,-1
 893 1496 l 1,42,-1
 885 1427 l 1,43,-1
 744 1391 l 1,44,45
 761 1339 761 1339 775.5 1247 c 128,-1,46
 790 1155 790 1155 798 1001 c 128,-1,47
 806 847 806 847 786 679 c 1,48,-1
 768 508 l 2,49,50
 753 372 753 372 728.5 278 c 128,-1,51
 704 184 704 184 661.5 114 c 128,-1,52
 619 44 619 44 553.5 11 c 128,-1,53
 488 -22 488 -22 395 -22 c 0,20,21
EndSplineSet
EndChar

StartChar: divide
Encoding: 247 247 185
Width: 678
GlyphClass: 2
Flags: W
LayerCount: 2
Fore
SplineSet
361 1097 m 1,0,-1
 378 1258 l 1,1,-1
 480 1258 l 1,2,-1
 463 1097 l 1,3,-1
 361 1097 l 1,0,-1
104 812 m 1,4,-1
 114 900 l 1,5,-1
 669 900 l 1,6,-1
 659 812 l 1,7,-1
 104 812 l 1,4,-1
292 431 m 1,8,-1
 309 591 l 1,9,-1
 410 591 l 1,10,-1
 393 431 l 1,11,-1
 292 431 l 1,8,-1
EndSplineSet
EndChar

StartChar: oslash
Encoding: 248 248 186
Width: 784
GlyphClass: 2
Flags: W
LayerCount: 2
Fore
SplineSet
90 -134 m 1,0,-1
 51 -118 l 1,1,-1
 139 66 l 1,2,3
 101 120 101 120 91.5 214 c 128,-1,4
 82 308 82 308 97 432 c 1,5,-1
 131 752 l 2,6,7
 143 868 143 868 165 947.5 c 128,-1,8
 187 1027 187 1027 226.5 1087 c 128,-1,9
 266 1147 266 1147 327.5 1175 c 128,-1,10
 389 1203 389 1203 476 1203 c 0,11,12
 535 1203 535 1203 579 1190 c 128,-1,13
 623 1177 623 1177 654 1151 c 1,14,-1
 724 1298 l 1,15,-1
 766 1281 l 1,16,-1
 687 1115 l 1,17,18
 723 1061 723 1061 732.5 967.5 c 128,-1,19
 742 874 742 874 727 752 c 1,20,-1
 693 432 l 2,21,22
 668 197 668 197 592.5 89 c 128,-1,23
 517 -19 517 -19 347 -19 c 0,24,25
 231 -19 231 -19 170 32 c 1,26,-1
 90 -134 l 1,0,-1
356 63 m 0,27,28
 407 63 407 63 443.5 80 c 128,-1,29
 480 97 480 97 503.5 124.5 c 128,-1,30
 527 152 527 152 543 202 c 128,-1,31
 559 252 559 252 567.5 301.5 c 128,-1,32
 576 351 576 351 584 428 c 2,33,-1
 618 756 l 2,34,35
 634 914 634 914 624 984 c 1,36,-1
 218 133 l 1,37,38
 253 63 253 63 356 63 c 0,27,28
199 194 m 1,39,-1
 606 1049 l 1,40,41
 571 1121 571 1121 467 1121 c 0,42,43
 416 1121 416 1121 379.5 1104 c 128,-1,44
 343 1087 343 1087 319.5 1059 c 128,-1,45
 296 1031 296 1031 280 981.5 c 128,-1,46
 264 932 264 932 256 882 c 128,-1,47
 248 832 248 832 240 756 c 2,48,-1
 205 428 l 2,49,50
 188 265 188 265 199 194 c 1,39,-1
EndSplineSet
EndChar

StartChar: thorn
Encoding: 254 254 192
Width: 815
GlyphClass: 2
Flags: W
LayerCount: 2
Fore
SplineSet
395 66 m 0,0,1
 502 66 502 66 549.5 161 c 128,-1,2
 597 256 597 256 621 484 c 1,3,-1
 644 715 l 1,4,5
 668 939 668 939 642 1028.5 c 128,-1,6
 616 1118 616 1118 507 1118 c 0,7,8
 402 1118 402 1118 290 1008 c 1,9,-1
 202 173 l 1,10,11
 279 66 279 66 395 66 c 0,0,1
34 -390 m 1,12,-1
 249 1658 l 1,13,-1
 358 1658 l 1,14,-1
 298 1083 l 1,15,16
 403 1203 403 1203 538 1203 c 0,17,18
 643 1203 643 1203 697.5 1142 c 128,-1,19
 752 1081 752 1081 759.5 972.5 c 128,-1,20
 767 864 767 864 753 714 c 1,21,-1
 730 487 l 2,22,23
 703 227 703 227 628 104 c 128,-1,24
 553 -19 553 -19 399 -19 c 0,25,26
 277 -19 277 -19 195 98 c 1,27,-1
 143 -390 l 1,28,-1
 34 -390 l 1,12,-1
EndSplineSet
EndChar

StartChar: Dcroat
Encoding: 272 272 202
Width: 1060
GlyphClass: 2
Flags: W
LayerCount: 2
Fore
SplineSet
111 0 m 1,0,-1
 200 836 l 1,1,-1
 65 836 l 1,2,-1
 73 911 l 1,3,-1
 207 911 l 1,4,-1
 285 1658 l 1,5,-1
 650 1658 l 2,6,7
 769 1658 769 1658 850 1622 c 128,-1,8
 931 1586 931 1586 971 1519 c 128,-1,9
 1011 1452 1011 1452 1023 1370 c 128,-1,10
 1035 1288 1035 1288 1024 1182 c 2,11,-1
 952 494 l 2,12,13
 943 405 943 405 923 332.5 c 128,-1,14
 903 260 903 260 866.5 197 c 128,-1,15
 830 134 830 134 779 91.5 c 128,-1,16
 728 49 728 49 653.5 24.5 c 128,-1,17
 579 0 579 0 485 0 c 2,18,-1
 111 0 l 1,0,-1
233 88 m 1,19,-1
 489 88 l 2,20,21
 567 88 567 88 626 110.5 c 128,-1,22
 685 133 685 133 721.5 169 c 128,-1,23
 758 205 758 205 783 262 c 128,-1,24
 808 319 808 319 820 375 c 128,-1,25
 832 431 832 431 840 506 c 2,26,-1
 910 1173 l 1,27,28
 922 1264 922 1264 914.5 1337.5 c 128,-1,29
 907 1411 907 1411 879.5 1462.5 c 128,-1,30
 852 1514 852 1514 792 1541.5 c 128,-1,31
 732 1569 732 1569 639 1569 c 2,32,-1
 388 1569 l 1,33,-1
 319 911 l 1,34,-1
 511 911 l 1,35,-1
 503 836 l 1,36,-1
 312 836 l 1,37,-1
 233 88 l 1,19,-1
EndSplineSet
EndChar

StartChar: Eng
Encoding: 330 330 207
Width: 1101
GlyphClass: 2
Flags: W
LayerCount: 2
Fore
SplineSet
513 -288 m 1,0,-1
 520 -210 l 1,1,2
 612 -211 612 -211 661 -193 c 128,-1,3
 710 -175 710 -175 731 -138 c 128,-1,4
 752 -101 752 -101 759 -29 c 2,5,-1
 765 25 l 1,6,-1
 353 1403 l 1,7,-1
 206 0 l 1,8,-1
 110 0 l 1,9,-1
 284 1658 l 1,10,-1
 374 1658 l 1,11,-1
 792 258 l 1,12,-1
 939 1658 l 1,13,-1
 1034 1658 l 1,14,-1
 860 0 l 2,15,16
 845 -150 845 -150 783.5 -219 c 128,-1,17
 722 -288 722 -288 575 -288 c 2,18,-1
 513 -288 l 1,0,-1
EndSplineSet
EndChar

StartChar: Euro
Encoding: 8364 8364 209
Width: 985
GlyphClass: 2
Flags: W
LayerCount: 2
Fore
SplineSet
477 -22 m 0,0,1
 381 -22 381 -22 311.5 3.5 c 128,-1,2
 242 29 242 29 203 74 c 128,-1,3
 164 119 164 119 142.5 182 c 128,-1,4
 121 245 121 245 120 319.5 c 128,-1,5
 119 394 119 394 126 478 c 1,6,-1
 142 634 l 1,7,-1
 4 634 l 1,8,-1
 11 700 l 1,9,-1
 149 700 l 1,10,-1
 181 1004 l 1,11,-1
 43 1004 l 1,12,-1
 51 1070 l 1,13,-1
 188 1070 l 1,14,-1
 200 1181 l 2,15,16
 209 1271 209 1271 228 1343 c 128,-1,17
 247 1415 247 1415 282 1479 c 128,-1,18
 317 1543 317 1543 366.5 1585.5 c 128,-1,19
 416 1628 416 1628 489 1652.5 c 128,-1,20
 562 1677 562 1677 656 1677 c 0,21,22
 762 1677 762 1677 833.5 1643.5 c 128,-1,23
 905 1610 905 1610 940 1549 c 128,-1,24
 975 1488 975 1488 987 1402 c 128,-1,25
 999 1316 999 1316 986 1210 c 1,26,-1
 978 1139 l 1,27,-1
 872 1139 l 1,28,-1
 880 1211 l 1,29,30
 891 1299 891 1299 884.5 1368.5 c 128,-1,31
 878 1438 878 1438 854.5 1486.5 c 128,-1,32
 831 1535 831 1535 779.5 1560.5 c 128,-1,33
 728 1586 728 1586 648 1586 c 0,34,35
 560 1586 560 1586 498 1558.5 c 128,-1,36
 436 1531 436 1531 399 1476 c 128,-1,37
 362 1421 362 1421 343 1354.5 c 128,-1,38
 324 1288 324 1288 314 1194 c 2,39,-1
 301 1070 l 1,40,-1
 594 1070 l 1,41,-1
 587 1004 l 1,42,-1
 294 1004 l 1,43,-1
 262 700 l 1,44,-1
 555 700 l 1,45,-1
 548 634 l 1,46,-1
 255 634 l 1,47,-1
 237 460 l 1,48,49
 226 368 226 368 233 295.5 c 128,-1,50
 240 223 240 223 266 173 c 128,-1,51
 292 123 292 123 347.5 96.5 c 128,-1,52
 403 70 403 70 488 70 c 0,53,54
 568 70 568 70 625.5 96 c 128,-1,55
 683 122 683 122 717.5 174 c 128,-1,56
 752 226 752 226 770.5 290.5 c 128,-1,57
 789 355 789 355 799 446 c 2,58,-1
 808 533 l 1,59,-1
 914 533 l 1,60,-1
 907 464 l 2,61,62
 896 352 896 352 869.5 268 c 128,-1,63
 843 184 843 184 794 116 c 128,-1,64
 745 48 745 48 665.5 13 c 128,-1,65
 586 -22 586 -22 477 -22 c 0,0,1
EndSplineSet
EndChar

StartChar: Hbar
Encoding: 294 294 214
Width: 1109
GlyphClass: 2
Flags: W
LayerCount: 2
Fore
SplineSet
317 911 m 1,0,-1
 898 911 l 1,1,-1
 940 1311 l 1,2,-1
 360 1311 l 1,3,-1
 317 911 l 1,0,-1
109 0 m 1,4,-1
 247 1311 l 1,5,-1
 171 1311 l 1,6,-1
 178 1377 l 1,7,-1
 254 1377 l 1,8,-1
 283 1658 l 1,9,-1
 396 1658 l 1,10,-1
 366 1377 l 1,11,-1
 947 1377 l 1,12,-1
 976 1658 l 1,13,-1
 1088 1658 l 1,14,-1
 1059 1377 l 1,15,-1
 1136 1377 l 1,16,-1
 1129 1311 l 1,17,-1
 1052 1311 l 1,18,-1
 914 0 l 1,19,-1
 802 0 l 1,20,-1
 889 826 l 1,21,-1
 309 826 l 1,22,-1
 222 0 l 1,23,-1
 109 0 l 1,4,-1
EndSplineSet
EndChar

StartChar: Lslash
Encoding: 321 321 227
Width: 764
GlyphClass: 2
Flags: W
LayerCount: 2
Fore
SplineSet
110 0 m 1,0,-1
 197 835 l 1,1,-1
 44 759 l 1,2,-1
 53 850 l 1,3,-1
 207 926 l 1,4,-1
 284 1658 l 1,5,-1
 396 1658 l 1,6,-1
 326 986 l 1,7,-1
 589 1115 l 1,8,-1
 579 1024 l 1,9,-1
 317 895 l 1,10,-1
 232 88 l 1,11,-1
 732 88 l 1,12,-1
 723 0 l 1,13,-1
 110 0 l 1,0,-1
EndSplineSet
EndChar

StartChar: OE
Encoding: 338 338 231
Width: 1270
GlyphClass: 2
Flags: W
LayerCount: 2
Fore
SplineSet
515 94 m 2,0,-1
 660 94 l 1,1,-1
 815 1567 l 1,2,-1
 668 1567 l 2,3,4
 574 1567 574 1567 508 1540.5 c 128,-1,5
 442 1514 442 1514 402.5 1460 c 128,-1,6
 363 1406 363 1406 342 1338.5 c 128,-1,7
 321 1271 321 1271 311 1176 c 2,8,-1
 237 468 l 1,9,10
 226 382 226 382 235 313 c 128,-1,11
 244 244 244 244 272.5 195.5 c 128,-1,12
 301 147 301 147 361.5 120.5 c 128,-1,13
 422 94 422 94 515 94 c 2,0,-1
503 0 m 2,14,15
 405 0 405 0 333 23 c 128,-1,16
 261 46 261 46 218 87.5 c 128,-1,17
 175 129 175 129 149.5 187.5 c 128,-1,18
 124 246 124 246 121 316.5 c 128,-1,19
 118 387 118 387 125 468 c 1,20,-1
 200 1182 l 2,21,22
 211 1291 211 1291 242 1375.5 c 128,-1,23
 273 1460 273 1460 327.5 1525 c 128,-1,24
 382 1590 382 1590 469 1624 c 128,-1,25
 556 1658 556 1658 672 1658 c 2,26,-1
 1339 1658 l 1,27,-1
 1329 1566 l 1,28,-1
 926 1566 l 1,29,-1
 856 911 l 1,30,-1
 1193 911 l 1,31,-1
 1185 824 l 1,32,-1
 848 824 l 1,33,-1
 771 92 l 1,34,-1
 1176 92 l 1,35,-1
 1166 0 l 1,36,-1
 503 0 l 2,14,15
EndSplineSet
EndChar

StartChar: Pi
Encoding: 928 928 235
Width: 1148
GlyphClass: 2
Flags: W
LayerCount: 2
Fore
SplineSet
109 0 m 1,0,-1
 283 1658 l 1,1,-1
 1128 1658 l 1,2,-1
 954 0 l 1,3,-1
 845 0 l 1,4,-1
 1010 1573 l 1,5,-1
 384 1573 l 1,6,-1
 218 0 l 1,7,-1
 109 0 l 1,0,-1
EndSplineSet
EndChar

StartChar: Tbar
Encoding: 358 358 244
Width: 779
GlyphClass: 2
Flags: W
LayerCount: 2
Fore
SplineSet
121 854 m 1,0,-1
 129 929 l 1,1,-1
 392 929 l 1,2,-1
 459 1569 l 1,3,-1
 108 1569 l 1,4,-1
 118 1658 l 1,5,-1
 925 1658 l 1,6,-1
 915 1569 l 1,7,-1
 571 1569 l 1,8,-1
 504 929 l 1,9,-1
 728 929 l 1,10,-1
 721 854 l 1,11,-1
 496 854 l 1,12,-1
 407 0 l 1,13,-1
 294 0 l 1,14,-1
 384 854 l 1,15,-1
 121 854 l 1,0,-1
EndSplineSet
EndChar

StartChar: acutecomb
Encoding: 769 769 264
Width: 268
GlyphClass: 2
Flags: W
LayerCount: 2
Fore
SplineSet
131 1261 m 1,0,-1
 305 1658 l 1,1,-1
 414 1658 l 1,2,-1
 189 1261 l 1,3,-1
 131 1261 l 1,0,-1
EndSplineSet
EndChar

StartChar: afii10018
Encoding: 1041 1041 266
Width: 962
GlyphClass: 2
Flags: W
LayerCount: 2
Fore
SplineSet
231 91 m 1,0,-1
 420 91 l 2,1,2
 596 91 596 91 680 185 c 128,-1,3
 764 279 764 279 784 472 c 0,4,5
 805 667 805 667 740.5 767.5 c 128,-1,6
 676 868 676 868 501 868 c 2,7,-1
 313 868 l 1,8,-1
 231 91 l 1,0,-1
109 0 m 1,9,-1
 283 1658 l 1,10,-1
 922 1658 l 1,11,-1
 913 1573 l 1,12,-1
 387 1573 l 1,13,-1
 322 959 l 1,14,-1
 504 959 l 2,15,16
 731 959 731 959 827 837.5 c 128,-1,17
 923 716 923 716 897 470 c 0,18,19
 886 363 886 363 853 279.5 c 128,-1,20
 820 196 820 196 762.5 132 c 128,-1,21
 705 68 705 68 615.5 34 c 128,-1,22
 526 0 526 0 408 0 c 2,23,-1
 109 0 l 1,9,-1
EndSplineSet
EndChar

StartChar: afii10019
Encoding: 1042 1042 267
Width: 1000
GlyphClass: 2
Flags: W
LayerCount: 2
Fore
SplineSet
320 931 m 1,0,-1
 599 931 l 2,1,2
 666 931 666 931 715 955 c 128,-1,3
 764 979 764 979 794 1024.5 c 128,-1,4
 824 1070 824 1070 840 1123 c 128,-1,5
 856 1176 856 1176 864 1245 c 1,6,7
 874 1314 874 1314 866 1373.5 c 128,-1,8
 858 1433 858 1433 832.5 1476.5 c 128,-1,9
 807 1520 807 1520 746.5 1544.5 c 128,-1,10
 686 1569 686 1569 592 1569 c 2,11,-1
 387 1569 l 1,12,-1
 320 931 l 1,0,-1
232 88 m 1,13,-1
 498 88 l 2,14,15
 580 88 580 88 636 111 c 128,-1,16
 692 134 692 134 728 185 c 128,-1,17
 764 236 764 236 783.5 306 c 128,-1,18
 803 376 803 376 814 482 c 0,19,20
 851 843 851 843 592 843 c 2,21,-1
 311 843 l 1,22,-1
 232 88 l 1,13,-1
110 0 m 1,23,-1
 284 1658 l 1,24,-1
 626 1658 l 2,25,26
 715 1658 715 1658 781 1637 c 128,-1,27
 847 1616 847 1616 885 1578.5 c 128,-1,28
 923 1541 923 1541 945.5 1489.5 c 128,-1,29
 968 1438 968 1438 970 1376.5 c 128,-1,30
 972 1315 972 1315 967 1245 c 1,31,32
 961 1189 961 1189 947.5 1138.5 c 128,-1,33
 934 1088 934 1088 908.5 1036 c 128,-1,34
 883 984 883 984 838.5 946 c 128,-1,35
 794 908 794 908 736 894 c 1,36,37
 790 878 790 878 829 843.5 c 128,-1,38
 868 809 868 809 887.5 767 c 128,-1,39
 907 725 907 725 918 675 c 128,-1,40
 929 625 929 625 927.5 577 c 128,-1,41
 926 529 926 529 923 483 c 1,42,43
 914 400 914 400 900 336 c 128,-1,44
 886 272 886 272 855.5 206 c 128,-1,45
 825 140 825 140 781 97 c 128,-1,46
 737 54 737 54 666.5 27 c 128,-1,47
 596 0 596 0 503 0 c 2,48,-1
 110 0 l 1,23,-1
EndSplineSet
EndChar

StartChar: afii10020
Encoding: 1043 1043 268
Width: 755
GlyphClass: 2
Flags: W
LayerCount: 2
Fore
SplineSet
110 0 m 1,0,-1
 284 1658 l 1,1,-1
 848 1658 l 1,2,-1
 838 1569 l 1,3,-1
 387 1569 l 1,4,-1
 222 0 l 1,5,-1
 110 0 l 1,0,-1
EndSplineSet
EndChar

StartChar: afii10021
Encoding: 1044 1044 269
Width: 1156
GlyphClass: 2
Flags: W
LayerCount: 2
Fore
SplineSet
170 87 m 1,0,-1
 829 87 l 1,1,-1
 985 1572 l 1,2,-1
 616 1572 l 1,3,-1
 524 1073 l 2,4,5
 498 930 498 930 474 813.5 c 128,-1,6
 450 697 450 697 430.5 609 c 128,-1,7
 411 521 411 521 389.5 450 c 128,-1,8
 368 379 368 379 353.5 331.5 c 128,-1,9
 339 284 339 284 318 245.5 c 128,-1,10
 297 207 297 207 284.5 186 c 128,-1,11
 272 165 272 165 249.5 144.5 c 128,-1,12
 227 124 227 124 215.5 116 c 128,-1,13
 204 108 204 108 178 92 c 0,14,15
 173 89 173 89 170 87 c 1,0,-1
-53 -275 m 1,16,-1
 -15 87 l 1,17,-1
 43 87 l 1,18,19
 118 130 118 130 148 161 c 0,20,21
 220 234 220 234 279 435 c 0,22,23
 339 643 339 643 421 1094 c 2,24,-1
 523 1658 l 1,25,-1
 1106 1658 l 1,26,-1
 941 87 l 1,27,-1
 1062 87 l 1,28,-1
 1024 -275 l 1,29,-1
 934 -275 l 1,30,-1
 951 0 l 1,31,-1
 77 0 l 1,32,-1
 37 -275 l 1,33,-1
 -53 -275 l 1,16,-1
EndSplineSet
EndChar

StartChar: afii10024
Encoding: 1046 1046 272
Width: 1258
GlyphClass: 2
Flags: W
LayerCount: 2
Fore
SplineSet
1 0 m 1,0,-1
 519 866 l 1,1,-1
 214 1658 l 1,2,-1
 321 1658 l 1,3,-1
 611 873 l 1,4,-1
 627 873 l 1,5,-1
 709 1658 l 1,6,-1
 811 1658 l 1,7,-1
 729 873 l 1,8,-1
 744 873 l 1,9,-1
 1199 1658 l 1,10,-1
 1307 1658 l 1,11,-1
 836 866 l 1,12,-1
 1172 0 l 1,13,-1
 1061 0 l 1,14,-1
 747 844 l 1,15,-1
 726 844 l 1,16,-1
 637 0 l 1,17,-1
 535 0 l 1,18,-1
 624 844 l 1,19,-1
 602 844 l 1,20,-1
 111 0 l 1,21,-1
 1 0 l 1,0,-1
EndSplineSet
EndChar

StartChar: afii10025
Encoding: 1047 1047 273
Width: 942
GlyphClass: 2
Flags: W
LayerCount: 2
Fore
SplineSet
441 -22 m 0,0,1
 95 -22 95 -22 135 368 c 1,2,-1
 138 399 l 1,3,-1
 241 399 l 1,4,5
 237 379 237 379 237 361 c 1,6,7
 223 215 223 215 274.5 140.5 c 128,-1,8
 326 66 326 66 451 66 c 0,9,10
 512 66 512 66 561 83.5 c 128,-1,11
 610 101 610 101 652.5 142 c 128,-1,12
 695 183 695 183 723.5 258 c 128,-1,13
 752 333 752 333 763 440 c 0,14,15
 802 814 802 814 515 821 c 1,16,-1
 411 821 l 1,17,-1
 420 904 l 1,18,-1
 523 904 l 1,19,20
 678 906 678 906 754.5 994.5 c 128,-1,21
 831 1083 831 1083 850 1270 c 0,22,23
 884 1590 884 1590 628 1590 c 0,24,25
 492 1590 492 1590 416.5 1521 c 128,-1,26
 341 1452 341 1452 322 1294 c 0,27,28
 322 1292 322 1292 320.5 1279 c 128,-1,29
 319 1266 319 1266 319 1264 c 1,30,-1
 216 1264 l 1,31,-1
 218 1291 l 1,32,33
 260 1677 260 1677 634 1677 c 0,34,35
 817 1677 817 1677 899 1564 c 128,-1,36
 981 1451 981 1451 962 1268 c 0,37,38
 943 1089 943 1089 865.5 986.5 c 128,-1,39
 788 884 788 884 678 862 c 1,40,41
 720 852 720 852 756.5 825.5 c 128,-1,42
 793 799 793 799 825.5 751.5 c 128,-1,43
 858 704 858 704 872 624.5 c 128,-1,44
 886 545 886 545 876 443 c 0,45,46
 853 226 853 226 746.5 102 c 128,-1,47
 640 -22 640 -22 441 -22 c 0,0,1
EndSplineSet
EndChar

StartChar: afii10026
Encoding: 1048 1048 274
Width: 1064
GlyphClass: 2
Flags: W
LayerCount: 2
Fore
SplineSet
109 0 m 1,0,-1
 283 1658 l 1,1,-1
 383 1658 l 1,2,-1
 235 245 l 1,3,-1
 951 1658 l 1,4,-1
 1044 1658 l 1,5,-1
 870 0 l 1,6,-1
 769 0 l 1,7,-1
 918 1413 l 1,8,-1
 204 0 l 1,9,-1
 109 0 l 1,0,-1
EndSplineSet
EndChar

StartChar: afii10028
Encoding: 1050 1050 276
Width: 960
GlyphClass: 2
Flags: W
LayerCount: 2
Fore
SplineSet
109 0 m 1,0,-1
 283 1658 l 1,1,-1
 396 1658 l 1,2,-1
 314 881 l 1,3,-1
 452 881 l 1,4,-1
 897 1658 l 1,5,-1
 1011 1658 l 1,6,-1
 547 854 l 1,7,-1
 901 0 l 1,8,-1
 787 0 l 1,9,-1
 446 815 l 1,10,-1
 307 815 l 1,11,-1
 222 0 l 1,12,-1
 109 0 l 1,0,-1
EndSplineSet
EndChar

StartChar: afii10029
Encoding: 1051 1051 277
Width: 1141
GlyphClass: 2
Flags: W
LayerCount: 2
Fore
SplineSet
8 -5 m 1,0,-1
 17 84 l 1,1,2
 113 90 113 90 148 108 c 0,3,4
 205 136 205 136 243 239 c 0,5,6
 288 358 288 358 367 776 c 0,7,8
 384 863 384 863 417 1041 c 2,9,-1
 528 1658 l 1,10,-1
 1121 1658 l 1,11,-1
 947 0 l 1,12,-1
 834 0 l 1,13,-1
 1000 1572 l 1,14,-1
 622 1572 l 1,15,-1
 526 1040 l 1,16,17
 426 511 426 511 391 374 c 0,18,19
 337 158 337 158 269 82 c 1,20,21
 211 15 211 15 98 1 c 0,22,23
 60 -4 60 -4 8 -5 c 1,0,-1
EndSplineSet
EndChar

StartChar: afii10030
Encoding: 1052 1052 278
Width: 1294
GlyphClass: 2
Flags: W
LayerCount: 2
Fore
SplineSet
90 0 m 1,0,-1
 314 1658 l 1,1,-1
 418 1658 l 1,2,-1
 621 182 l 1,3,-1
 1135 1658 l 1,4,-1
 1246 1658 l 1,5,-1
 1119 0 l 1,6,-1
 1024 0 l 1,7,-1
 1128 1366 l 1,8,-1
 644 0 l 1,9,-1
 562 0 l 1,10,-1
 368 1362 l 1,11,-1
 186 0 l 1,12,-1
 90 0 l 1,0,-1
EndSplineSet
EndChar

StartChar: afii10033
Encoding: 1055 1055 281
Width: 1116
GlyphClass: 2
Flags: W
LayerCount: 2
Fore
SplineSet
110 0 m 1,0,-1
 284 1658 l 1,1,-1
 1094 1658 l 1,2,-1
 920 0 l 1,3,-1
 808 0 l 1,4,-1
 974 1573 l 1,5,-1
 388 1573 l 1,6,-1
 222 0 l 1,7,-1
 110 0 l 1,0,-1
EndSplineSet
EndChar

StartChar: afii10034
Encoding: 1056 1056 282
Width: 977
GlyphClass: 2
Flags: W
LayerCount: 2
Fore
SplineSet
315 879 m 1,0,-1
 570 879 l 2,1,2
 723 879 723 879 802 959.5 c 128,-1,3
 881 1040 881 1040 901 1230 c 0,4,5
 922 1427 922 1427 865 1499.5 c 128,-1,6
 808 1572 808 1572 645 1572 c 2,7,-1
 388 1572 l 1,8,-1
 315 879 l 1,0,-1
110 0 m 1,9,-1
 284 1658 l 1,10,-1
 674 1658 l 2,11,12
 783 1658 783 1658 856.5 1626.5 c 128,-1,13
 930 1595 930 1595 966.5 1535.5 c 128,-1,14
 1003 1476 1003 1476 1014 1401.5 c 128,-1,15
 1025 1327 1025 1327 1015 1230 c 0,16,17
 1006 1142 1006 1142 979 1068 c 128,-1,18
 952 994 952 994 903 929.5 c 128,-1,19
 854 865 854 865 773 828.5 c 128,-1,20
 692 792 692 792 585 792 c 2,21,-1
 306 792 l 1,22,-1
 222 0 l 1,23,-1
 110 0 l 1,9,-1
EndSplineSet
EndChar

StartChar: afii10037
Encoding: 1059 1059 285
Width: 926
GlyphClass: 2
Flags: W
LayerCount: 2
Fore
SplineSet
62 -190 m 1,0,-1
 73 -102 l 1,1,2
 125 -103 125 -103 162.5 -101 c 128,-1,3
 200 -99 200 -99 232 -90.5 c 128,-1,4
 264 -82 264 -82 285 -73 c 128,-1,5
 306 -64 306 -64 325 -42 c 128,-1,6
 344 -20 344 -20 355 -0.5 c 128,-1,7
 366 19 366 19 378.5 58.5 c 128,-1,8
 391 98 391 98 398.5 131 c 128,-1,9
 406 164 406 164 419 223 c 1,10,-1
 199 1658 l 1,11,-1
 310 1658 l 1,12,-1
 418 892 l 1,13,-1
 488 354 l 1,14,-1
 657 896 l 1,15,-1
 902 1658 l 1,16,-1
 1014 1658 l 1,17,-1
 533 214 l 1,18,19
 472 24 472 24 444 -32 c 0,20,21
 398 -123 398 -123 324 -157 c 0,22,23
 242 -194 242 -194 62 -190 c 1,0,-1
EndSplineSet
EndChar

StartChar: afii10038
Encoding: 1060 1060 286
Width: 1215
GlyphClass: 2
Flags: W
LayerCount: 2
Fore
SplineSet
732 256 m 1,0,1
 864 253 864 253 928 335 c 128,-1,2
 992 417 992 417 1011 595 c 2,3,-1
 1062 1079 l 2,4,5
 1081 1262 1081 1262 1032.5 1352 c 128,-1,6
 984 1442 984 1442 849 1440 c 0,7,8
 818 1440 818 1440 770 1436 c 1,9,-1
 646 260 l 1,10,11
 681 256 681 256 732 256 c 1,0,1
451 256 m 1,12,13
 497 256 497 256 534 260 c 1,14,-1
 657 1436 l 1,15,16
 626 1440 626 1440 584 1440 c 0,17,18
 449 1442 449 1442 382 1352 c 128,-1,19
 315 1262 315 1262 296 1079 c 2,20,-1
 245 595 l 2,21,22
 226 416 226 416 272.5 334.5 c 128,-1,23
 319 253 319 253 451 256 c 1,12,13
494 -114 m 1,24,-1
 525 184 l 1,25,26
 469 180 469 180 427 180 c 1,27,28
 260 175 260 175 188 278 c 128,-1,29
 116 381 116 381 138 595 c 2,30,-1
 189 1079 l 2,31,32
 212 1298 212 1298 311.5 1408 c 128,-1,33
 411 1518 411 1518 585 1515 c 0,34,35
 632 1515 632 1515 665 1512 c 1,36,-1
 696 1808 l 1,37,-1
 809 1808 l 1,38,-1
 778 1513 l 1,39,40
 830 1517 830 1517 873 1517 c 0,41,42
 1043 1520 1043 1520 1117 1409 c 128,-1,43
 1191 1298 1191 1298 1168 1079 c 2,44,-1
 1117 595 l 2,45,46
 1095 382 1095 382 1000.5 278.5 c 128,-1,47
 906 175 906 175 741 180 c 1,48,49
 685 180 685 180 638 185 c 1,50,-1
 606 -114 l 1,51,-1
 494 -114 l 1,24,-1
EndSplineSet
EndChar

StartChar: afii10040
Encoding: 1062 1062 288
Width: 1137
GlyphClass: 2
Flags: W
LayerCount: 2
Fore
SplineSet
919 -275 m 1,0,-1
 936 0 l 1,1,-1
 109 0 l 1,2,-1
 283 1658 l 1,3,-1
 396 1658 l 1,4,-1
 230 85 l 1,5,-1
 820 85 l 1,6,-1
 985 1658 l 1,7,-1
 1098 1658 l 1,8,-1
 932 85 l 1,9,-1
 1047 85 l 1,10,-1
 1009 -275 l 1,11,-1
 919 -275 l 1,0,-1
EndSplineSet
EndChar

StartChar: afii10041
Encoding: 1063 1063 289
Width: 1034
GlyphClass: 2
Flags: W
LayerCount: 2
Fore
SplineSet
726 0 m 1,0,-1
 807 771 l 1,1,2
 674 734 674 734 559 734 c 0,3,4
 361 734 361 734 263.5 819 c 128,-1,5
 166 904 166 904 185 1091 c 2,6,-1
 244 1658 l 1,7,-1
 350 1658 l 1,8,-1
 291 1092 l 2,9,10
 282 1010 282 1010 300.5 954 c 128,-1,11
 319 898 319 898 362 869 c 128,-1,12
 405 840 405 840 458 828 c 128,-1,13
 511 816 511 816 584 816 c 0,14,15
 710 816 710 816 816 853 c 1,16,-1
 900 1658 l 1,17,-1
 1012 1658 l 1,18,-1
 838 0 l 1,19,-1
 726 0 l 1,0,-1
EndSplineSet
EndChar

StartChar: afii10042
Encoding: 1064 1064 290
Width: 1437
GlyphClass: 2
Flags: W
LayerCount: 2
Fore
SplineSet
110 0 m 1,0,-1
 284 1658 l 1,1,-1
 396 1658 l 1,2,-1
 231 85 l 1,3,-1
 636 85 l 1,4,-1
 801 1658 l 1,5,-1
 914 1658 l 1,6,-1
 748 85 l 1,7,-1
 1138 85 l 1,8,-1
 1303 1658 l 1,9,-1
 1415 1658 l 1,10,-1
 1241 0 l 1,11,-1
 110 0 l 1,0,-1
EndSplineSet
EndChar

StartChar: afii10043
Encoding: 1065 1065 291
Width: 1458
GlyphClass: 2
Flags: W
LayerCount: 2
Fore
SplineSet
1240 -275 m 1,0,-1
 1256 0 l 1,1,-1
 109 0 l 1,2,-1
 283 1658 l 1,3,-1
 396 1658 l 1,4,-1
 230 85 l 1,5,-1
 635 85 l 1,6,-1
 801 1658 l 1,7,-1
 913 1658 l 1,8,-1
 748 85 l 1,9,-1
 1139 85 l 1,10,-1
 1304 1658 l 1,11,-1
 1416 1658 l 1,12,-1
 1251 85 l 1,13,-1
 1368 85 l 1,14,-1
 1330 -275 l 1,15,-1
 1240 -275 l 1,0,-1
EndSplineSet
EndChar

StartChar: afii10044
Encoding: 1066 1066 292
Width: 1109
GlyphClass: 2
Flags: W
LayerCount: 2
Fore
SplineSet
397 91 m 1,0,-1
 589 91 l 2,1,2
 765 91 765 91 849 185 c 128,-1,3
 933 279 933 279 954 472 c 1,4,5
 974 667 974 667 909.5 767.5 c 128,-1,6
 845 868 845 868 670 868 c 2,7,-1
 478 868 l 1,8,-1
 397 91 l 1,0,-1
275 0 m 1,9,-1
 440 1570 l 1,10,-1
 136 1570 l 1,11,-1
 145 1658 l 1,12,-1
 561 1658 l 1,13,-1
 488 959 l 1,14,-1
 673 959 l 2,15,16
 901 959 901 959 996.5 837.5 c 128,-1,17
 1092 716 1092 716 1066 470 c 0,18,19
 1055 363 1055 363 1022 279.5 c 128,-1,20
 989 196 989 196 931.5 132 c 128,-1,21
 874 68 874 68 784.5 34 c 128,-1,22
 695 0 695 0 577 0 c 2,23,-1
 275 0 l 1,9,-1
EndSplineSet
EndChar

StartChar: afii10045
Encoding: 1067 1067 293
Width: 1371
GlyphClass: 2
Flags: W
LayerCount: 2
Fore
SplineSet
1064 0 m 1,0,-1
 1238 1658 l 1,1,-1
 1351 1658 l 1,2,-1
 1177 0 l 1,3,-1
 1064 0 l 1,0,-1
231 91 m 1,4,-1
 424 91 l 2,5,6
 600 91 600 91 684 185 c 128,-1,7
 768 279 768 279 788 472 c 0,8,9
 809 667 809 667 744.5 767.5 c 128,-1,10
 680 868 680 868 504 868 c 2,11,-1
 313 868 l 1,12,-1
 231 91 l 1,4,-1
109 0 m 1,13,-1
 283 1658 l 1,14,-1
 396 1658 l 1,15,-1
 322 959 l 1,16,-1
 508 959 l 2,17,18
 735 959 735 959 831 837.5 c 128,-1,19
 927 716 927 716 901 470 c 0,20,21
 878 250 878 250 759.5 125 c 128,-1,22
 641 0 641 0 411 0 c 2,23,-1
 109 0 l 1,13,-1
EndSplineSet
EndChar

StartChar: afii10046
Encoding: 1068 1068 294
Width: 945
GlyphClass: 2
Flags: W
LayerCount: 2
Fore
SplineSet
232 91 m 1,0,-1
 424 91 l 2,1,2
 600 91 600 91 684.5 185 c 128,-1,3
 769 279 769 279 789 472 c 0,4,5
 810 667 810 667 745.5 767.5 c 128,-1,6
 681 868 681 868 505 868 c 2,7,-1
 314 868 l 1,8,-1
 232 91 l 1,0,-1
110 0 m 1,9,-1
 284 1658 l 1,10,-1
 396 1658 l 1,11,-1
 323 959 l 1,12,-1
 509 959 l 2,13,14
 736 959 736 959 831.5 837.5 c 128,-1,15
 927 716 927 716 901 470 c 1,16,17
 879 250 879 250 760.5 125 c 128,-1,18
 642 0 642 0 412 0 c 2,19,-1
 110 0 l 1,9,-1
EndSplineSet
EndChar

StartChar: afii10047
Encoding: 1069 1069 295
Width: 1020
GlyphClass: 2
Flags: W
LayerCount: 2
Fore
SplineSet
453 -16 m 0,0,1
 347 -16 347 -16 275.5 17.5 c 128,-1,2
 204 51 204 51 169 112 c 128,-1,3
 134 173 134 173 122 259 c 128,-1,4
 110 345 110 345 123 451 c 2,5,-1
 131 521 l 1,6,-1
 237 521 l 1,7,-1
 229 450 l 1,8,9
 218 362 218 362 224.5 292.5 c 128,-1,10
 231 223 231 223 255 174.5 c 128,-1,11
 279 126 279 126 330.5 100.5 c 128,-1,12
 382 75 382 75 462 75 c 0,13,14
 550 75 550 75 612 102.5 c 128,-1,15
 674 130 674 130 710.5 185 c 128,-1,16
 747 240 747 240 766 306.5 c 128,-1,17
 785 373 785 373 795 467 c 2,18,-1
 832 816 l 1,19,-1
 440 816 l 1,20,-1
 448 896 l 1,21,-1
 840 896 l 1,22,-1
 872 1201 l 2,23,24
 893 1397 893 1397 839 1494 c 128,-1,25
 785 1591 785 1591 621 1591 c 0,26,27
 540 1591 540 1591 483 1565 c 128,-1,28
 426 1539 426 1539 391.5 1487 c 128,-1,29
 357 1435 357 1435 338.5 1370.5 c 128,-1,30
 320 1306 320 1306 310 1215 c 2,31,-1
 301 1131 l 1,32,-1
 195 1131 l 1,33,-1
 202 1197 l 2,34,35
 214 1309 214 1309 240.5 1393 c 128,-1,36
 267 1477 267 1477 315.5 1545 c 128,-1,37
 364 1613 364 1613 443 1648 c 128,-1,38
 522 1683 522 1683 631 1683 c 0,39,40
 727 1683 727 1683 796.5 1657.5 c 128,-1,41
 866 1632 866 1632 905 1587 c 128,-1,42
 944 1542 944 1542 966.5 1479 c 128,-1,43
 989 1416 989 1416 989.5 1341.5 c 128,-1,44
 990 1267 990 1267 983 1183 c 1,45,-1
 909 481 l 2,46,47
 900 391 900 391 881 319 c 128,-1,48
 862 247 862 247 827 182.5 c 128,-1,49
 792 118 792 118 742.5 75.5 c 128,-1,50
 693 33 693 33 620 8.5 c 128,-1,51
 547 -16 547 -16 453 -16 c 0,0,1
EndSplineSet
EndChar

StartChar: afii10048
Encoding: 1070 1070 296
Width: 1368
GlyphClass: 2
Flags: W
LayerCount: 2
Fore
SplineSet
811 70 m 0,0,1
 897 70 897 70 959.5 96.5 c 128,-1,2
 1022 123 1022 123 1060 175 c 128,-1,3
 1098 227 1098 227 1119 292.5 c 128,-1,4
 1140 358 1140 358 1149 447 c 2,5,-1
 1229 1212 l 1,6,7
 1240 1296 1240 1296 1231.5 1365 c 128,-1,8
 1223 1434 1223 1434 1196 1483 c 128,-1,9
 1169 1532 1169 1532 1111.5 1559 c 128,-1,10
 1054 1586 1054 1586 967 1586 c 0,11,12
 800 1586 800 1586 722.5 1490.5 c 128,-1,13
 645 1395 645 1395 626 1212 c 2,14,-1
 546 447 l 1,15,16
 535 363 535 363 543.5 293.5 c 128,-1,17
 552 224 552 224 579 174.5 c 128,-1,18
 606 125 606 125 664.5 97.5 c 128,-1,19
 723 70 723 70 811 70 c 0,0,1
798 -22 m 0,20,21
 704 -22 704 -22 635 2 c 128,-1,22
 566 26 566 26 526 70 c 128,-1,23
 486 114 486 114 463 176 c 128,-1,24
 440 238 440 238 438 312.5 c 128,-1,25
 436 387 436 387 443 473 c 1,26,-1
 477 791 l 1,27,-1
 301 791 l 1,28,-1
 218 0 l 1,29,-1
 110 0 l 1,30,-1
 284 1658 l 1,31,-1
 392 1658 l 1,32,-1
 310 882 l 1,33,-1
 486 882 l 1,34,-1
 519 1193 l 2,35,36
 531 1305 531 1305 560.5 1390 c 128,-1,37
 590 1475 590 1475 642.5 1541 c 128,-1,38
 695 1607 695 1607 779 1642 c 128,-1,39
 863 1677 863 1677 976 1677 c 128,-1,40
 1089 1677 1089 1677 1166.5 1640.5 c 128,-1,41
 1244 1604 1244 1604 1281.5 1539.5 c 128,-1,42
 1319 1475 1319 1475 1333 1386 c 128,-1,43
 1347 1297 1347 1297 1333 1192 c 1,44,-1
 1257 470 l 2,45,46
 1245 358 1245 358 1216.5 273 c 128,-1,47
 1188 188 1188 188 1136 119 c 128,-1,48
 1084 50 1084 50 999 14 c 128,-1,49
 914 -22 914 -22 798 -22 c 0,20,21
EndSplineSet
EndChar

StartChar: afii10049
Encoding: 1071 1071 297
Width: 1079
GlyphClass: 2
Flags: W
LayerCount: 2
Fore
SplineSet
615 809 m 2,0,-1
 857 809 l 1,1,-1
 937 1571 l 1,2,-1
 691 1571 l 2,3,4
 534 1571 534 1571 445 1486 c 128,-1,5
 356 1401 356 1401 336 1214 c 0,6,7
 314 1008 314 1008 378.5 908.5 c 128,-1,8
 443 809 443 809 615 809 c 2,0,-1
6 0 m 1,9,-1
 414 755 l 1,10,11
 298 800 298 800 253 921 c 128,-1,12
 208 1042 208 1042 226 1215 c 0,13,14
 234 1289 234 1289 253 1351.5 c 128,-1,15
 272 1414 272 1414 308.5 1472 c 128,-1,16
 345 1530 345 1530 396.5 1570 c 128,-1,17
 448 1610 448 1610 524.5 1634 c 128,-1,18
 601 1658 601 1658 697 1658 c 2,19,-1
 1058 1658 l 1,20,-1
 884 0 l 1,21,-1
 772 0 l 1,22,-1
 847 722 l 1,23,-1
 592 722 l 2,24,25
 555 722 555 722 511 728 c 1,26,-1
 129 0 l 1,27,-1
 6 0 l 1,9,-1
EndSplineSet
EndChar

StartChar: afii10051
Encoding: 1026 1026 298
Width: 992
GlyphClass: 2
Flags: W
LayerCount: 2
Fore
SplineSet
207 0 m 1,0,-1
 372 1569 l 1,1,-1
 68 1569 l 1,2,-1
 78 1658 l 1,3,-1
 812 1658 l 1,4,-1
 802 1569 l 1,5,-1
 482 1569 l 1,6,-1
 412 895 l 1,7,8
 453 933 453 933 518.5 956 c 128,-1,9
 584 979 584 979 653 979 c 0,10,11
 711 979 711 979 762 961.5 c 128,-1,12
 813 944 813 944 853.5 908.5 c 128,-1,13
 894 873 894 873 914 810.5 c 128,-1,14
 934 748 934 748 925 666 c 2,15,-1
 895 377 l 2,16,17
 875 183 875 183 772.5 91.5 c 128,-1,18
 670 0 670 0 482 0 c 2,19,-1
 464 0 l 1,20,-1
 473 86 l 1,21,22
 629 86 629 86 699.5 158 c 128,-1,23
 770 230 770 230 786 379 c 2,24,-1
 816 669 l 2,25,26
 828 778 828 778 774.5 836.5 c 128,-1,27
 721 895 721 895 626 895 c 0,28,29
 510 895 510 895 404 820 c 1,30,-1
 318 0 l 1,31,-1
 207 0 l 1,0,-1
EndSplineSet
EndChar

StartChar: afii10053
Encoding: 1028 1028 300
Width: 988
GlyphClass: 2
Flags: W
LayerCount: 2
Fore
SplineSet
477 -22 m 0,0,1
 381 -22 381 -22 311.5 3.5 c 128,-1,2
 242 29 242 29 203 74 c 128,-1,3
 164 119 164 119 142.5 182 c 128,-1,4
 121 245 121 245 120 319.5 c 128,-1,5
 119 394 119 394 126 478 c 1,6,-1
 200 1181 l 2,7,8
 209 1271 209 1271 228 1343 c 128,-1,9
 247 1415 247 1415 282 1479 c 128,-1,10
 317 1543 317 1543 366.5 1585.5 c 128,-1,11
 416 1628 416 1628 489 1652.5 c 128,-1,12
 562 1677 562 1677 656 1677 c 0,13,14
 762 1677 762 1677 833.5 1643.5 c 128,-1,15
 905 1610 905 1610 940 1549 c 128,-1,16
 975 1488 975 1488 987 1402 c 128,-1,17
 999 1316 999 1316 986 1210 c 1,18,-1
 979 1146 l 1,19,-1
 873 1146 l 1,20,-1
 880 1211 l 1,21,22
 891 1299 891 1299 884.5 1368.5 c 128,-1,23
 878 1438 878 1438 854.5 1486.5 c 128,-1,24
 831 1535 831 1535 779.5 1560.5 c 128,-1,25
 728 1586 728 1586 648 1586 c 0,26,27
 560 1586 560 1586 498 1558.5 c 128,-1,28
 436 1531 436 1531 399 1476 c 128,-1,29
 362 1421 362 1421 343 1354.5 c 128,-1,30
 324 1288 324 1288 314 1194 c 2,31,-1
 285 918 l 1,32,-1
 712 918 l 1,33,-1
 703 834 l 1,34,-1
 276 834 l 1,35,-1
 237 460 l 1,36,37
 226 368 226 368 233 295.5 c 128,-1,38
 240 223 240 223 266 173 c 128,-1,39
 292 123 292 123 347.5 96.5 c 128,-1,40
 403 70 403 70 488 70 c 0,41,42
 568 70 568 70 625.5 96 c 128,-1,43
 683 122 683 122 717.5 174 c 128,-1,44
 752 226 752 226 770.5 290.5 c 128,-1,45
 789 355 789 355 799 446 c 2,46,-1
 808 530 l 1,47,-1
 914 530 l 1,48,-1
 907 464 l 2,49,50
 896 352 896 352 869.5 268 c 128,-1,51
 843 184 843 184 794 116 c 128,-1,52
 745 48 745 48 665.5 13 c 128,-1,53
 586 -22 586 -22 477 -22 c 0,0,1
EndSplineSet
EndChar

StartChar: afii10055
Encoding: 1030 1030 302
Width: 422
GlyphClass: 2
Flags: W
LayerCount: 2
Fore
SplineSet
113 0 m 1,0,-1
 287 1658 l 1,1,-1
 398 1658 l 1,2,-1
 224 0 l 1,3,-1
 113 0 l 1,0,-1
EndSplineSet
EndChar

StartChar: afii10057
Encoding: 1032 1032 304
Width: 543
GlyphClass: 2
Flags: W
LayerCount: 2
Fore
SplineSet
-36 -92 m 1,0,-1
 -27 -5 l 1,1,2
 37 -5 37 -5 78 -1 c 128,-1,3
 119 3 119 3 151.5 18 c 128,-1,4
 184 33 184 33 201.5 51.5 c 128,-1,5
 219 70 219 70 233 110 c 128,-1,6
 247 150 247 150 253 192 c 128,-1,7
 259 234 259 234 267 308 c 2,8,-1
 409 1658 l 1,9,-1
 521 1658 l 1,10,-1
 379 294 l 2,11,12
 369 207 369 207 357 151 c 128,-1,13
 345 95 345 95 321 44.5 c 128,-1,14
 297 -6 297 -6 259.5 -33.5 c 128,-1,15
 222 -61 222 -61 163.5 -76.5 c 128,-1,16
 105 -92 105 -92 22 -92 c 2,17,-1
 -36 -92 l 1,0,-1
EndSplineSet
EndChar

StartChar: afii10058
Encoding: 1033 1033 305
Width: 1658
GlyphClass: 2
Flags: W
LayerCount: 2
Fore
SplineSet
948 91 m 1,0,-1
 1132 91 l 2,1,2
 1308 91 1308 91 1392 185 c 128,-1,3
 1476 279 1476 279 1496 472 c 0,4,5
 1517 667 1517 667 1452.5 767.5 c 128,-1,6
 1388 868 1388 868 1212 868 c 2,7,-1
 1030 868 l 1,8,-1
 948 91 l 1,0,-1
0 -5 m 1,9,-1
 10 84 l 1,10,11
 166 81 166 81 219 191 c 128,-1,12
 272 301 272 301 348 713 c 2,13,-1
 520 1658 l 1,14,-1
 1113 1658 l 1,15,-1
 1039 959 l 1,16,-1
 1216 959 l 2,17,18
 1443 959 1443 959 1539 837.5 c 128,-1,19
 1635 716 1635 716 1609 470 c 0,20,21
 1586 250 1586 250 1467.5 125 c 128,-1,22
 1349 0 1349 0 1119 0 c 2,23,-1
 827 0 l 1,24,-1
 992 1572 l 1,25,-1
 615 1572 l 1,26,-1
 455 713 l 2,27,28
 438 621 438 621 426.5 563.5 c 128,-1,29
 415 506 415 506 400 435.5 c 128,-1,30
 385 365 385 365 373 323 c 128,-1,31
 361 281 361 281 344 231 c 128,-1,32
 327 181 327 181 310.5 153 c 128,-1,33
 294 125 294 125 271.5 94 c 128,-1,34
 249 63 249 63 225 47.5 c 128,-1,35
 201 32 201 32 170.5 17.5 c 128,-1,36
 140 3 140 3 104.5 -1.5 c 128,-1,37
 69 -6 69 -6 26 -6 c 1,38,-1
 0 -5 l 1,9,-1
EndSplineSet
EndChar

StartChar: afii10059
Encoding: 1034 1034 306
Width: 1533
GlyphClass: 2
Flags: W
LayerCount: 2
Fore
SplineSet
830 91 m 1,0,-1
 1012 91 l 2,1,2
 1188 91 1188 91 1272.5 185 c 128,-1,3
 1357 279 1357 279 1377 472 c 0,4,5
 1398 667 1398 667 1333.5 767.5 c 128,-1,6
 1269 868 1269 868 1093 868 c 2,7,-1
 912 868 l 1,8,-1
 830 91 l 1,0,-1
1000 0 m 2,9,-1
 708 1 l 1,10,-1
 800 868 l 1,11,-1
 314 868 l 1,12,-1
 222 1 l 1,13,-1
 110 1 l 1,14,-1
 284 1659 l 1,15,-1
 396 1659 l 1,16,-1
 323 953 l 1,17,-1
 809 953 l 1,18,-1
 882 1659 l 1,19,-1
 995 1659 l 1,20,-1
 921 959 l 1,21,-1
 1097 959 l 2,22,23
 1324 959 1324 959 1419.5 837.5 c 128,-1,24
 1515 716 1515 716 1489 470 c 1,25,26
 1467 250 1467 250 1348.5 125 c 128,-1,27
 1230 0 1230 0 1000 0 c 2,9,-1
EndSplineSet
EndChar

StartChar: afii10060
Encoding: 1035 1035 307
Width: 898
GlyphClass: 2
Flags: W
LayerCount: 2
Fore
SplineSet
175 0 m 1,0,-1
 339 1569 l 1,1,-1
 7 1569 l 1,2,-1
 16 1658 l 1,3,-1
 797 1658 l 1,4,-1
 787 1569 l 1,5,-1
 450 1569 l 1,6,-1
 380 893 l 1,7,8
 422 928 422 928 486.5 954 c 128,-1,9
 551 980 551 980 626 980 c 0,10,11
 669 980 669 980 705.5 969.5 c 128,-1,12
 742 959 742 959 773 936 c 128,-1,13
 804 913 804 913 819 870 c 128,-1,14
 834 827 834 827 828 769 c 2,15,-1
 747 0 l 1,16,-1
 637 0 l 1,17,-1
 717 759 l 2,18,19
 732 910 732 910 595 910 c 0,20,21
 480 910 480 910 372 818 c 1,22,-1
 286 0 l 1,23,-1
 175 0 l 1,0,-1
EndSplineSet
EndChar

StartChar: afii10066
Encoding: 1073 1073 311
Width: 899
GlyphClass: 2
Flags: W
LayerCount: 2
Fore
SplineSet
431 63 m 0,0,1
 490 65 490 65 531.5 81.5 c 128,-1,2
 573 98 573 98 607 137.5 c 128,-1,3
 641 177 641 177 662 247.5 c 128,-1,4
 683 318 683 318 694 424 c 2,5,-1
 719 663 l 2,6,7
 741 872 741 872 707 952 c 128,-1,8
 673 1032 673 1032 566 1032 c 0,9,10
 505 1032 505 1032 418 995.5 c 128,-1,11
 331 959 331 959 289 921 c 1,12,-1
 230 361 l 2,13,14
 213 208 213 208 272 134.5 c 128,-1,15
 331 61 331 61 431 63 c 0,0,1
417 -19 m 0,16,17
 352 -21 352 -21 295.5 1 c 128,-1,18
 239 23 239 23 195.5 67.5 c 128,-1,19
 152 112 152 112 131.5 188 c 128,-1,20
 111 264 111 264 121 363 c 2,21,-1
 200 1113 l 2,22,23
 212 1225 212 1225 231 1306 c 128,-1,24
 250 1387 250 1387 274 1439 c 128,-1,25
 298 1491 298 1491 333 1525.5 c 128,-1,26
 368 1560 368 1560 403.5 1576.5 c 128,-1,27
 439 1593 439 1593 490 1606.5 c 128,-1,28
 541 1620 541 1620 589 1628 c 128,-1,29
 637 1636 637 1636 705 1653.5 c 128,-1,30
 773 1671 773 1671 834 1696 c 1,31,-1
 839 1597 l 1,32,33
 784 1576 784 1576 724.5 1561.5 c 128,-1,34
 665 1547 665 1547 624.5 1541 c 128,-1,35
 584 1535 584 1535 541.5 1526 c 128,-1,36
 499 1517 499 1517 470.5 1505 c 128,-1,37
 442 1493 442 1493 414.5 1468.5 c 128,-1,38
 387 1444 387 1444 369 1405 c 128,-1,39
 351 1366 351 1366 336.5 1304 c 128,-1,40
 322 1242 322 1242 313 1155 c 2,41,-1
 297 1002 l 1,42,43
 338 1042 338 1042 427 1076 c 128,-1,44
 516 1110 516 1110 590 1111 c 1,45,46
 687 1111 687 1111 743.5 1067 c 128,-1,47
 800 1023 800 1023 822 919 c 128,-1,48
 844 815 844 815 826 643 c 2,49,-1
 805 446 l 2,50,51
 791 312 791 312 759 220.5 c 128,-1,52
 727 129 727 129 676 78 c 128,-1,53
 625 27 625 27 563 5 c 128,-1,54
 501 -17 501 -17 417 -19 c 0,16,17
EndSplineSet
EndChar

StartChar: afii10067
Encoding: 1074 1074 312
Width: 768
GlyphClass: 2
Flags: W
LayerCount: 2
Fore
SplineSet
251 671 m 1,0,-1
 426 671 l 2,1,2
 501 671 501 671 555 730.5 c 128,-1,3
 609 790 609 790 619 890 c 0,4,5
 629 988 629 988 585 1042 c 128,-1,6
 541 1096 541 1096 443 1096 c 2,7,-1
 296 1096 l 1,8,-1
 251 671 l 1,0,-1
189 84 m 1,9,-1
 351 84 l 2,10,11
 464 84 464 84 516 151.5 c 128,-1,12
 568 219 568 219 581 346 c 0,13,14
 595 479 595 479 551 534 c 128,-1,15
 507 589 507 589 414 589 c 2,16,-1
 243 589 l 1,17,-1
 189 84 l 1,9,-1
73 0 m 1,18,-1
 198 1184 l 1,19,-1
 459 1184 l 2,20,21
 540 1184 540 1184 596 1160.5 c 128,-1,22
 652 1137 652 1137 680 1095.5 c 128,-1,23
 708 1054 708 1054 717.5 1005 c 128,-1,24
 727 956 727 956 721 898 c 0,25,26
 712 814 712 814 669.5 742.5 c 128,-1,27
 627 671 627 671 547 640 c 1,28,29
 607 620 607 620 642 573.5 c 128,-1,30
 677 527 677 527 686.5 470 c 128,-1,31
 696 413 696 413 689 343 c 0,32,33
 681 261 681 261 662 202.5 c 128,-1,34
 643 144 643 144 606 96 c 128,-1,35
 569 48 569 48 506 24 c 128,-1,36
 443 0 443 0 354 0 c 2,37,-1
 73 0 l 1,18,-1
EndSplineSet
EndChar

StartChar: afii10068
Encoding: 1075 1075 313
Width: 571
GlyphClass: 2
Flags: W
LayerCount: 2
Fore
SplineSet
73 0 m 1,0,-1
 197 1184 l 1,1,-1
 611 1184 l 1,2,-1
 602 1098 l 1,3,-1
 297 1098 l 1,4,-1
 182 0 l 1,5,-1
 73 0 l 1,0,-1
EndSplineSet
EndChar

StartChar: afii10069
Encoding: 1076 1076 314
Width: 932
GlyphClass: 2
Flags: W
LayerCount: 2
Fore
SplineSet
116 79 m 1,0,-1
 609 79 l 1,1,-1
 716 1101 l 1,2,-1
 444 1101 l 1,3,-1
 387 813 l 1,4,5
 324 440 324 440 270 290 c 128,-1,6
 216 140 216 140 116 79 c 1,0,-1
-43 -275 m 1,7,-1
 -6 76 l 1,8,9
 66 113 66 113 115 187 c 128,-1,10
 164 261 164 261 208.5 415 c 128,-1,11
 253 569 253 569 298 833 c 1,12,-1
 362 1184 l 1,13,-1
 831 1184 l 1,14,-1
 715 79 l 1,15,-1
 821 79 l 1,16,-1
 783 -275 l 1,17,-1
 697 -275 l 1,18,-1
 716 0 l 1,19,-1
 81 0 l 1,20,-1
 43 -275 l 1,21,-1
 -43 -275 l 1,7,-1
EndSplineSet
EndChar

StartChar: afii10072
Encoding: 1078 1078 317
Width: 1037
GlyphClass: 2
Flags: W
LayerCount: 2
Fore
SplineSet
-35 0 m 1,0,-1
 385 607 l 1,1,-1
 107 1184 l 1,2,-1
 211 1184 l 1,3,-1
 476 617 l 1,4,-1
 496 617 l 1,5,-1
 555 1184 l 1,6,-1
 648 1184 l 1,7,-1
 588 617 l 1,8,-1
 607 617 l 1,9,-1
 990 1184 l 1,10,-1
 1092 1184 l 1,11,-1
 694 607 l 1,12,-1
 987 0 l 1,13,-1
 883 0 l 1,14,-1
 605 590 l 1,15,-1
 586 590 l 1,16,-1
 523 0 l 1,17,-1
 431 0 l 1,18,-1
 493 590 l 1,19,-1
 472 590 l 1,20,-1
 69 0 l 1,21,-1
 -35 0 l 1,0,-1
EndSplineSet
EndChar

StartChar: afii10073
Encoding: 1079 1079 318
Width: 734
GlyphClass: 2
Flags: W
LayerCount: 2
Fore
SplineSet
323 -20 m 0,0,1
 184 -19 184 -19 120.5 66.5 c 128,-1,2
 57 152 57 152 74 314 c 1,3,-1
 175 314 l 1,4,5
 148 63 148 63 332 60 c 0,6,7
 428 59 428 59 483.5 128 c 128,-1,8
 539 197 539 197 550 326 c 0,9,10
 570 574 570 574 321 574 c 1,11,-1
 330 658 l 1,12,13
 466 658 466 658 527 712 c 128,-1,14
 588 766 588 766 604 872 c 1,15,16
 621 977 621 977 580.5 1049 c 128,-1,17
 540 1121 540 1121 447 1121 c 0,18,19
 356 1121 356 1121 299 1063 c 128,-1,20
 242 1005 242 1005 230 892 c 1,21,-1
 131 892 l 1,22,23
 147 1046 147 1046 232.5 1124.5 c 128,-1,24
 318 1203 318 1203 458 1203 c 0,25,26
 554 1203 554 1203 615 1157 c 128,-1,27
 676 1111 676 1111 696.5 1039 c 128,-1,28
 717 967 717 967 705 878 c 0,29,30
 691 766 691 766 628 699.5 c 128,-1,31
 565 633 565 633 476 618 c 1,32,33
 535 599 535 599 574 567.5 c 128,-1,34
 613 536 613 536 635.5 472 c 128,-1,35
 658 408 658 408 650 317 c 0,36,37
 636 159 636 159 549.5 69 c 128,-1,38
 463 -21 463 -21 323 -20 c 0,0,1
EndSplineSet
EndChar

StartChar: afii10074
Encoding: 1080 1080 319
Width: 834
GlyphClass: 2
Flags: W
LayerCount: 2
Fore
SplineSet
73 0 m 1,0,-1
 197 1184 l 1,1,-1
 292 1184 l 1,2,-1
 189 202 l 1,3,-1
 709 1183 l 1,4,-1
 800 1184 l 1,5,-1
 676 0 l 1,6,-1
 583 0 l 1,7,-1
 685 973 l 1,8,-1
 166 0 l 1,9,-1
 73 0 l 1,0,-1
EndSplineSet
EndChar

StartChar: afii10076
Encoding: 1082 1082 321
Width: 762
GlyphClass: 2
Flags: W
LayerCount: 2
Fore
SplineSet
73 0 m 1,0,-1
 197 1184 l 1,1,-1
 306 1184 l 1,2,-1
 251 650 l 1,3,-1
 350 650 l 1,4,-1
 701 1184 l 1,5,-1
 815 1184 l 1,6,-1
 445 613 l 1,7,-1
 704 0 l 1,8,-1
 590 0 l 1,9,-1
 342 578 l 1,10,-1
 243 578 l 1,11,-1
 182 0 l 1,12,-1
 73 0 l 1,0,-1
EndSplineSet
EndChar

StartChar: afii10077
Encoding: 1083 1083 322
Width: 906
GlyphClass: 2
Flags: W
LayerCount: 2
Fore
SplineSet
-29 -10 m 1,0,-1
 -20 73 l 1,1,2
 61 75 61 75 108 117.5 c 128,-1,3
 155 160 155 160 195 279.5 c 128,-1,4
 235 399 235 399 281 645 c 1,5,-1
 379 1184 l 1,6,-1
 872 1184 l 1,7,-1
 748 0 l 1,8,-1
 639 0 l 1,9,-1
 754 1099 l 1,10,-1
 466 1099 l 1,11,-1
 381 645 l 2,12,13
 356 509 356 509 334 414.5 c 128,-1,14
 312 320 312 320 285.5 243.5 c 128,-1,15
 259 167 259 167 232 121 c 128,-1,16
 205 75 205 75 168.5 44 c 128,-1,17
 132 13 132 13 90 1.5 c 128,-1,18
 48 -10 48 -10 -9 -10 c 2,19,-1
 -29 -10 l 1,0,-1
EndSplineSet
EndChar

StartChar: afii10078
Encoding: 1084 1084 323
Width: 973
GlyphClass: 2
Flags: W
LayerCount: 2
Fore
SplineSet
64 0 m 1,0,-1
 198 1184 l 1,1,-1
 282 1184 l 1,2,-1
 476 318 l 1,3,-1
 851 1184 l 1,4,-1
 939 1184 l 1,5,-1
 824 0 l 1,6,-1
 729 0 l 1,7,-1
 820 907 l 1,8,-1
 474 125 l 1,9,-1
 439 125 l 1,10,-1
 259 904 l 1,11,-1
 159 0 l 1,12,-1
 64 0 l 1,0,-1
EndSplineSet
EndChar

StartChar: afii10079
Encoding: 1085 1085 324
Width: 873
GlyphClass: 2
Flags: W
LayerCount: 2
Fore
SplineSet
73 0 m 1,0,-1
 197 1184 l 1,1,-1
 306 1184 l 1,2,-1
 251 657 l 1,3,-1
 675 657 l 1,4,-1
 730 1184 l 1,5,-1
 839 1184 l 1,6,-1
 715 0 l 1,7,-1
 606 0 l 1,8,-1
 666 574 l 1,9,-1
 242 574 l 1,10,-1
 182 0 l 1,11,-1
 73 0 l 1,0,-1
EndSplineSet
EndChar

StartChar: afii10081
Encoding: 1087 1087 326
Width: 832
GlyphClass: 2
Flags: W
LayerCount: 2
Fore
SplineSet
73 0 m 1,0,-1
 197 1184 l 1,1,-1
 798 1184 l 1,2,-1
 674 0 l 1,3,-1
 565 0 l 1,4,-1
 681 1097 l 1,5,-1
 298 1097 l 1,6,-1
 182 0 l 1,7,-1
 73 0 l 1,0,-1
EndSplineSet
EndChar

StartChar: afii10084
Encoding: 1090 1090 329
Width: 672
GlyphClass: 2
Flags: W
LayerCount: 2
Fore
SplineSet
243 0 m 1,0,-1
 359 1100 l 1,1,-1
 82 1100 l 1,2,-1
 91 1184 l 1,3,-1
 745 1184 l 1,4,-1
 736 1100 l 1,5,-1
 467 1100 l 1,6,-1
 352 0 l 1,7,-1
 243 0 l 1,0,-1
EndSplineSet
EndChar

StartChar: afii10085
Encoding: 1091 1091 330
Width: 764
GlyphClass: 2
Flags: W
LayerCount: 2
Fore
SplineSet
5 -299 m 1,0,-1
 15 -207 l 1,1,2
 90 -206 90 -206 144.5 -191 c 128,-1,3
 199 -176 199 -176 228.5 -149 c 128,-1,4
 258 -122 258 -122 275 -85 c 128,-1,5
 292 -48 292 -48 292 -4.5 c 128,-1,6
 292 39 292 39 287 88 c 1,7,-1
 142 1184 l 1,8,-1
 248 1184 l 1,9,-1
 320 558 l 1,10,-1
 368 128 l 1,11,-1
 498 552 l 1,12,-1
 694 1184 l 1,13,-1
 800 1184 l 1,14,-1
 389 -56 l 2,15,16
 369 -115 369 -115 342.5 -156 c 128,-1,17
 316 -197 316 -197 285.5 -223 c 128,-1,18
 255 -249 255 -249 209.5 -264.5 c 128,-1,19
 164 -280 164 -280 118.5 -287 c 128,-1,20
 73 -294 73 -294 5 -299 c 1,0,-1
EndSplineSet
EndChar

StartChar: afii10086
Encoding: 1092 1092 331
Width: 1092
GlyphClass: 2
Flags: W
LayerCount: 2
Fore
SplineSet
570 168 m 1,0,-1
 627 168 l 2,1,2
 667 168 667 168 696 172 c 128,-1,3
 725 176 725 176 757 187 c 128,-1,4
 789 198 789 198 811.5 221.5 c 128,-1,5
 834 245 834 245 855.5 281.5 c 128,-1,6
 877 318 877 318 891 374.5 c 128,-1,7
 905 431 905 431 913 506 c 2,8,-1
 936 731 l 2,9,10
 942 786 942 786 942.5 831 c 128,-1,11
 943 876 943 876 938.5 909.5 c 128,-1,12
 934 943 934 943 925.5 968.5 c 128,-1,13
 917 994 917 994 903 1011 c 128,-1,14
 889 1028 889 1028 873.5 1039 c 128,-1,15
 858 1050 858 1050 835.5 1056 c 128,-1,16
 813 1062 813 1062 791 1064 c 128,-1,17
 769 1066 769 1066 740 1066 c 2,18,-1
 664 1066 l 1,19,-1
 570 168 l 1,0,-1
414 168 m 2,20,-1
 470 168 l 1,21,-1
 564 1067 l 1,22,-1
 490 1067 l 2,23,24
 443 1067 443 1067 410.5 1061 c 128,-1,25
 378 1055 378 1055 345 1035 c 128,-1,26
 312 1015 312 1015 290.5 978.5 c 128,-1,27
 269 942 269 942 251.5 880.5 c 128,-1,28
 234 819 234 819 225 731 c 2,29,-1
 202 506 l 2,30,31
 196 449 196 449 195.5 403 c 128,-1,32
 195 357 195 357 201 323 c 128,-1,33
 207 289 207 289 216.5 263.5 c 128,-1,34
 226 238 226 238 242 221.5 c 128,-1,35
 258 205 258 205 275 194 c 128,-1,36
 292 183 292 183 316 177.5 c 128,-1,37
 340 172 340 172 362 170 c 128,-1,38
 384 168 384 168 414 168 c 2,20,-1
412 -390 m 1,39,-1
 462 90 l 1,40,-1
 405 90 l 2,41,42
 373 90 373 90 346.5 92 c 128,-1,43
 320 94 320 94 290.5 100 c 128,-1,44
 261 106 261 106 239 116.5 c 128,-1,45
 217 127 217 127 193.5 143 c 128,-1,46
 170 159 170 159 155 182 c 128,-1,47
 140 205 140 205 125.5 236 c 128,-1,48
 111 267 111 267 106.5 306.5 c 128,-1,49
 102 346 102 346 99 396.5 c 128,-1,50
 96 447 96 447 105 508 c 1,51,-1
 127 721 l 2,52,53
 140 847 140 847 171.5 931.5 c 128,-1,54
 203 1016 203 1016 253.5 1061 c 128,-1,55
 304 1106 304 1106 361 1124 c 128,-1,56
 418 1142 418 1142 496 1142 c 2,57,-1
 573 1142 l 1,58,-1
 627 1658 l 1,59,-1
 726 1658 l 1,60,-1
 672 1142 l 1,61,-1
 753 1142 l 2,62,63
 796 1142 796 1142 830.5 1136.5 c 128,-1,64
 865 1131 865 1131 898.5 1118.5 c 128,-1,65
 932 1106 932 1106 955 1084.5 c 128,-1,66
 978 1063 978 1063 997.5 1031 c 128,-1,67
 1017 999 1017 999 1025.5 955 c 128,-1,68
 1034 911 1034 911 1037.5 852.5 c 128,-1,69
 1041 794 1041 794 1031 721 c 1,70,-1
 1009 508 l 2,71,72
 1001 431 1001 431 985 369 c 128,-1,73
 969 307 969 307 948 263.5 c 128,-1,74
 927 220 927 220 898 188.5 c 128,-1,75
 869 157 869 157 839 138.5 c 128,-1,76
 809 120 809 120 771.5 108.5 c 128,-1,77
 734 97 734 97 700 93.5 c 128,-1,78
 666 90 666 90 624 90 c 2,79,-1
 562 90 l 1,80,-1
 511 -390 l 1,81,-1
 412 -390 l 1,39,-1
EndSplineSet
EndChar

StartChar: afii10088
Encoding: 1094 1094 333
Width: 840
GlyphClass: 2
Flags: W
LayerCount: 2
Fore
SplineSet
657 -275 m 1,0,-1
 676 0 l 1,1,-1
 73 0 l 1,2,-1
 197 1184 l 1,3,-1
 306 1184 l 1,4,-1
 190 76 l 1,5,-1
 565 76 l 1,6,-1
 681 1184 l 1,7,-1
 789 1184 l 1,8,-1
 674 76 l 1,9,-1
 777 76 l 1,10,-1
 739 -275 l 1,11,-1
 657 -275 l 1,0,-1
EndSplineSet
EndChar

StartChar: afii10089
Encoding: 1095 1095 334
Width: 771
GlyphClass: 2
Flags: W
LayerCount: 2
Fore
SplineSet
501 0 m 1,0,-1
 554 508 l 1,1,2
 435 483 435 483 368 483 c 0,3,4
 241 483 241 483 173 546 c 128,-1,5
 105 609 105 609 119 741 c 2,6,-1
 165 1184 l 1,7,-1
 274 1184 l 1,8,-1
 228 738 l 2,9,10
 209 563 209 563 397 563 c 0,11,12
 471 563 471 563 562 587 c 1,13,-1
 625 1184 l 1,14,-1
 733 1184 l 1,15,-1
 609 0 l 1,16,-1
 501 0 l 1,0,-1
EndSplineSet
EndChar

StartChar: afii10090
Encoding: 1096 1096 335
Width: 1128
GlyphClass: 2
Flags: W
LayerCount: 2
Fore
SplineSet
73 0 m 1,0,-1
 197 1184 l 1,1,-1
 304 1184 l 1,2,-1
 188 76 l 1,3,-1
 480 76 l 1,4,-1
 596 1184 l 1,5,-1
 702 1184 l 1,6,-1
 587 76 l 1,7,-1
 871 76 l 1,8,-1
 986 1184 l 1,9,-1
 1093 1184 l 1,10,-1
 969 0 l 1,11,-1
 73 0 l 1,0,-1
EndSplineSet
EndChar

StartChar: afii10091
Encoding: 1097 1097 336
Width: 1176
GlyphClass: 2
Flags: W
LayerCount: 2
Fore
SplineSet
974 -275 m 1,0,-1
 990 0 l 1,1,-1
 73 0 l 1,2,-1
 198 1184 l 1,3,-1
 303 1184 l 1,4,-1
 187 76 l 1,5,-1
 485 76 l 1,6,-1
 602 1184 l 1,7,-1
 707 1184 l 1,8,-1
 590 76 l 1,9,-1
 882 76 l 1,10,-1
 998 1184 l 1,11,-1
 1103 1184 l 1,12,-1
 987 76 l 1,13,-1
 1092 76 l 1,14,-1
 1054 -275 l 1,15,-1
 974 -275 l 1,0,-1
EndSplineSet
EndChar

StartChar: afii10092
Encoding: 1098 1098 337
Width: 904
GlyphClass: 2
Flags: W
LayerCount: 2
Fore
SplineSet
328 74 m 1,0,-1
 417 74 l 2,1,2
 503 74 503 74 563 95.5 c 128,-1,3
 623 117 623 117 655.5 157.5 c 128,-1,4
 688 198 688 198 703.5 242.5 c 128,-1,5
 719 287 719 287 725 348 c 1,6,7
 728 391 728 391 728.5 432 c 128,-1,8
 729 473 729 473 714 509.5 c 128,-1,9
 699 546 699 546 673.5 573.5 c 128,-1,10
 648 601 648 601 598 617.5 c 128,-1,11
 548 634 548 634 479 634 c 2,12,-1
 387 634 l 1,13,-1
 328 74 l 1,0,-1
211 0 m 1,14,-1
 327 1101 l 1,15,-1
 71 1101 l 1,16,-1
 79 1184 l 1,17,-1
 444 1184 l 1,18,-1
 395 708 l 1,19,-1
 490 708 l 2,20,21
 567 708 567 708 626.5 693.5 c 128,-1,22
 686 679 686 679 723 653.5 c 128,-1,23
 760 628 760 628 785 593.5 c 128,-1,24
 810 559 810 559 819 519 c 128,-1,25
 828 479 828 479 831.5 435 c 128,-1,26
 835 391 835 391 828 347 c 1,27,28
 822 291 822 291 809 245.5 c 128,-1,29
 796 200 796 200 765.5 152.5 c 128,-1,30
 735 105 735 105 691 73 c 128,-1,31
 647 41 647 41 574.5 20.5 c 128,-1,32
 502 0 502 0 409 0 c 2,33,-1
 211 0 l 1,14,-1
EndSplineSet
EndChar

StartChar: afii10093
Encoding: 1099 1099 338
Width: 1079
GlyphClass: 2
Flags: W
LayerCount: 2
Fore
SplineSet
812 0 m 1,0,-1
 936 1184 l 1,1,-1
 1044 1184 l 1,2,-1
 920 0 l 1,3,-1
 812 0 l 1,0,-1
190 74 m 1,4,-1
 279 74 l 2,5,6
 365 74 365 74 425 95.5 c 128,-1,7
 485 117 485 117 517.5 157.5 c 128,-1,8
 550 198 550 198 565.5 242.5 c 128,-1,9
 581 287 581 287 587 348 c 1,10,11
 590 391 590 391 590.5 432 c 128,-1,12
 591 473 591 473 576.5 509.5 c 128,-1,13
 562 546 562 546 536 573.5 c 128,-1,14
 510 601 510 601 460 617.5 c 128,-1,15
 410 634 410 634 341 634 c 2,16,-1
 249 634 l 1,17,-1
 190 74 l 1,4,-1
73 0 m 1,18,-1
 197 1184 l 1,19,-1
 306 1184 l 1,20,-1
 257 708 l 1,21,-1
 352 708 l 2,22,23
 429 708 429 708 488.5 693.5 c 128,-1,24
 548 679 548 679 585 653.5 c 128,-1,25
 622 628 622 628 647 593.5 c 128,-1,26
 672 559 672 559 680.5 519 c 128,-1,27
 689 479 689 479 692.5 435 c 128,-1,28
 696 391 696 391 689 347 c 1,29,30
 683 291 683 291 670 245.5 c 128,-1,31
 657 200 657 200 627 152.5 c 128,-1,32
 597 105 597 105 553 73 c 128,-1,33
 509 41 509 41 436.5 20.5 c 128,-1,34
 364 0 364 0 271 0 c 2,35,-1
 73 0 l 1,18,-1
EndSplineSet
EndChar

StartChar: afii10094
Encoding: 1100 1100 339
Width: 764
GlyphClass: 2
Flags: W
LayerCount: 2
Fore
SplineSet
190 74 m 1,0,-1
 279 74 l 2,1,2
 365 74 365 74 425 95.5 c 128,-1,3
 485 117 485 117 517.5 157.5 c 128,-1,4
 550 198 550 198 565.5 242.5 c 128,-1,5
 581 287 581 287 587 348 c 1,6,7
 590 391 590 391 590.5 432 c 128,-1,8
 591 473 591 473 576.5 509.5 c 128,-1,9
 562 546 562 546 536 573.5 c 128,-1,10
 510 601 510 601 460 617.5 c 128,-1,11
 410 634 410 634 341 634 c 2,12,-1
 249 634 l 1,13,-1
 190 74 l 1,0,-1
73 0 m 1,14,-1
 197 1184 l 1,15,-1
 306 1184 l 1,16,-1
 257 708 l 1,17,-1
 352 708 l 2,18,19
 429 708 429 708 488.5 693.5 c 128,-1,20
 548 679 548 679 585 653.5 c 128,-1,21
 622 628 622 628 647 593.5 c 128,-1,22
 672 559 672 559 680.5 519 c 128,-1,23
 689 479 689 479 692.5 435 c 128,-1,24
 696 391 696 391 689 347 c 1,25,26
 683 291 683 291 670 245.5 c 128,-1,27
 657 200 657 200 627 152.5 c 128,-1,28
 597 105 597 105 553 73 c 128,-1,29
 509 41 509 41 436.5 20.5 c 128,-1,30
 364 0 364 0 271 0 c 2,31,-1
 73 0 l 1,14,-1
EndSplineSet
EndChar

StartChar: afii10095
Encoding: 1101 1101 340
Width: 791
GlyphClass: 2
Flags: W
LayerCount: 2
Fore
SplineSet
356 -19 m 0,0,1
 266 -19 266 -19 209 7.5 c 128,-1,2
 152 34 152 34 128 81.5 c 128,-1,3
 104 129 104 129 97 193.5 c 128,-1,4
 90 258 90 258 101 334 c 1,5,-1
 104 357 l 1,6,-1
 206 357 l 1,7,-1
 205 335 l 1,8,9
 188 181 188 181 227.5 122 c 128,-1,10
 267 63 267 63 369 63 c 0,11,12
 417 63 417 63 451.5 77.5 c 128,-1,13
 486 92 486 92 509 118 c 128,-1,14
 532 144 532 144 548 193.5 c 128,-1,15
 564 243 564 243 574 300.5 c 128,-1,16
 584 358 584 358 593 448 c 2,17,-1
 605 562 l 1,18,-1
 275 562 l 1,19,-1
 283 634 l 1,20,-1
 613 634 l 1,21,-1
 624 740 l 1,22,23
 640 875 640 875 633 956.5 c 128,-1,24
 626 1038 626 1038 590.5 1072 c 128,-1,25
 555 1106 555 1106 477 1106 c 0,26,27
 363 1106 363 1106 317 1038.5 c 128,-1,28
 271 971 271 971 255 817 c 2,29,-1
 252 788 l 1,30,-1
 149 788 l 1,31,-1
 152 814 l 2,32,33
 159 880 159 880 169.5 929.5 c 128,-1,34
 180 979 180 979 204 1030 c 128,-1,35
 228 1081 228 1081 263 1114 c 128,-1,36
 298 1147 298 1147 355 1167.5 c 128,-1,37
 412 1188 412 1188 487 1188 c 0,38,39
 583 1188 583 1188 641 1153.5 c 128,-1,40
 699 1119 699 1119 719.5 1057.5 c 128,-1,41
 740 996 740 996 742.5 911 c 128,-1,42
 745 826 745 826 731 724 c 1,43,-1
 704 461 l 1,44,45
 675 193 675 193 600.5 87 c 128,-1,46
 526 -19 526 -19 356 -19 c 0,0,1
EndSplineSet
EndChar

StartChar: afii10096
Encoding: 1102 1102 341
Width: 1051
GlyphClass: 2
Flags: W
LayerCount: 2
Fore
SplineSet
633 63 m 0,0,1
 683 63 683 63 719 80 c 128,-1,2
 755 97 755 97 778 124.5 c 128,-1,3
 801 152 801 152 817 202 c 128,-1,4
 833 252 833 252 841.5 301.5 c 128,-1,5
 850 351 850 351 858 428 c 2,6,-1
 893 756 l 1,7,8
 904 870 904 870 902.5 951.5 c 128,-1,9
 901 1033 901 1033 863 1077 c 128,-1,10
 825 1121 825 1121 744 1121 c 0,11,12
 695 1121 695 1121 658.5 1104 c 128,-1,13
 622 1087 622 1087 599.5 1059 c 128,-1,14
 577 1031 577 1031 561 981.5 c 128,-1,15
 545 932 545 932 536.5 882.5 c 128,-1,16
 528 833 528 833 520 756 c 2,17,-1
 486 428 l 2,18,19
 475 313 475 313 476 232 c 128,-1,20
 477 151 477 151 514.5 107 c 128,-1,21
 552 63 552 63 633 63 c 0,0,1
625 -19 m 0,22,23
 461 -19 461 -19 410.5 88.5 c 128,-1,24
 360 196 360 196 385 432 c 2,25,-1
 397 546 l 1,26,-1
 231 546 l 1,27,-1
 175 0 l 1,28,-1
 73 0 l 1,29,-1
 197 1184 l 1,30,-1
 299 1184 l 1,31,-1
 240 621 l 1,32,-1
 405 621 l 1,33,-1
 419 752 l 2,34,35
 431 868 431 868 452.5 947.5 c 128,-1,36
 474 1027 474 1027 512 1087 c 128,-1,37
 550 1147 550 1147 609.5 1175 c 128,-1,38
 669 1203 669 1203 754 1203 c 0,39,40
 866 1203 866 1203 924.5 1152 c 128,-1,41
 983 1101 983 1101 995.5 1000.5 c 128,-1,42
 1008 900 1008 900 993 752 c 2,43,-1
 960 432 l 2,44,45
 947 315 947 315 925.5 235.5 c 128,-1,46
 904 156 904 156 866 96.5 c 128,-1,47
 828 37 828 37 768.5 9 c 128,-1,48
 709 -19 709 -19 625 -19 c 0,22,23
EndSplineSet
EndChar

StartChar: afii10097
Encoding: 1103 1103 342
Width: 789
GlyphClass: 2
Flags: W
LayerCount: 2
Fore
SplineSet
509 560 m 2,0,-1
 580 560 l 1,1,-1
 638 1111 l 1,2,-1
 546 1111 l 2,3,4
 478 1111 478 1111 427 1096 c 128,-1,5
 376 1081 376 1081 346 1057.5 c 128,-1,6
 316 1034 316 1034 296 997 c 128,-1,7
 276 960 276 960 267.5 924.5 c 128,-1,8
 259 889 259 889 254 841 c 0,9,10
 239 695 239 695 298 627.5 c 128,-1,11
 357 560 357 560 509 560 c 2,0,-1
-3 0 m 1,12,-1
 291 519 l 1,13,14
 202 557 202 557 171.5 646 c 128,-1,15
 141 735 141 735 152 842 c 0,16,17
 158 898 158 898 169.5 942 c 128,-1,18
 181 986 181 986 209.5 1033.5 c 128,-1,19
 238 1081 238 1081 280 1112 c 128,-1,20
 322 1143 322 1143 393 1163.5 c 128,-1,21
 464 1184 464 1184 557 1184 c 2,22,-1
 754 1184 l 1,23,-1
 630 0 l 1,24,-1
 522 0 l 1,25,-1
 573 486 l 1,26,27
 433 486 433 486 388 494 c 1,28,-1
 114 0 l 1,29,-1
 -3 0 l 1,12,-1
EndSplineSet
EndChar

StartChar: afii10098
Encoding: 1169 1169 343
Width: 607
GlyphClass: 2
Flags: W
LayerCount: 2
Fore
SplineSet
89 0 m 1,0,-1
 213 1184 l 1,1,-1
 569 1184 l 1,2,-1
 585 1333 l 1,3,-1
 650 1333 l 1,4,-1
 626 1102 l 1,5,-1
 309 1102 l 1,6,-1
 193 0 l 1,7,-1
 89 0 l 1,0,-1
EndSplineSet
EndChar

StartChar: afii10099
Encoding: 1106 1106 344
Width: 832
GlyphClass: 2
Flags: W
LayerCount: 2
Fore
SplineSet
311 -247 m 1,0,-1
 320 -167 l 1,1,-1
 357 -167 l 2,2,3
 392 -167 392 -167 419 -163 c 128,-1,4
 446 -159 446 -159 468 -147.5 c 128,-1,5
 490 -136 490 -136 505.5 -123 c 128,-1,6
 521 -110 521 -110 533.5 -86 c 128,-1,7
 546 -62 546 -62 554 -38 c 128,-1,8
 562 -14 562 -14 569 25.5 c 128,-1,9
 576 65 576 65 580.5 101 c 128,-1,10
 585 137 585 137 591 193 c 2,11,-1
 652 768 l 2,12,13
 669 921 669 921 534 921 c 0,14,15
 469 921 469 921 404 897 c 128,-1,16
 339 873 339 873 290 831 c 1,17,-1
 203 0 l 1,18,-1
 95 0 l 1,19,-1
 229 1281 l 1,20,-1
 84 1281 l 1,21,-1
 91 1351 l 1,22,-1
 236 1351 l 1,23,-1
 269 1658 l 1,24,-1
 377 1658 l 1,25,-1
 345 1351 l 1,26,-1
 600 1351 l 1,27,-1
 593 1281 l 1,28,-1
 338 1281 l 1,29,-1
 298 903 l 1,30,31
 415 993 415 993 569 993 c 0,32,33
 663 993 663 993 718.5 940.5 c 128,-1,34
 774 888 774 888 762 778 c 2,35,-1
 702 206 l 2,36,37
 694 133 694 133 687.5 87 c 128,-1,38
 681 41 681 41 669.5 -12 c 128,-1,39
 658 -65 658 -65 642.5 -96.5 c 128,-1,40
 627 -128 627 -128 602 -160.5 c 128,-1,41
 577 -193 577 -193 544 -209.5 c 128,-1,42
 511 -226 511 -226 465 -236.5 c 128,-1,43
 419 -247 419 -247 360 -247 c 2,44,-1
 311 -247 l 1,0,-1
EndSplineSet
EndChar

StartChar: afii10101
Encoding: 1108 1108 346
Width: 770
GlyphClass: 2
Flags: W
LayerCount: 2
Fore
SplineSet
349 -19 m 0,0,1
 293 -19 293 -19 250 -6.5 c 128,-1,2
 207 6 207 6 178 27.5 c 128,-1,3
 149 49 149 49 130 83 c 128,-1,4
 111 117 111 117 101.5 153.5 c 128,-1,5
 92 190 92 190 89.5 240.5 c 128,-1,6
 87 291 87 291 89.5 337.5 c 128,-1,7
 92 384 92 384 98 445 c 2,8,-1
 128 723 l 2,9,10
 156 989 156 989 231.5 1096 c 128,-1,11
 307 1203 307 1203 477 1203 c 0,12,13
 567 1203 567 1203 623.5 1175 c 128,-1,14
 680 1147 680 1147 703 1097 c 128,-1,15
 726 1047 726 1047 732.5 978.5 c 128,-1,16
 739 910 739 910 727 829 c 1,17,-1
 724 799 l 1,18,-1
 622 799 l 1,19,-1
 625 828 l 2,20,21
 637 946 637 946 623.5 1010 c 128,-1,22
 610 1074 610 1074 574 1097.5 c 128,-1,23
 538 1121 538 1121 469 1121 c 0,24,25
 421 1121 421 1121 386.5 1107 c 128,-1,26
 352 1093 352 1093 327.5 1066.5 c 128,-1,27
 303 1040 303 1040 286 992 c 128,-1,28
 269 944 269 944 258 884.5 c 128,-1,29
 247 825 247 825 238 736 c 2,30,-1
 228 640 l 1,31,-1
 540 640 l 1,32,-1
 531 562 l 1,33,-1
 219 562 l 1,34,-1
 206 429 l 1,35,36
 185 227 185 227 216 145 c 128,-1,37
 247 63 247 63 359 63 c 0,38,39
 419 63 419 63 457.5 80 c 128,-1,40
 496 97 496 97 520 139.5 c 128,-1,41
 544 182 544 182 556.5 238 c 128,-1,42
 569 294 569 294 579 389 c 1,43,-1
 581 417 l 1,44,-1
 684 417 l 1,45,-1
 681 392 l 1,46,47
 673 312 673 312 662 257 c 128,-1,48
 651 202 651 202 628 146 c 128,-1,49
 605 90 605 90 571 56.5 c 128,-1,50
 537 23 537 23 481 2 c 128,-1,51
 425 -19 425 -19 349 -19 c 0,0,1
EndSplineSet
EndChar

StartChar: afii10103
Encoding: 1110 1110 348
Width: 474
GlyphClass: 2
Flags: W
LayerCount: 2
Fore
SplineSet
273 1332 m 1,0,-1
 292 1513 l 1,1,-1
 424 1513 l 1,2,-1
 406 1332 l 1,3,-1
 273 1332 l 1,0,-1
143 0 m 1,4,-1
 267 1184 l 1,5,-1
 375 1184 l 1,6,-1
 251 0 l 1,7,-1
 143 0 l 1,4,-1
EndSplineSet
EndChar

StartChar: afii10105
Encoding: 1112 1112 350
Width: 411
GlyphClass: 2
Flags: W
LayerCount: 2
Fore
SplineSet
264 1339 m 1,0,-1
 283 1528 l 1,1,-1
 393 1528 l 1,2,-1
 373 1339 l 1,3,-1
 264 1339 l 1,0,-1
-107 -313 m 1,4,-1
 -98 -226 l 1,5,6
 -90 -228 -90 -228 -51 -228 c 0,7,8
 0 -228 0 -228 33.5 -214 c 128,-1,9
 67 -200 67 -200 83.5 -171 c 128,-1,10
 100 -142 100 -142 106.5 -117 c 128,-1,11
 113 -92 113 -92 117 -51 c 2,12,-1
 247 1184 l 1,13,-1
 356 1184 l 1,14,-1
 225 -58 l 2,15,16
 211 -195 211 -195 142 -256 c 128,-1,17
 73 -317 73 -317 -47 -317 c 0,18,19
 -96 -317 -96 -317 -107 -313 c 1,4,-1
EndSplineSet
EndChar

StartChar: afii10106
Encoding: 1113 1113 351
Width: 1242
GlyphClass: 2
Flags: W
LayerCount: 2
Fore
SplineSet
748 74 m 1,0,-1
 813 74 l 2,1,2
 880 74 880 74 928 86.5 c 128,-1,3
 976 99 976 99 1004 118 c 128,-1,4
 1032 137 1032 137 1049.5 171.5 c 128,-1,5
 1067 206 1067 206 1074 237.5 c 128,-1,6
 1081 269 1081 269 1086 318 c 1,7,8
 1095 370 1095 370 1091 416.5 c 128,-1,9
 1087 463 1087 463 1069.5 497 c 128,-1,10
 1052 531 1052 531 1001 551 c 128,-1,11
 950 571 950 571 866 571 c 2,12,-1
 801 571 l 1,13,-1
 748 74 l 1,0,-1
-36 -10 m 1,14,-1
 -27 73 l 1,15,16
 51 73 51 73 99 114.5 c 128,-1,17
 147 156 147 156 184 261.5 c 128,-1,18
 221 367 221 367 260 574 c 2,19,-1
 372 1184 l 1,20,-1
 865 1184 l 1,21,-1
 809 645 l 1,22,-1
 879 645 l 2,23,24
 944 645 944 645 995 635.5 c 128,-1,25
 1046 626 1046 626 1080 610.5 c 128,-1,26
 1114 595 1114 595 1137 570 c 128,-1,27
 1160 545 1160 545 1172.5 519 c 128,-1,28
 1185 493 1185 493 1190 457.5 c 128,-1,29
 1195 422 1195 422 1194 390 c 128,-1,30
 1193 358 1193 358 1189 317 c 0,31,32
 1183 260 1183 260 1172.5 219.5 c 128,-1,33
 1162 179 1162 179 1136.5 135 c 128,-1,34
 1111 91 1111 91 1071 64 c 128,-1,35
 1031 37 1031 37 963.5 19 c 128,-1,36
 896 1 896 1 804 0 c 1,37,-1
 632 0 l 1,38,-1
 748 1099 l 1,39,-1
 460 1099 l 1,40,-1
 357 561 l 2,41,42
 328 406 328 406 296.5 300.5 c 128,-1,43
 265 195 265 195 233.5 134 c 128,-1,44
 202 73 202 73 159 40.5 c 128,-1,45
 116 8 116 8 76.5 -1 c 128,-1,46
 37 -10 37 -10 -23 -10 c 2,47,-1
 -36 -10 l 1,14,-1
EndSplineSet
EndChar

StartChar: afii10107
Encoding: 1114 1114 352
Width: 1186
GlyphClass: 2
Flags: W
LayerCount: 2
Fore
SplineSet
666 74 m 1,0,1
 752 74 752 74 753 75 c 1,2,3
 820 75 820 75 868 87.5 c 128,-1,4
 916 100 916 100 944 119 c 128,-1,5
 972 138 972 138 989.5 172 c 128,-1,6
 1007 206 1007 206 1014 237.5 c 128,-1,7
 1021 269 1021 269 1026 318 c 1,8,9
 1035 370 1035 370 1031 416 c 128,-1,10
 1027 462 1027 462 1009.5 496 c 128,-1,11
 992 530 992 530 941 550 c 128,-1,12
 890 570 890 570 806 571 c 1,13,-1
 718 571 l 1,14,-1
 666 74 l 1,0,1
73 0 m 1,15,-1
 197 1184 l 1,16,-1
 306 1184 l 1,17,-1
 250 648 l 1,18,-1
 618 648 l 1,19,-1
 673 1184 l 1,20,-1
 782 1184 l 1,21,-1
 726 645 l 1,22,-1
 816 645 l 2,23,24
 892 645 892 645 949 632.5 c 128,-1,25
 1006 620 1006 620 1040 598 c 128,-1,26
 1074 576 1074 576 1096 546 c 128,-1,27
 1118 516 1118 516 1125 479.5 c 128,-1,28
 1132 443 1132 443 1134 401.5 c 128,-1,29
 1136 360 1136 360 1129 317 c 1,30,31
 1123 260 1123 260 1112.5 219.5 c 128,-1,32
 1102 179 1102 179 1076 135 c 128,-1,33
 1050 91 1050 91 1010 63.5 c 128,-1,34
 970 36 970 36 902.5 18 c 128,-1,35
 835 0 835 0 743 0 c 2,36,-1
 549 0 l 1,37,-1
 609 568 l 1,38,-1
 242 568 l 1,39,-1
 182 0 l 1,40,-1
 73 0 l 1,15,-1
EndSplineSet
EndChar

StartChar: afii10108
Encoding: 1115 1115 353
Width: 832
GlyphClass: 2
Flags: W
LayerCount: 2
Fore
SplineSet
95 0 m 1,0,-1
 229 1281 l 1,1,-1
 84 1281 l 1,2,-1
 91 1351 l 1,3,-1
 236 1351 l 1,4,-1
 269 1658 l 1,5,-1
 377 1658 l 1,6,-1
 345 1351 l 1,7,-1
 600 1351 l 1,8,-1
 593 1281 l 1,9,-1
 338 1281 l 1,10,-1
 298 903 l 1,11,12
 415 993 415 993 569 993 c 0,13,14
 663 993 663 993 718.5 940.5 c 128,-1,15
 774 888 774 888 762 778 c 2,16,-1
 681 0 l 1,17,-1
 571 0 l 1,18,-1
 652 768 l 2,19,20
 669 921 669 921 534 921 c 0,21,22
 472 921 472 921 405.5 896.5 c 128,-1,23
 339 872 339 872 290 831 c 1,24,-1
 203 0 l 1,25,-1
 95 0 l 1,0,-1
EndSplineSet
EndChar

StartChar: afii10145
Encoding: 1039 1039 356
Width: 1047
GlyphClass: 2
Flags: W
LayerCount: 2
Fore
SplineSet
426 -275 m 1,0,-1
 443 0 l 1,1,-1
 110 0 l 1,2,-1
 284 1658 l 1,3,-1
 396 1658 l 1,4,-1
 231 85 l 1,5,-1
 748 85 l 1,6,-1
 913 1658 l 1,7,-1
 1025 1658 l 1,8,-1
 851 0 l 1,9,-1
 552 0 l 1,10,-1
 512 -275 l 1,11,-1
 426 -275 l 1,0,-1
EndSplineSet
EndChar

StartChar: afii10193
Encoding: 1119 1119 357
Width: 826
GlyphClass: 2
Flags: W
LayerCount: 2
Fore
SplineSet
309 -275 m 1,0,-1
 327 0 l 1,1,-1
 73 0 l 1,2,-1
 197 1184 l 1,3,-1
 306 1184 l 1,4,-1
 190 82 l 1,5,-1
 567 82 l 1,6,-1
 682 1184 l 1,7,-1
 791 1184 l 1,8,-1
 667 0 l 1,9,-1
 422 0 l 1,10,-1
 384 -275 l 1,11,-1
 309 -275 l 1,0,-1
EndSplineSet
EndChar

StartChar: afii61289
Encoding: 8467 8467 358
Width: 1024
GlyphClass: 2
Flags: W
LayerCount: 2
Fore
SplineSet
583 895 m 1,0,1
 588 902 588 902 629 956 c 128,-1,2
 670 1010 670 1010 673 1014 c 0,3,4
 825 1216 825 1216 903.5 1390 c 128,-1,5
 982 1564 982 1564 982 1661 c 0,6,7
 982 1746 982 1746 941.5 1777.5 c 128,-1,8
 901 1809 901 1809 851.5 1773 c 128,-1,9
 802 1737 802 1737 780 1653 c 2,10,-1
 583 895 l 1,0,1
779 148 m 1,11,12
 726 85 726 85 665.5 42 c 128,-1,13
 605 -1 605 -1 550.5 -16 c 128,-1,14
 496 -31 496 -31 448.5 -21 c 128,-1,15
 401 -11 401 -11 374 33 c 128,-1,16
 347 77 347 77 341.5 151.5 c 128,-1,17
 336 226 336 226 365 339 c 2,18,-1
 430 597 l 1,19,-1
 199 302 l 1,20,-1
 154 345 l 1,21,-1
 470 752 l 1,22,-1
 698 1653 l 2,23,24
 731 1781 731 1781 822 1837 c 0,25,26
 899 1885 899 1885 969 1853 c 0,27,28
 1046 1818 1046 1818 1056 1704 c 0,29,30
 1075 1504 1075 1504 872 1180 c 0,31,32
 797 1060 797 1060 693 929 c 2,33,-1
 547 744 l 1,34,-1
 441 330 l 1,35,36
 400 151 400 151 439.5 89.5 c 128,-1,37
 479 28 479 28 565.5 61.5 c 128,-1,38
 652 95 652 95 736 199 c 1,39,-1
 779 148 l 1,11,12
EndSplineSet
EndChar

StartChar: approxequal
Encoding: 8776 8776 362
Width: 802
GlyphClass: 2
Flags: W
LayerCount: 2
Fore
SplineSet
582 844 m 0,0,1
 541 844 541 844 448.5 900 c 128,-1,2
 356 956 356 956 325 956 c 0,3,4
 279 956 279 956 181 871 c 1,5,-1
 146 921 l 1,6,7
 263 1038 263 1038 341 1038 c 0,8,9
 381 1038 381 1038 473 983 c 128,-1,10
 565 928 565 928 594 928 c 0,11,12
 621 928 621 928 648 943 c 128,-1,13
 675 958 675 958 733 1001 c 1,14,-1
 767 951 l 1,15,16
 648 844 648 844 582 844 c 0,0,1
554 572 m 0,17,18
 513 572 513 572 420 627.5 c 128,-1,19
 327 683 327 683 297 683 c 0,20,21
 250 683 250 683 153 599 c 1,22,-1
 118 648 l 1,23,24
 233 765 233 765 312 765 c 0,25,26
 352 765 352 765 444 710.5 c 128,-1,27
 536 656 536 656 565 656 c 0,28,29
 592 656 592 656 618.5 671 c 128,-1,30
 645 686 645 686 704 728 c 1,31,-1
 739 679 l 1,32,33
 620 572 620 572 554 572 c 0,17,18
EndSplineSet
EndChar

StartChar: breve
Encoding: 728 728 363
Width: 735
GlyphClass: 2
Flags: W
LayerCount: 2
Fore
SplineSet
476 1431 m 0,0,1
 371 1431 371 1431 316 1487.5 c 128,-1,2
 261 1544 261 1544 268 1658 c 1,3,-1
 344 1658 l 1,4,5
 332 1501 332 1501 483 1501 c 0,6,7
 633 1501 633 1501 660 1658 c 1,8,-1
 736 1658 l 1,9,10
 719 1545 719 1545 651 1488 c 128,-1,11
 583 1431 583 1431 476 1431 c 0,0,1
EndSplineSet
EndChar

StartChar: bullet
Encoding: 8226 8226 364
Width: 543
GlyphClass: 2
Flags: W
LayerCount: 2
Fore
SplineSet
296 639 m 0,0,1
 223 639 223 639 187 684 c 128,-1,2
 151 729 151 729 158 797 c 128,-1,3
 165 865 165 865 210.5 910 c 128,-1,4
 256 955 256 955 329 955 c 0,5,6
 403 955 403 955 439 910 c 128,-1,7
 475 865 475 865 468 797 c 128,-1,8
 461 729 461 729 415.5 684 c 128,-1,9
 370 639 370 639 296 639 c 0,0,1
EndSplineSet
EndChar

StartChar: caron
Encoding: 711 711 366
Width: 567
GlyphClass: 2
Flags: W
LayerCount: 2
Fore
SplineSet
340 1326 m 1,0,-1
 203 1658 l 1,1,-1
 295 1658 l 1,2,-1
 392 1409 l 1,3,-1
 540 1658 l 1,4,-1
 632 1658 l 1,5,-1
 423 1326 l 1,6,-1
 340 1326 l 1,0,-1
EndSplineSet
EndChar

StartChar: circumflex
Encoding: 710 710 370
Width: 656
GlyphClass: 2
Flags: W
LayerCount: 2
Fore
SplineSet
174 1283 m 1,0,-1
 390 1658 l 1,1,-1
 525 1658 l 1,2,-1
 659 1283 l 1,3,-1
 582 1283 l 1,4,-1
 451 1604 l 1,5,-1
 253 1283 l 1,6,-1
 174 1283 l 1,0,-1
EndSplineSet
EndChar

StartChar: dagger
Encoding: 8224 8224 371
Width: 682
GlyphClass: 2
Flags: W
LayerCount: 2
Fore
SplineSet
248 0 m 1,0,-1
 367 1139 l 1,1,-1
 111 1139 l 1,2,-1
 121 1225 l 1,3,-1
 377 1225 l 1,4,-1
 418 1610 l 1,5,-1
 522 1610 l 1,6,-1
 482 1225 l 1,7,-1
 735 1225 l 1,8,-1
 725 1139 l 1,9,-1
 472 1139 l 1,10,-1
 352 0 l 1,11,-1
 248 0 l 1,0,-1
EndSplineSet
EndChar

StartChar: daggerdbl
Encoding: 8225 8225 372
Width: 744
GlyphClass: 2
Flags: W
LayerCount: 2
Fore
SplineSet
280 0 m 1,0,-1
 336 533 l 1,1,-1
 74 533 l 1,2,-1
 82 612 l 1,3,-1
 344 612 l 1,4,-1
 396 1104 l 1,5,-1
 134 1104 l 1,6,-1
 142 1184 l 1,7,-1
 404 1184 l 1,8,-1
 449 1610 l 1,9,-1
 552 1610 l 1,10,-1
 507 1184 l 1,11,-1
 766 1184 l 1,12,-1
 758 1104 l 1,13,-1
 499 1104 l 1,14,-1
 447 612 l 1,15,-1
 706 612 l 1,16,-1
 698 533 l 1,17,-1
 439 533 l 1,18,-1
 383 0 l 1,19,-1
 280 0 l 1,0,-1
EndSplineSet
EndChar

StartChar: dcroat
Encoding: 273 273 374
Width: 839
GlyphClass: 2
Flags: W
LayerCount: 2
Fore
SplineSet
353 66 m 0,0,1
 457 66 457 66 557 166 c 1,2,-1
 646 1014 l 1,3,4
 560 1118 560 1118 458 1118 c 0,5,6
 350 1118 350 1118 304.5 1030 c 128,-1,7
 259 942 259 942 236 723 c 2,8,-1
 210 477 l 2,9,10
 187 252 187 252 215.5 159 c 128,-1,11
 244 66 244 66 353 66 c 0,0,1
328 -19 m 0,12,13
 176 -19 176 -19 125 97.5 c 128,-1,14
 74 214 74 214 103 486 c 1,15,-1
 124 697 l 1,16,17
 152 961 152 961 223.5 1082 c 128,-1,18
 295 1203 295 1203 451 1203 c 1,19,20
 576 1202 576 1202 654 1093 c 1,21,-1
 689 1414 l 1,22,-1
 515 1414 l 1,23,-1
 522 1484 l 1,24,-1
 696 1484 l 1,25,-1
 714 1658 l 1,26,-1
 822 1658 l 1,27,-1
 804 1484 l 1,28,-1
 920 1484 l 1,29,-1
 913 1414 l 1,30,-1
 797 1414 l 1,31,-1
 648 0 l 1,32,-1
 540 0 l 1,33,-1
 549 90 l 1,34,35
 446 -19 446 -19 328 -19 c 0,12,13
EndSplineSet
EndChar

StartChar: dotlessi
Encoding: 305 305 376
Width: 372
GlyphClass: 2
Flags: W
LayerCount: 2
Fore
SplineSet
90 0 m 1,0,-1
 214 1184 l 1,1,-1
 323 1184 l 1,2,-1
 199 0 l 1,3,-1
 90 0 l 1,0,-1
EndSplineSet
EndChar

StartChar: ellipsis
Encoding: 8230 8230 380
Width: 1061
GlyphClass: 2
Flags: W
LayerCount: 2
Fore
SplineSet
795 0 m 1,0,-1
 818 213 l 1,1,-1
 940 213 l 1,2,-1
 917 0 l 1,3,-1
 795 0 l 1,0,-1
441 0 m 1,4,-1
 463 213 l 1,5,-1
 585 213 l 1,6,-1
 563 0 l 1,7,-1
 441 0 l 1,4,-1
87 0 m 1,8,-1
 109 213 l 1,9,-1
 231 213 l 1,10,-1
 209 0 l 1,11,-1
 87 0 l 1,8,-1
EndSplineSet
EndChar

StartChar: emdash
Encoding: 8212 8212 382
Width: 1529
GlyphClass: 2
Flags: W
LayerCount: 2
Fore
SplineSet
130 476 m 1,0,-1
 139 571 l 1,1,-1
 1441 571 l 1,2,-1
 1431 476 l 1,3,-1
 130 476 l 1,0,-1
EndSplineSet
EndChar

StartChar: endash
Encoding: 8211 8211 383
Width: 935
GlyphClass: 2
Flags: W
LayerCount: 2
Fore
SplineSet
126 438 m 1,0,-1
 136 535 l 1,1,-1
 844 535 l 1,2,-1
 834 438 l 1,3,-1
 126 438 l 1,0,-1
EndSplineSet
EndChar

StartChar: eng
Encoding: 331 331 384
Width: 794
GlyphClass: 2
Flags: W
LayerCount: 2
Fore
SplineSet
259 -319 m 1,0,-1
 268 -231 l 1,1,2
 343 -231 343 -231 393.5 -216.5 c 128,-1,3
 444 -202 444 -202 472.5 -171 c 128,-1,4
 501 -140 501 -140 514 -102.5 c 128,-1,5
 527 -65 527 -65 533 -10 c 2,6,-1
 633 932 l 2,7,8
 643 1035 643 1035 616 1076.5 c 128,-1,9
 589 1118 589 1118 528 1118 c 0,10,11
 413 1118 413 1118 280 987 c 1,12,-1
 176 0 l 1,13,-1
 68 0 l 1,14,-1
 192 1184 l 1,15,-1
 300 1184 l 1,16,-1
 288 1057 l 1,17,18
 427 1203 427 1203 584 1203 c 0,19,20
 669 1203 669 1203 713 1140.5 c 128,-1,21
 757 1078 757 1078 743 944 c 2,22,-1
 643 -12 l 2,23,24
 610 -319 610 -319 285 -319 c 2,25,-1
 259 -319 l 1,0,-1
EndSplineSet
EndChar

StartChar: estimated
Encoding: 8494 8494 386
Width: 800
GlyphClass: 2
Flags: W
LayerCount: 2
Fore
SplineSet
261 662 m 1,0,-1
 612 662 l 1,1,-1
 625 790 l 2,2,3
 636 896 636 896 637.5 969.5 c 128,-1,4
 639 1043 639 1043 604.5 1081.5 c 128,-1,5
 570 1120 570 1120 489 1120 c 0,6,7
 416 1120 416 1120 377 1095.5 c 128,-1,8
 338 1071 338 1071 313.5 1000 c 128,-1,9
 289 929 289 929 274 788 c 2,10,-1
 261 662 l 1,0,-1
372 -19 m 0,11,12
 330 -19 330 -19 296.5 -13.5 c 128,-1,13
 263 -8 263 -8 231 5.5 c 128,-1,14
 199 19 199 19 177.5 41.5 c 128,-1,15
 156 64 156 64 137.5 98.5 c 128,-1,16
 119 133 119 133 111.5 179.5 c 128,-1,17
 104 226 104 226 101.5 288 c 128,-1,18
 99 350 99 350 109 428 c 1,19,-1
 142 741 l 2,20,21
 153 850 153 850 176 929 c 128,-1,22
 199 1008 199 1008 228.5 1056 c 128,-1,23
 258 1104 258 1104 301.5 1131.5 c 128,-1,24
 345 1159 345 1159 390 1169 c 128,-1,25
 435 1179 435 1179 495 1179 c 0,26,27
 659 1179 659 1179 710.5 1077.5 c 128,-1,28
 762 976 762 976 735 718 c 1,29,-1
 721 610 l 1,30,-1
 255 610 l 1,31,-1
 231 379 l 2,32,33
 221 289 221 289 221 230.5 c 128,-1,34
 221 172 221 172 229 132 c 128,-1,35
 237 92 237 92 258.5 72 c 128,-1,36
 280 52 280 52 309 44.5 c 128,-1,37
 338 37 338 37 386 37 c 0,38,39
 422 37 422 37 447.5 41 c 128,-1,40
 473 45 473 45 504.5 60.5 c 128,-1,41
 536 76 536 76 557 103.5 c 128,-1,42
 578 131 578 131 595.5 182 c 128,-1,43
 613 233 613 233 621 304 c 2,44,-1
 631 400 l 1,45,-1
 701 400 l 1,46,-1
 691 308 l 2,47,48
 682 227 682 227 663.5 170.5 c 128,-1,49
 645 114 645 114 609 69.5 c 128,-1,50
 573 25 573 25 514 3 c 128,-1,51
 455 -19 455 -19 372 -19 c 0,11,12
EndSplineSet
EndChar

StartChar: florin
Encoding: 402 402 387
Width: 758
GlyphClass: 2
Flags: W
LayerCount: 2
Fore
SplineSet
13 -285 m 0,0,1
 -44 -285 -44 -285 -92 -271 c 1,2,-1
 -73 -188 l 1,3,4
 -23 -200 -23 -200 11 -200 c 0,5,6
 77 -200 77 -200 107 -161.5 c 128,-1,7
 137 -123 137 -123 163 -19 c 2,8,-1
 448 1107 l 1,9,-1
 290 1107 l 1,10,-1
 298 1184 l 1,11,-1
 465 1184 l 1,12,-1
 508 1347 l 1,13,14
 524 1412 524 1412 539 1452.5 c 128,-1,15
 554 1493 554 1493 582.5 1533.5 c 128,-1,16
 611 1574 611 1574 656 1593 c 128,-1,17
 701 1612 701 1612 766 1612 c 0,18,19
 823 1612 823 1612 871 1598 c 1,20,-1
 851 1515 l 1,21,22
 793 1527 793 1527 768 1527 c 0,23,24
 702 1527 702 1527 672 1488.5 c 128,-1,25
 642 1450 642 1450 616 1346 c 2,26,-1
 574 1184 l 1,27,-1
 760 1184 l 1,28,-1
 753 1107 l 1,29,-1
 556 1107 l 1,30,-1
 271 -20 l 2,31,32
 255 -85 255 -85 240 -125.5 c 128,-1,33
 225 -166 225 -166 196.5 -206.5 c 128,-1,34
 168 -247 168 -247 123 -266 c 128,-1,35
 78 -285 78 -285 13 -285 c 0,0,1
EndSplineSet
EndChar

StartChar: foundryicon
Encoding: 65539 -1 388
Width: 1481
GlyphClass: 2
Flags: W
LayerCount: 2
Fore
SplineSet
271 272 m 1,0,-1
 492 803 l 1,1,-1
 78 1145 l 1,2,-1
 639 1145 l 1,3,-1
 869 1677 l 1,4,-1
 998 1145 l 1,5,-1
 1559 1145 l 1,6,-1
 1071 803 l 1,7,-1
 1181 272 l 1,8,-1
 755 592 l 1,9,-1
 271 272 l 1,0,-1
EndSplineSet
EndChar

StartChar: fraction
Encoding: 8260 8260 389
Width: 429
GlyphClass: 2
Flags: W
LayerCount: 2
Fore
SplineSet
-43 0 m 1,0,-1
 468 1658 l 1,1,-1
 561 1658 l 1,2,-1
 52 0 l 1,3,-1
 -43 0 l 1,0,-1
EndSplineSet
EndChar

StartChar: gcommaaccent
Encoding: 291 291 392
Width: 901
GlyphClass: 2
Flags: W
LayerCount: 2
Fore
SplineSet
434 451 m 0,0,1
 495 451 495 451 543 476.5 c 128,-1,2
 591 502 591 502 619 538.5 c 128,-1,3
 647 575 647 575 667 625.5 c 128,-1,4
 687 676 687 676 695.5 716 c 128,-1,5
 704 756 704 756 708 799 c 1,6,7
 713 828 713 828 710.5 863.5 c 128,-1,8
 708 899 708 899 704 936 c 128,-1,9
 700 973 700 973 684.5 1008.5 c 128,-1,10
 669 1044 669 1044 647 1071.5 c 128,-1,11
 625 1099 625 1099 587.5 1116 c 128,-1,12
 550 1133 550 1133 503 1133 c 0,13,14
 446 1133 446 1133 399 1106.5 c 128,-1,15
 352 1080 352 1080 323 1042 c 128,-1,16
 294 1004 294 1004 272.5 956 c 128,-1,17
 251 908 251 908 241.5 870 c 128,-1,18
 232 832 232 832 228 800 c 1,19,20
 225 765 225 765 224.5 731.5 c 128,-1,21
 224 698 224 698 228.5 656 c 128,-1,22
 233 614 233 614 247 579.5 c 128,-1,23
 261 545 261 545 283 515 c 128,-1,24
 305 485 305 485 344 468 c 128,-1,25
 383 451 383 451 434 451 c 0,0,1
326 -332 m 0,26,27
 413 -332 413 -332 482 -314.5 c 128,-1,28
 551 -297 551 -297 599 -256.5 c 128,-1,29
 647 -216 647 -216 654 -156 c 0,30,31
 660 -108 660 -108 643.5 -76 c 128,-1,32
 627 -44 627 -44 568.5 -14.5 c 128,-1,33
 510 15 510 15 399 41 c 1,34,-1
 286 66 l 1,35,36
 245 43 245 43 215 23.5 c 128,-1,37
 185 4 185 4 146 -27.5 c 128,-1,38
 107 -59 107 -59 83.5 -97 c 128,-1,39
 60 -135 60 -135 56 -176 c 0,40,41
 50 -230 50 -230 84.5 -265.5 c 128,-1,42
 119 -301 119 -301 180 -316.5 c 128,-1,43
 241 -332 241 -332 326 -332 c 0,26,27
578 1499 m 1,44,-1
 591 1619 l 2,45,46
 601 1717 601 1717 635 1774.5 c 128,-1,47
 669 1832 669 1832 740 1872 c 1,48,-1
 752 1843 l 1,49,50
 703 1805 703 1805 678.5 1751 c 128,-1,51
 654 1697 654 1697 649 1652 c 1,52,-1
 723 1652 l 1,53,-1
 707 1499 l 1,54,-1
 578 1499 l 1,44,-1
318 -407 m 0,55,56
 133 -407 133 -407 40.5 -349.5 c 128,-1,57
 -52 -292 -52 -292 -41 -185 c 0,58,59
 -33 -108 -33 -108 41 -34.5 c 128,-1,60
 115 39 115 39 209 87 c 1,61,62
 172 97 172 97 143.5 106.5 c 128,-1,63
 115 116 115 116 88 133.5 c 128,-1,64
 61 151 61 151 62 169 c 0,65,66
 68 250 68 250 243 437 c 1,67,68
 97 547 97 547 123 797 c 0,69,70
 130 868 130 868 158 937 c 128,-1,71
 186 1006 186 1006 232 1067.5 c 128,-1,72
 278 1129 278 1129 350 1166.5 c 128,-1,73
 422 1204 422 1204 509 1204 c 0,74,75
 684 1204 684 1204 762 1045 c 1,76,77
 794 1093 794 1093 841.5 1131.5 c 128,-1,78
 889 1170 889 1170 937 1189 c 2,79,-1
 968 1201 l 1,80,-1
 991 1129 l 1,81,82
 889 1103 889 1103 790 997 c 1,83,84
 802 958 802 958 808 897 c 128,-1,85
 814 836 814 836 810 796 c 0,86,87
 791 610 791 610 694 495 c 128,-1,88
 597 380 597 380 430 380 c 0,89,90
 350 380 350 380 291 407 c 1,91,92
 284 397 284 397 251.5 357 c 128,-1,93
 219 317 219 317 202 294.5 c 128,-1,94
 185 272 185 272 167.5 241.5 c 128,-1,95
 150 211 150 211 148 193 c 0,96,97
 147 187 147 187 173 177.5 c 128,-1,98
 199 168 199 168 244 156 c 0,99,100
 288 144 288 144 362 127 c 128,-1,101
 436 110 436 110 448 107 c 0,102,103
 610 67 610 67 682.5 9.5 c 128,-1,104
 755 -48 755 -48 744 -150 c 0,105,106
 735 -233 735 -233 672 -293 c 128,-1,107
 609 -353 609 -353 517.5 -380 c 128,-1,108
 426 -407 426 -407 318 -407 c 0,55,56
EndSplineSet
EndChar

StartChar: gravecomb
Encoding: 768 768 394
Width: 0
GlyphClass: 2
Flags: W
LayerCount: 2
Fore
SplineSet
163 1261 m 1,0,-1
 40 1658 l 1,1,-1
 149 1658 l 1,2,-1
 220 1261 l 1,3,-1
 163 1261 l 1,0,-1
EndSplineSet
EndChar

StartChar: greaterequal
Encoding: 8805 8805 395
Width: 707
GlyphClass: 2
Flags: W
LayerCount: 2
Fore
SplineSet
34 0 m 1,0,-1
 42 76 l 1,1,-1
 610 76 l 1,2,-1
 601 0 l 1,3,-1
 34 0 l 1,0,-1
55 203 m 1,4,-1
 68 319 l 1,5,-1
 577 693 l 1,6,-1
 144 1051 l 1,7,-1
 157 1166 l 1,8,-1
 669 745 l 1,9,-1
 658 639 l 1,10,-1
 55 203 l 1,4,-1
EndSplineSet
EndChar

StartChar: guilsinglleft
Encoding: 8249 8249 396
Width: 730
GlyphClass: 2
Flags: W
LayerCount: 2
Fore
SplineSet
619 232 m 1,0,-1
 298 658 l 1,1,-1
 302 701 l 1,2,-1
 713 1126 l 1,3,-1
 698 986 l 1,4,-1
 401 680 l 1,5,-1
 634 372 l 1,6,-1
 619 232 l 1,0,-1
EndSplineSet
EndChar

StartChar: guilsinglright
Encoding: 8250 8250 397
Width: 677
GlyphClass: 2
Flags: W
LayerCount: 2
Fore
SplineSet
155 263 m 1,0,-1
 170 403 l 1,1,-1
 467 709 l 1,2,-1
 234 1017 l 1,3,-1
 248 1157 l 1,4,-1
 569 731 l 1,5,-1
 565 688 l 1,6,-1
 155 263 l 1,0,-1
EndSplineSet
EndChar

StartChar: hbar
Encoding: 295 295 398
Width: 801
GlyphClass: 2
Flags: W
LayerCount: 2
Fore
SplineSet
73 0 m 1,0,-1
 224 1436 l 1,1,-1
 90 1436 l 1,2,-1
 98 1506 l 1,3,-1
 232 1506 l 1,4,-1
 247 1658 l 1,5,-1
 356 1658 l 1,6,-1
 340 1506 l 1,7,-1
 583 1506 l 1,8,-1
 575 1436 l 1,9,-1
 333 1436 l 1,10,-1
 293 1058 l 1,11,12
 435 1203 435 1203 590 1203 c 0,13,14
 675 1203 675 1203 719 1140.5 c 128,-1,15
 763 1078 763 1078 749 944 c 2,16,-1
 649 0 l 1,17,-1
 540 0 l 1,18,-1
 638 932 l 2,19,20
 649 1035 649 1035 622 1076.5 c 128,-1,21
 595 1118 595 1118 534 1118 c 0,22,23
 418 1118 418 1118 286 988 c 1,24,-1
 182 0 l 1,25,-1
 73 0 l 1,0,-1
EndSplineSet
EndChar

StartChar: hungarumlaut
Encoding: 733 733 400
Width: 536
GlyphClass: 2
Flags: W
LayerCount: 2
Fore
SplineSet
427 1366 m 1,0,-1
 571 1680 l 1,1,-1
 698 1680 l 1,2,-1
 490 1366 l 1,3,-1
 427 1366 l 1,0,-1
246 1366 m 1,4,-1
 357 1680 l 1,5,-1
 466 1680 l 1,6,-1
 306 1366 l 1,7,-1
 246 1366 l 1,4,-1
EndSplineSet
EndChar

StartChar: infinity
Encoding: 8734 8734 404
Width: 1233
GlyphClass: 2
Flags: W
LayerCount: 2
Fore
SplineSet
965 561 m 0,0,1
 1041 560 1041 560 1087 608 c 128,-1,2
 1133 656 1133 656 1141 735 c 0,3,4
 1149 815 1149 815 1113.5 862 c 128,-1,5
 1078 909 1078 909 1001 908 c 0,6,7
 939 908 939 908 880.5 870 c 128,-1,8
 822 832 822 832 721 735 c 1,9,10
 802 637 802 637 852.5 599 c 128,-1,11
 903 561 903 561 965 561 c 0,0,1
304 556 m 0,12,13
 368 556 368 556 428.5 595.5 c 128,-1,14
 489 635 489 635 593 735 c 1,15,16
 509 834 509 834 457 873.5 c 128,-1,17
 405 913 405 913 342 913 c 0,18,19
 263 914 263 914 216.5 867.5 c 128,-1,20
 170 821 170 821 161 734 c 128,-1,21
 152 647 152 647 188.5 601 c 128,-1,22
 225 555 225 555 304 556 c 0,12,13
299 464 m 0,23,24
 177 464 177 464 121 536.5 c 128,-1,25
 65 609 65 609 78 734 c 128,-1,26
 91 859 91 859 162.5 932 c 128,-1,27
 234 1005 234 1005 356 1005 c 0,28,29
 442 1005 442 1005 509 958.5 c 128,-1,30
 576 912 576 912 664 805 c 1,31,32
 777 912 777 912 849.5 957 c 128,-1,33
 922 1002 922 1002 1005 1001 c 0,34,35
 1124 1000 1124 1000 1180.5 929 c 128,-1,36
 1237 858 1237 858 1224 735 c 0,37,38
 1210 611 1210 611 1139 540 c 128,-1,39
 1068 469 1068 469 949 468 c 0,40,41
 866 467 866 467 803 512 c 128,-1,42
 740 557 740 557 649 664 c 1,43,44
 539 557 539 557 462 510.5 c 128,-1,45
 385 464 385 464 299 464 c 0,23,24
EndSplineSet
EndChar

StartChar: integral
Encoding: 8747 8747 405
Width: 547
GlyphClass: 2
Flags: W
LayerCount: 2
Fore
SplineSet
35 -389 m 0,0,1
 -22 -389 -22 -389 -72 -375 c 1,2,-1
 -63 -292 l 1,3,4
 -13 -304 -13 -304 23 -304 c 0,5,6
 89 -304 89 -304 113 -265 c 128,-1,7
 137 -226 137 -226 148 -123 c 2,8,-1
 309 1415 l 2,9,10
 315 1467 315 1467 321 1500.5 c 128,-1,11
 327 1534 327 1534 342 1571.5 c 128,-1,12
 357 1609 357 1609 379 1630.5 c 128,-1,13
 401 1652 401 1652 439 1666 c 128,-1,14
 477 1680 477 1680 529 1680 c 0,15,16
 587 1680 587 1680 635 1666 c 1,17,-1
 627 1583 l 1,18,19
 562 1595 562 1595 542 1595 c 0,20,21
 476 1595 476 1595 451.5 1556 c 128,-1,22
 427 1517 427 1517 416 1414 c 2,23,-1
 255 -124 l 2,24,25
 249 -176 249 -176 243 -209.5 c 128,-1,26
 237 -243 237 -243 222 -280.5 c 128,-1,27
 207 -318 207 -318 185 -339.5 c 128,-1,28
 163 -361 163 -361 125 -375 c 128,-1,29
 87 -389 87 -389 35 -389 c 0,0,1
EndSplineSet
EndChar

StartChar: kgreenlandic
Encoding: 312 312 410
Width: 841
GlyphClass: 2
Flags: W
LayerCount: 2
Fore
SplineSet
88 0 m 1,0,-1
 212 1184 l 1,1,-1
 321 1184 l 1,2,-1
 256 565 l 1,3,-1
 734 1184 l 1,4,-1
 850 1184 l 1,5,-1
 497 721 l 1,6,-1
 732 0 l 1,7,-1
 621 0 l 1,8,-1
 413 648 l 1,9,-1
 243 440 l 1,10,-1
 197 0 l 1,11,-1
 88 0 l 1,0,-1
EndSplineSet
EndChar

StartChar: lessequal
Encoding: 8804 8804 415
Width: 741
GlyphClass: 2
Flags: W
LayerCount: 2
Fore
SplineSet
19 0 m 1,0,-1
 28 76 l 1,1,-1
 595 76 l 1,2,-1
 587 0 l 1,3,-1
 19 0 l 1,0,-1
599 199 m 1,4,-1
 88 619 l 1,5,-1
 99 725 l 1,6,-1
 701 1162 l 1,7,-1
 689 1045 l 1,8,-1
 179 672 l 1,9,-1
 612 313 l 1,10,-1
 599 199 l 1,4,-1
EndSplineSet
EndChar

StartChar: lozenge
Encoding: 9674 9674 416
Width: 845
GlyphClass: 2
Flags: W
LayerCount: 2
Fore
SplineSet
393 78 m 1,0,-1
 694 592 l 1,1,-1
 490 1102 l 1,2,-1
 192 592 l 1,3,-1
 393 78 l 1,0,-1
352 0 m 1,4,-1
 103 592 l 1,5,-1
 463 1184 l 1,6,-1
 532 1184 l 1,7,-1
 780 592 l 1,8,-1
 421 0 l 1,9,-1
 352 0 l 1,4,-1
EndSplineSet
EndChar

StartChar: lslash
Encoding: 322 322 417
Width: 505
GlyphClass: 2
Flags: W
LayerCount: 2
Fore
SplineSet
156 0 m 1,0,-1
 255 943 l 1,1,-1
 121 873 l 1,2,-1
 131 968 l 1,3,-1
 265 1038 l 1,4,-1
 330 1658 l 1,5,-1
 438 1658 l 1,6,-1
 380 1093 l 1,7,-1
 511 1162 l 1,8,-1
 501 1068 l 1,9,-1
 369 999 l 1,10,-1
 264 0 l 1,11,-1
 156 0 l 1,0,-1
EndSplineSet
EndChar

StartChar: minus
Encoding: 8722 8722 418
Width: 706
GlyphClass: 2
Flags: W
LayerCount: 2
Fore
SplineSet
104 739 m 1,0,-1
 113 815 l 1,1,-1
 680 815 l 1,2,-1
 671 739 l 1,3,-1
 104 739 l 1,0,-1
EndSplineSet
EndChar

StartChar: notequal
Encoding: 8800 8800 423
Width: 831
GlyphClass: 2
Flags: W
LayerCount: 2
Fore
SplineSet
96 0 m 1,0,-1
 332 590 l 1,1,-1
 120 590 l 1,2,-1
 129 682 l 1,3,-1
 368 682 l 1,4,-1
 465 923 l 1,5,-1
 154 923 l 1,6,-1
 164 1014 l 1,7,-1
 499 1014 l 1,8,-1
 758 1658 l 1,9,-1
 855 1658 l 1,10,-1
 598 1014 l 1,11,-1
 765 1014 l 1,12,-1
 755 923 l 1,13,-1
 562 923 l 1,14,-1
 465 682 l 1,15,-1
 730 682 l 1,16,-1
 721 590 l 1,17,-1
 430 590 l 1,18,-1
 194 0 l 1,19,-1
 96 0 l 1,0,-1
EndSplineSet
EndChar

StartChar: oe
Encoding: 339 339 425
Width: 1284
GlyphClass: 2
Flags: W
LayerCount: 2
Fore
SplineSet
729 684 m 1,0,-1
 1109 684 l 1,1,-1
 1116 756 l 2,2,3
 1122 814 1122 814 1124.5 855 c 128,-1,4
 1127 896 1127 896 1125.5 940.5 c 128,-1,5
 1124 985 1124 985 1114 1014 c 128,-1,6
 1104 1043 1104 1043 1087 1068 c 128,-1,7
 1070 1093 1070 1093 1040 1104.5 c 128,-1,8
 1010 1116 1010 1116 969 1116 c 0,9,10
 865 1116 865 1116 811.5 1038 c 128,-1,11
 758 960 758 960 737 766 c 1,12,-1
 729 684 l 1,0,-1
365 68 m 0,13,14
 416 68 416 68 452.5 85 c 128,-1,15
 489 102 489 102 512.5 129.5 c 128,-1,16
 536 157 536 157 552 206.5 c 128,-1,17
 568 256 568 256 576.5 305 c 128,-1,18
 585 354 585 354 593 431 c 2,19,-1
 627 753 l 1,20,21
 638 867 638 867 636.5 948 c 128,-1,22
 635 1029 635 1029 596.5 1072.5 c 128,-1,23
 558 1116 558 1116 475 1116 c 0,24,25
 424 1116 424 1116 387.5 1099 c 128,-1,26
 351 1082 351 1082 327.5 1054.5 c 128,-1,27
 304 1027 304 1027 288 978 c 128,-1,28
 272 929 272 929 264 879 c 128,-1,29
 256 829 256 829 248 753 c 2,30,-1
 214 431 l 2,31,32
 202 317 202 317 203.5 236 c 128,-1,33
 205 155 205 155 243.5 111.5 c 128,-1,34
 282 68 282 68 365 68 c 0,13,14
356 -19 m 0,35,36
 240 -19 240 -19 179 31.5 c 128,-1,37
 118 82 118 82 103.5 182 c 128,-1,38
 89 282 89 282 105 431 c 2,39,-1
 139 753 l 2,40,41
 163 986 163 986 239 1094.5 c 128,-1,42
 315 1203 315 1203 485 1203 c 0,43,44
 584 1203 584 1203 640.5 1156 c 128,-1,45
 697 1109 697 1109 711 1020 c 1,46,47
 783 1203 783 1203 981 1203 c 0,48,49
 1142 1203 1142 1203 1195.5 1097 c 128,-1,50
 1249 991 1249 991 1223 735 c 1,51,-1
 1208 621 l 1,52,-1
 722 621 l 1,53,-1
 705 457 l 2,54,55
 683 246 683 246 718 158 c 128,-1,56
 753 70 753 70 856 68 c 0,57,58
 887 68 887 68 908.5 70.5 c 128,-1,59
 930 73 930 73 959.5 86.5 c 128,-1,60
 989 100 989 100 1008.5 124.5 c 128,-1,61
 1028 149 1028 149 1045.5 196 c 128,-1,62
 1063 243 1063 243 1070 310 c 2,63,-1
 1079 400 l 1,64,-1
 1187 400 l 1,65,-1
 1177 312 l 1,66,67
 1160 150 1160 150 1083 64.5 c 128,-1,68
 1006 -21 1006 -21 847 -19 c 0,69,70
 653 -17 653 -17 623 175 c 1,71,72
 557 -19 557 -19 356 -19 c 0,35,36
EndSplineSet
EndChar

StartChar: ogonek
Encoding: 731 731 426
Width: 449
GlyphClass: 4
Flags: W
AnchorPoint: "Anchor-0" 271 0 mark 0
LayerCount: 2
Fore
SplineSet
244 -407 m 1,0,1
 119 -407 119 -407 60 -365.5 c 128,-1,2
 1 -324 1 -324 9 -244 c 0,3,4
 17 -173 17 -173 71.5 -102.5 c 128,-1,5
 126 -32 126 -32 198 4 c 1,6,-1
 260 4 l 1,7,8
 106 -136 106 -136 95 -235 c 0,9,10
 89 -292 89 -292 138.5 -318.5 c 128,-1,11
 188 -345 188 -345 269 -345 c 1,12,-1
 244 -407 l 1,0,1
EndSplineSet
EndChar

StartChar: partialdiff
Encoding: 8706 8706 429
Width: 865
GlyphClass: 2
Flags: W
LayerCount: 2
Fore
SplineSet
372 61 m 0,0,1
 565 61 565 61 615 329 c 1,2,-1
 716 923 l 1,3,4
 605 1039 605 1039 501 1039 c 0,5,6
 388 1039 388 1039 338.5 960.5 c 128,-1,7
 289 882 289 882 254 667 c 1,8,-1
 218 459 l 2,9,10
 212 425 212 425 203 353 c 1,11,12
 187 199 187 199 227 130 c 128,-1,13
 267 61 267 61 372 61 c 0,0,1
360 -22 m 1,14,15
 211 -18 211 -18 147 76 c 128,-1,16
 83 170 83 170 104 371 c 0,17,18
 109 422 109 422 117 470 c 2,19,-1
 154 675 l 1,20,21
 193 916 193 916 271.5 1019 c 128,-1,22
 350 1122 350 1122 503 1122 c 1,23,24
 646 1121 646 1121 733 1000 c 1,25,26
 741 1026 741 1026 763 1189 c 1,27,28
 775 1305 775 1305 756.5 1385 c 128,-1,29
 738 1465 738 1465 687.5 1511.5 c 128,-1,30
 637 1558 637 1558 568 1580 c 128,-1,31
 499 1602 499 1602 399 1609 c 1,32,-1
 433 1685 l 1,33,34
 505 1685 505 1685 566.5 1672.5 c 128,-1,35
 628 1660 628 1660 688.5 1625 c 128,-1,36
 749 1590 749 1590 789 1535 c 128,-1,37
 829 1480 829 1480 848 1387 c 128,-1,38
 867 1294 867 1294 854 1173 c 1,39,-1
 721 353 l 1,40,41
 703 250 703 250 666.5 175 c 128,-1,42
 630 100 630 100 581 58 c 128,-1,43
 532 16 532 16 477.5 -3 c 128,-1,44
 423 -22 423 -22 360 -22 c 1,14,15
EndSplineSet
EndChar

StartChar: perthousand
Encoding: 8240 8240 430
Width: 1858
GlyphClass: 2
Flags: W
LayerCount: 2
Fore
SplineSet
292 0 m 1,0,-1
 1035 1680 l 1,1,-1
 1134 1680 l 1,2,-1
 393 0 l 1,3,-1
 292 0 l 1,0,-1
1503 -14 m 0,4,5
 1295 -14 1295 -14 1324 265 c 2,6,-1
 1355 556 l 1,7,8
 1383 830 1383 830 1592 830 c 128,-1,9
 1801 830 1801 830 1773 559 c 1,10,-1
 1741 263 l 2,11,12
 1712 -14 1712 -14 1503 -14 c 0,4,5
1512 71 m 0,13,14
 1572 71 1572 71 1602 119.5 c 128,-1,15
 1632 168 1632 168 1642 260 c 2,16,-1
 1674 562 l 2,17,18
 1683 650 1683 650 1663 697.5 c 128,-1,19
 1643 745 1643 745 1584 745 c 0,20,21
 1472 745 1472 745 1454 560 c 1,22,-1
 1423 259 l 2,23,24
 1413 167 1413 167 1433 119 c 128,-1,25
 1453 71 1453 71 1512 71 c 0,13,14
978 -13 m 0,26,27
 770 -13 770 -13 798 266 c 1,28,-1
 829 557 l 1,29,30
 857 831 857 831 1066 831 c 128,-1,31
 1275 831 1275 831 1247 560 c 1,32,-1
 1215 264 l 1,33,34
 1188 -13 1188 -13 978 -13 c 0,26,27
987 72 m 0,35,36
 1098 72 1098 72 1116 260 c 1,37,-1
 1148 562 l 2,38,39
 1168 746 1168 746 1058 746 c 0,40,41
 998 746 998 746 968 698 c 128,-1,42
 938 650 938 650 928 561 c 2,43,-1
 897 260 l 2,44,45
 887 168 887 168 907 120 c 128,-1,46
 927 72 927 72 987 72 c 0,35,36
358 855 m 0,47,48
 149 855 149 855 178 1134 c 2,49,-1
 209 1425 l 1,50,51
 237 1699 237 1699 446 1699 c 0,52,53
 654 1699 654 1699 626 1428 c 2,54,-1
 596 1132 l 1,55,56
 581 1001 581 1001 525.5 928 c 128,-1,57
 470 855 470 855 358 855 c 0,47,48
367 940 m 0,58,59
 426 940 426 940 456 988.5 c 128,-1,60
 486 1037 486 1037 496 1128 c 2,61,-1
 528 1430 l 2,62,63
 548 1614 548 1614 437 1614 c 0,64,65
 377 1614 377 1614 347.5 1566 c 128,-1,66
 318 1518 318 1518 309 1429 c 2,67,-1
 276 1128 l 2,68,69
 266 1036 266 1036 286.5 988 c 128,-1,70
 307 940 307 940 367 940 c 0,58,59
EndSplineSet
EndChar

StartChar: pi
Encoding: 960 960 431
Width: 883
GlyphClass: 2
Flags: W
LayerCount: 2
Fore
SplineSet
109 0 m 1,0,-1
 225 1099 l 1,1,-1
 102 1099 l 1,2,-1
 111 1184 l 1,3,-1
 904 1184 l 1,4,-1
 896 1099 l 1,5,-1
 756 1099 l 1,6,-1
 673 305 l 1,7,8
 661 219 661 219 664.5 170.5 c 128,-1,9
 668 122 668 122 692.5 104 c 128,-1,10
 717 86 717 86 778 86 c 1,11,-1
 755 -5 l 1,12,13
 622 -5 622 -5 583.5 60 c 128,-1,14
 545 125 545 125 562 288 c 2,15,-1
 647 1099 l 1,16,-1
 334 1099 l 1,17,-1
 218 0 l 1,18,-1
 109 0 l 1,0,-1
EndSplineSet
EndChar

StartChar: product
Encoding: 8719 8719 432
Width: 1148
GlyphClass: 2
Flags: W
LayerCount: 2
Fore
SplineSet
68 -390 m 1,0,-1
 283 1658 l 1,1,-1
 1128 1658 l 1,2,-1
 913 -390 l 1,3,-1
 804 -390 l 1,4,-1
 1010 1573 l 1,5,-1
 384 1573 l 1,6,-1
 177 -390 l 1,7,-1
 68 -390 l 1,0,-1
EndSplineSet
EndChar

StartChar: quotedblbase
Encoding: 8222 8222 433
Width: 730
GlyphClass: 2
Flags: W
LayerCount: 2
Fore
SplineSet
407 -227 m 1,0,-1
 378 -191 l 1,1,2
 433 -158 433 -158 453 -116 c 128,-1,3
 473 -74 473 -74 482 12 c 1,4,-1
 416 12 l 1,5,-1
 435 196 l 1,6,-1
 568 196 l 1,7,-1
 552 42 l 2,8,9
 540 -73 540 -73 509 -134 c 128,-1,10
 478 -195 478 -195 407 -227 c 1,0,-1
134 -227 m 1,11,-1
 105 -191 l 1,12,13
 160 -158 160 -158 180 -116 c 128,-1,14
 200 -74 200 -74 209 12 c 1,15,-1
 143 12 l 1,16,-1
 162 196 l 1,17,-1
 295 196 l 1,18,-1
 279 42 l 2,19,20
 267 -73 267 -73 236 -134 c 128,-1,21
 205 -195 205 -195 134 -227 c 1,11,-1
EndSplineSet
EndChar

StartChar: quotedblleft
Encoding: 8220 8220 434
Width: 681
GlyphClass: 2
Flags: W
LayerCount: 2
Fore
SplineSet
496 1288 m 1,0,-1
 512 1442 l 2,1,2
 524 1556 524 1556 555 1617 c 128,-1,3
 586 1678 586 1678 658 1711 c 1,4,-1
 686 1675 l 1,5,6
 631 1641 631 1641 611.5 1599.5 c 128,-1,7
 592 1558 592 1558 582 1472 c 1,8,-1
 649 1472 l 1,9,-1
 630 1288 l 1,10,-1
 496 1288 l 1,0,-1
226 1288 m 1,11,-1
 242 1442 l 2,12,13
 254 1556 254 1556 285 1617 c 128,-1,14
 316 1678 316 1678 387 1711 c 1,15,-1
 416 1675 l 1,16,17
 361 1641 361 1641 341 1599.5 c 128,-1,18
 321 1558 321 1558 312 1472 c 1,19,-1
 378 1472 l 1,20,-1
 359 1288 l 1,21,-1
 226 1288 l 1,11,-1
EndSplineSet
EndChar

StartChar: quotedblright
Encoding: 8221 8221 435
Width: 970
GlyphClass: 2
Flags: W
LayerCount: 2
Fore
SplineSet
659 1235 m 1,0,-1
 630 1270 l 1,1,2
 685 1304 685 1304 704.5 1345.5 c 128,-1,3
 724 1387 724 1387 734 1473 c 1,4,-1
 668 1473 l 1,5,-1
 687 1658 l 1,6,-1
 820 1658 l 1,7,-1
 805 1504 l 1,8,9
 792 1389 792 1389 761 1328 c 128,-1,10
 730 1267 730 1267 659 1235 c 1,0,-1
419 1235 m 1,11,-1
 390 1270 l 1,12,13
 445 1304 445 1304 465 1345.5 c 128,-1,14
 485 1387 485 1387 494 1473 c 1,15,-1
 428 1473 l 1,16,-1
 447 1658 l 1,17,-1
 580 1658 l 1,18,-1
 565 1504 l 1,19,20
 552 1389 552 1389 521 1328 c 128,-1,21
 490 1267 490 1267 419 1235 c 1,11,-1
EndSplineSet
EndChar

StartChar: quoteleft
Encoding: 8216 8216 436
Width: 464
GlyphClass: 2
Flags: W
LayerCount: 2
Fore
SplineSet
199 1288 m 1,0,-1
 215 1442 l 2,1,2
 227 1556 227 1556 258 1617 c 128,-1,3
 289 1678 289 1678 361 1711 c 1,4,-1
 389 1675 l 1,5,6
 334 1641 334 1641 314 1599 c 128,-1,7
 294 1557 294 1557 285 1472 c 1,8,-1
 351 1472 l 1,9,-1
 332 1288 l 1,10,-1
 199 1288 l 1,0,-1
EndSplineSet
EndChar

StartChar: quoteright
Encoding: 8217 8217 437
Width: 313
GlyphClass: 2
Flags: W
LayerCount: 2
Fore
SplineSet
215 1235 m 1,0,-1
 187 1271 l 1,1,2
 242 1304 242 1304 261.5 1346 c 128,-1,3
 281 1388 281 1388 291 1474 c 1,4,-1
 224 1474 l 1,5,-1
 244 1658 l 1,6,-1
 377 1658 l 1,7,-1
 361 1504 l 2,8,9
 348 1388 348 1388 317.5 1327.5 c 128,-1,10
 287 1267 287 1267 215 1235 c 1,0,-1
EndSplineSet
EndChar

StartChar: quotesinglbase
Encoding: 8218 8218 438
Width: 572
GlyphClass: 2
Flags: W
LayerCount: 2
Fore
SplineSet
187 -226 m 1,0,-1
 158 -190 l 1,1,2
 214 -157 214 -157 234 -115 c 128,-1,3
 254 -73 254 -73 263 13 c 1,4,-1
 196 13 l 1,5,-1
 216 197 l 1,6,-1
 349 197 l 1,7,-1
 333 43 l 2,8,9
 321 -72 321 -72 290 -133 c 128,-1,10
 259 -194 259 -194 187 -226 c 1,0,-1
EndSplineSet
EndChar

StartChar: radical
Encoding: 8730 8730 440
Width: 949
GlyphClass: 2
Flags: W
LayerCount: 2
Fore
SplineSet
388 0 m 1,0,-1
 243 1107 l 1,1,-1
 65 1106 l 1,2,-1
 72 1184 l 1,3,-1
 343 1184 l 1,4,5
 354 1106 354 1106 379.5 896 c 128,-1,6
 405 686 405 686 408 659 c 0,7,8
 418 587 418 587 437.5 404 c 128,-1,9
 457 221 457 221 465 161 c 1,10,11
 494 252 494 252 571 493 c 128,-1,12
 648 734 648 734 681 835 c 0,13,14
 711 928 711 928 810.5 1243.5 c 128,-1,15
 910 1559 910 1559 943 1658 c 1,16,-1
 1055 1658 l 1,17,-1
 509 0 l 1,18,-1
 388 0 l 1,0,-1
EndSplineSet
EndChar

